<?xml version="1.0" encoding="utf-8"?>
<!-- Generator: Adobe Illustrator 25.0.0, SVG Export Plug-In . SVG Version: 6.00 Build 0)  -->
<svg version="1.1" xmlns="http://www.w3.org/2000/svg" xmlns:xlink="http://www.w3.org/1999/xlink" x="0px" y="0px"
	 viewBox="0 0 500 500" style="enable-background:new 0 0 500 500;" xml:space="preserve">
<style type="text/css">
	.st0{fill:#EBEBEB;}
	.st1{opacity:0.49;fill:#EBEBEB;}
	.st2{fill:#E0E0E0;}
	.st3{fill:#FAFAFA;}
	.st4{fill:#F0F0F0;}
	.st5{fill:#E6E6E6;}
	.st6{fill:#F0F0F0;stroke:#E0E0E0;stroke-width:1.5953;stroke-linecap:round;stroke-linejoin:round;stroke-miterlimit:10;}
	.st7{display:none;}
	.st8{display:inline;}
	.st9{fill:#407BFF;}
	.st10{opacity:0.9;fill:#FFFFFF;}
	.st11{fill:#F5F5F5;}
	.st12{fill:#2E353A;}
	.st13{opacity:0.2;enable-background:new    ;}
	.st14{fill:#FFFFFF;}
	.st15{opacity:0.2;fill:#FFFFFF;enable-background:new    ;}
	.st16{opacity:0.3;fill:#FFFFFF;enable-background:new    ;}
	.st17{opacity:0.6;fill:#FFFFFF;enable-background:new    ;}
	.st18{opacity:0.4;}
	.st19{fill:none;stroke:#000000;stroke-linecap:round;stroke-linejoin:round;stroke-miterlimit:10;}
	.st20{opacity:0.2;fill:#FFFFFF;}
	.st21{fill:#C10C1B;}
	.st22{fill:#FEFDFE;}
	.st23{opacity:0.6;enable-background:new    ;}
	.st24{fill:#263238;}
	.st25{opacity:0.4;fill:#FFFFFF;enable-background:new    ;}
	.st26{opacity:0.3;enable-background:new    ;}
	.st27{opacity:0.4;enable-background:new    ;}
	.st28{opacity:0.5;fill:#FFFFFF;enable-background:new    ;}
	.st29{fill:#E9B376;}
	.st30{fill:#EBB376;}
	.st31{opacity:0.1;enable-background:new    ;}
	.st32{opacity:0.6;fill:#FFFFFF;}
	.st33{fill:none;stroke:#263238;stroke-width:2.0077;stroke-miterlimit:10;}
	.st34{fill:#D58745;}
	.st35{fill:#DE5753;}
	.st36{opacity:0.7;fill:#FFFFFF;}
	.st37{opacity:0.2;}
	.st38{opacity:0.3;}
	.st39{fill:#A02724;}
</style>
<g id="Background_Complete">
	<g>
		<rect y="382.4" class="st0" width="500" height="0.25"/>
		<rect x="416.78" y="398.49" class="st0" width="33.12" height="0.25"/>
		<rect x="322.53" y="401.21" class="st0" width="8.69" height="0.25"/>
		<rect x="396.59" y="389.21" class="st0" width="19.19" height="0.25"/>
		<rect x="52.46" y="390.89" class="st0" width="43.19" height="0.25"/>
		<rect x="104.56" y="390.89" class="st0" width="6.33" height="0.25"/>
		<rect x="131.47" y="395.11" class="st0" width="93.68" height="0.25"/>
		<path class="st0" d="M237.01,54.95H43.92c-3.15,0-5.71,2.56-5.71,5.71v271.43c0,3.15,2.56,5.71,5.71,5.71h193.09
			c3.15,0,5.71-2.56,5.71-5.71V60.66C242.72,57.51,240.16,54.95,237.01,54.95z M242.47,332.09c0,3.01-2.45,5.46-5.46,5.46H43.92
			c-3.01,0-5.46-2.45-5.46-5.46V60.66c0-3.01,2.45-5.46,5.46-5.46h193.09c3.01,0,5.46,2.45,5.46,5.46V332.09z"/>
		<path class="st1" d="M242.47,60.66v271.43c0,3.01-2.45,5.46-5.46,5.46H43.92c-3.01,0-5.46-2.45-5.46-5.46V60.66
			c0-3.01,2.45-5.46,5.46-5.46h193.09C240.02,55.2,242.47,57.65,242.47,60.66z"/>
		<path class="st0" d="M453.31,54.95h-193.1c-3.14,0-5.71,2.56-5.71,5.71v271.43c0,3.15,2.57,5.71,5.71,5.71h193.1
			c3.15,0,5.71-2.56,5.71-5.71V60.66C459.02,57.51,456.46,54.95,453.31,54.95z M458.77,332.09c0,3.01-2.45,5.46-5.46,5.46h-193.1
			c-3.01,0-5.46-2.45-5.46-5.46V60.66c0-3.01,2.45-5.46,5.46-5.46h193.1c3.01,0,5.46,2.45,5.46,5.46V332.09z"/>
		<path class="st1" d="M458.77,60.66v271.43c0,3.01-2.45,5.46-5.46,5.46h-193.1c-3.01,0-5.46-2.45-5.46-5.46V60.66
			c0-3.01,2.45-5.46,5.46-5.46h193.1C456.32,55.2,458.77,57.65,458.77,60.66z"/>
	</g>
	<g>
		<g>
			<g>
				<polygon class="st2" points="439.36,138.8 407.94,120.52 383.73,120.52 351.78,137.94 351.78,256.42 439.36,256.42 				"/>
			</g>
			<g>
				<g>
					<g>
						<path class="st3" d="M350.88,138.8l0.9-0.87c11.69-11.23,27.08-17.42,43.34-17.42c0,0,0,0,0,0c16.26,0,31.66,6.19,43.34,17.42
							l0.9,0.87v117.62h-88.49V138.8z M433.49,141.32c-10.47-9.64-24.05-14.93-38.37-14.93c-14.32,0-27.9,5.29-38.37,14.93v109.23
							h76.75V141.32z"/>
					</g>
				</g>
				<polygon class="st4" points="397.32,251.26 392.92,251.26 392.92,211.94 355.64,211.94 355.64,207.53 392.92,207.53 
					392.92,167.32 355.64,167.32 355.64,162.91 392.92,162.91 392.92,125.63 397.32,125.63 397.32,162.91 434.61,162.91 
					434.61,167.32 397.32,167.32 397.32,207.53 434.61,207.53 434.61,211.94 397.32,211.94 				"/>
				<g>
					<path class="st4" d="M347.94,137.6l0.86-0.86c25.54-25.54,67.1-25.54,92.64,0l0.86,0.86v121.75h-94.36V137.6z M436.43,140.05
						c-23.03-22.13-59.59-22.13-82.62,0v113.44h82.62V140.05z"/>
				</g>
			</g>
		</g>
		<g>
			<path class="st5" d="M75.41,149.19c0,0-0.85-5.64,3.26-9.25c4.11-3.61,3.75-5.76,2.57-6.04c-1.17-0.28-2.26,3.33-4.07,4.33
				c0,0-0.06-5.15,1.78-7.05c1.84-1.9,2.8-6.78,1.05-6.87c-1.75-0.09-1.93,2.9-2.29,5.02c-0.36,2.12-2.31,5.1-2.31,5.1
				s-0.38-4.61-1.57-6.51c-1.19-1.9,1.98-6.23,0.76-8.13c-1.22-1.9-3.39,1.72-3.21,5.78c0.18,4.07,2.89,8.4,2.26,12.65
				c0,0-1.2-2.98-2.27-3.25c-1.07-0.27-2.16-2.24-2.88-2.97c-0.72-0.73-1.63,1.8,0,4.15c1.63,2.35,5.78,8.63,5.15,13.71
				L75.41,149.19z"/>
			<path class="st5" d="M77.86,146.62l1.35,8.45c0.42,2.61-1.6,4.97-4.24,4.97h-1.44c-2.64,0-4.66-2.36-4.24-4.97l1.35-8.45H77.86z"
				/>
			
				<rect x="57.5" y="156.93" transform="matrix(-1 -1.224647e-16 1.224647e-16 -1 210.1587 318.7395)" class="st2" width="95.15" height="4.89"/>
			
				<rect x="144.08" y="138.9" transform="matrix(-1 -1.224647e-16 1.224647e-16 -1 292.3602 295.8295)" class="st0" width="4.19" height="18.02"/>
			
				<rect x="123.81" y="138.9" transform="matrix(-1 -1.224647e-16 1.224647e-16 -1 251.8201 295.8295)" class="st0" width="4.19" height="18.02"/>
			
				<rect x="99.24" y="138.68" transform="matrix(-0.9855 -0.1698 0.1698 -0.9855 176.1232 310.4434)" class="st0" width="4.19" height="18.02"/>
			
				<rect x="138.89" y="141.28" transform="matrix(-1 -1.224647e-16 1.224647e-16 -1 281.9715 298.2044)" class="st0" width="4.19" height="15.65"/>
			
				<rect x="129.25" y="141.28" transform="matrix(-1 -1.224647e-16 1.224647e-16 -1 262.7008 298.2044)" class="st0" width="4.19" height="15.65"/>
			
				<rect x="104.93" y="141.28" transform="matrix(-1 -1.224647e-16 1.224647e-16 -1 214.0596 298.2044)" class="st0" width="4.19" height="15.65"/>
			
				<rect x="116.56" y="141.01" transform="matrix(-0.9762 -0.2169 0.2169 -0.9762 202.2095 319.8603)" class="st0" width="4.19" height="15.65"/>
			
				<rect x="135.26" y="138.01" transform="matrix(-1 -1.224647e-16 1.224647e-16 -1 272.6259 294.9348)" class="st0" width="2.1" height="18.92"/>
			
				<rect x="110.33" y="138.01" transform="matrix(-1 -1.224647e-16 1.224647e-16 -1 222.7577 294.9348)" class="st0" width="2.1" height="18.92"/>
		</g>
		<g>
			<rect x="57.5" y="193.42" class="st2" width="95.15" height="4.89"/>
			<rect x="61.88" y="175.4" class="st0" width="4.19" height="18.02"/>
			<rect x="82.15" y="175.4" class="st0" width="4.19" height="18.02"/>
			
				<rect x="106.72" y="175.18" transform="matrix(0.9855 -0.1699 0.1699 0.9855 -29.7031 21.1596)" class="st0" width="4.19" height="18.02"/>
			<rect x="67.08" y="177.78" class="st0" width="4.19" height="15.65"/>
			<rect x="76.71" y="177.78" class="st0" width="4.19" height="15.65"/>
			<rect x="101.03" y="177.78" class="st0" width="4.19" height="15.65"/>
			
				<rect x="89.41" y="177.51" transform="matrix(0.9762 -0.2169 0.2169 0.9762 -38.0175 24.2567)" class="st0" width="4.19" height="15.65"/>
			<rect x="72.8" y="174.51" class="st0" width="2.1" height="18.92"/>
			<rect x="97.73" y="174.51" class="st0" width="2.1" height="18.92"/>
			<rect x="123.1" y="179.16" class="st0" width="20.43" height="14.1"/>
		</g>
		<g>
			<circle class="st2" cx="246.4" cy="110.38" r="18.79"/>
			<circle class="st4" cx="246.4" cy="110.38" r="15.97"/>
			<polyline class="st6" points="245.64,99.42 245.64,110.58 238.24,106.4 			"/>
		</g>
	</g>
	<polygon class="st0" points="981.98,340.81 981.98,406.94 709.3,406.94 709.3,212.41 845.64,212.41 845.64,340.81 	"/>
	<rect x="1119.85" y="442.45" class="st0" width="136.34" height="128.4"/>
	<polygon class="st0" points="1274.57,-6.58 1274.57,229.95 1115.25,229.95 1115.25,101.55 978.91,101.55 978.91,-6.58 	"/>
</g>
<g id="Background_Simple" class="st7">
	<g class="st8">
		<path class="st9" d="M244.91,92.02c-75.76,34.09-6.99,94.84-50.73,127.93c-43.75,33.09-162.69-5.16-117.35,80.76
			c53.26,100.93,286.49,86.91,336.78-36.88C463.89,140.03,320.67,57.93,244.91,92.02z"/>
		<path class="st10" d="M244.91,92.02c-75.76,34.09-6.99,94.84-50.73,127.93c-43.75,33.09-162.69-5.16-117.35,80.76
			c53.26,100.93,286.49,86.91,336.78-36.88C463.89,140.03,320.67,57.93,244.91,92.02z"/>
	</g>
</g>
<g id="Shadow_1_">
	<ellipse id="_x3C_Path_x3E__359_" class="st11" cx="250" cy="416.24" rx="193.89" ry="11.32"/>
</g>
<g id="Whiteboard">
	<g>
		<g>
			<polygon class="st12" points="309.79,413.07 309.79,282.22 300.85,282.22 300.85,413.07 295.17,414.82 295.17,417.52 
				315.48,417.52 315.48,414.82 			"/>
			<polygon class="st12" points="196.01,282.22 187.07,282.22 187.07,413.07 181.38,414.82 181.38,417.52 201.7,417.52 
				201.7,414.82 196.01,413.07 			"/>
		</g>
		<g class="st13">
			<polygon class="st14" points="309.79,292.79 300.85,292.79 300.85,413.07 295.17,414.82 295.17,417.52 315.48,417.52 
				315.48,414.82 309.79,413.07 			"/>
			<polygon class="st14" points="196.01,292.79 187.07,292.79 187.07,413.07 181.38,414.82 181.38,417.52 201.7,417.52 
				201.7,414.82 196.01,413.07 			"/>
		</g>
		
			<rect x="176.1" y="124.14" transform="matrix(-1.836970e-16 1 -1 -1.836970e-16 461.5728 -35.2946)" class="st12" width="144.67" height="177.99"/>
		
			<rect x="176.1" y="124.14" transform="matrix(-1.836970e-16 1 -1 -1.836970e-16 461.5728 -35.2946)" class="st15" width="144.67" height="177.99"/>
		<g>
			<rect x="163.4" y="144.82" class="st9" width="170.07" height="136.56"/>
			<rect x="163.4" y="144.82" class="st16" width="170.07" height="136.56"/>
		</g>
		<rect x="163.4" y="144.82" class="st17" width="170.07" height="136.56"/>
		<g class="st18">
			<path class="st19" d="M246.43,151.09c2.05,17.8,1.39,29.79,0,47.64c-0.3,3.81,1.38,13.37,1.08,17.18
				c-0.38,4.87-0.37,9.76-0.35,14.65c0.04,15,0.09,30,0.13,45"/>
			<path class="st19" d="M174.09,176.43c-0.28,3.26-0.56,6.52-0.84,9.78"/>
			<path class="st19" d="M176.3,174.73c0.24,0.07,0.42,0.29,0.56,0.5c1.75,2.6,1.72,5.97,1.62,9.11c-0.02,0.61-0.04,1.23-0.21,1.82
				c-0.49,1.67-2.07,2.74-3.53,3.67"/>
			<path class="st19" d="M184.46,182.4c1.32-0.63,2.64-1.26,3.95-1.89c-0.27,1.32,1.57,2.25,2.8,1.7c1.23-0.55,1.88-1.88,2.43-3.11
				c0.21,0.73,0.41,1.46,0.62,2.19c1.36,0.38,2.86,0.28,4.15-0.28c0.05,0.7,0.91,1.07,1.61,0.96c0.69-0.11,1.31-0.51,1.99-0.68
				c1.35-0.34,2.74,0.25,4.1,0.59c1.36,0.34,3.06,0.28,3.82-0.89c0.59,1.58,2.68,1.84,4.37,1.83c6.24-0.03,12.49-0.05,18.73-0.08"/>
			<path class="st19" d="M183.68,201.52c0.78,0.78,2.51-0.33,3.06,0.63c0.21,0.36,0.1,0.9,0.42,1.16c0.36,0.29,0.9-0.01,1.19-0.37
				c0.29-0.36,0.55-0.82,1-0.91c0.61-0.12,1.09,0.49,1.67,0.72c0.97,0.39,2-0.33,2.97-0.72c2.61-1.03,5.49,0.44,8.29,0.55
				c1.64,0.06,3.26-0.34,4.85-0.75"/>
			<path class="st19" d="M215.14,199.38c0.4-0.87,0.94-1.73,1.78-2.19c1.44-0.78,3.43,0.01,4.14,1.48c0.71,1.48,0.22,3.36-0.96,4.5
				c-0.87,0.84-2.21,1.72-1.82,2.86"/>
			<path class="st19" d="M218.27,207.85c-0.29,0.36-0.49,0.79-0.58,1.24c0.36,0.18,0.82,0.14,1.13-0.11"/>
			<path class="st19" d="M173,222.96c0.55-0.27,1.2-0.33,1.79-0.17c0.21,1.43,0.39,3.03-0.43,4.22c-0.64,0.92-1.82,1.49-2.11,2.57
				c0.94,0.11,1.89,0.14,2.84,0.07"/>
			<path class="st19" d="M177.42,221.74c1.63,1.02,2.49,3.05,2.36,4.97c-0.13,1.92-1.13,3.72-2.49,5.08"/>
			<path class="st19" d="M184.58,228.48c0.47-0.54,0.95-1.09,1.42-1.63c0.82,1.39,3.25,1.28,3.95-0.18
				c-0.01,1.18,1.53,1.84,2.64,1.46s1.88-1.37,2.64-2.27c0.76-0.9,1.71-1.8,2.88-1.85c0.07,1.26,0.14,2.53,0.21,3.79
				c0.48-0.89,1.13-1.69,1.91-2.35c0.36,0.69,0.6,1.43,0.72,2.19c0.68-0.93,1.35-1.86,2.03-2.79c0.54,0.81,0.9,1.75,1.05,2.71
				c0.83-0.26,1.6-0.69,2.26-1.25c0.29,0.45,0.58,0.91,0.86,1.37c-0.48-0.78,0.65-1.76,1.51-1.46c0.86,0.3,1.28,1.29,1.4,2.2
				c3.39,0.01,6.77-1.23,9.35-3.43c0.07,1.23,0.13,2.45,0.2,3.68c4.93,0.14,9.88-0.18,14.75-0.95"/>
			<path class="st19" d="M184.55,243.33c0.27,0.53,0.54,1.05,0.81,1.58c1.39-0.52,2.69-1.31,3.8-2.3c0.31,0.65,0.68,1.28,1.09,1.88
				c0.12-0.35,0.58-0.43,0.94-0.36c0.36,0.07,0.71,0.25,1.08,0.21c0.32-0.04,0.59-0.23,0.86-0.4c0.87-0.55,1.86-0.9,2.88-1.02
				c0.32-0.04,0.67-0.05,0.93,0.14c0.21,0.15,0.32,0.4,0.47,0.62c0.72,1.08,2.51,1.19,3.36,0.21"/>
			<path class="st19" d="M207.9,241.37c-0.56-0.92,0.22-2.11,1.15-2.66c1.09-0.64,2.5-0.84,3.63-0.28c1.13,0.57,1.83,2,1.37,3.18
				c-0.48,1.2-1.88,1.76-2.59,2.84c-0.49,0.75-0.6,1.75-0.28,2.59"/>
			<path class="st19" d="M211.9,250.07c-0.37,0.21-0.74,0.46-0.94,0.84c-0.19,0.38-0.12,0.92,0.25,1.13
				c0.37,0.21,0.95-0.19,0.78-0.59"/>
			<path class="st19" d="M256.66,195.28c0.53-0.42,1.43-0.13,1.7,0.5c0.27,0.63-0.04,1.41-0.6,1.79c-0.32,0.21-0.71,0.32-1.04,0.52
				c-0.33,0.21-0.61,0.58-0.51,0.96c0.15,0.61,1.07,0.67,1.36,1.23c0.34,0.67-0.44,1.34-1.1,1.69c-0.53,0.28-1.05,0.55-1.58,0.83
				c-0.27,0.14-0.57,0.49-0.34,0.68"/>
			<path class="st19" d="M259.48,192.68c1.36,2.24,2.76,4.71,2.42,7.3c-0.31,2.28-1.91,4.15-3.45,5.87
				c-0.45,0.51-0.99,1.06-1.67,1.06"/>
			<path class="st19" d="M269.21,199.72c-0.06-0.76,0.64-1.53,1.4-1.45c0.76,0.08,1.26,1.12,0.77,1.71c0.31-0.4,0.62-0.79,0.94-1.19
				c0.39,0.7,0.78,1.4,1.17,2.09c0.4-0.84,1.28-1.83,2.04-1.31c0.38,0.25,0.53,0.81,0.97,0.93c0.42,0.11,0.8-0.26,1.08-0.59
				c1.55-1.83,3.1-3.67,4.64-5.5c-0.15,2.15,0.14,4.33,0.86,6.36c1.85-0.76,3.55-1.9,4.96-3.32c0.66,0.32,0.13,1.53,0.71,1.99
				c0.75,0.59,1.67-1.01,2.58-0.73c0.34,0.1,0.54,0.44,0.83,0.64c0.41,0.28,0.95,0.26,1.45,0.23c1.7-0.1,3.41-0.2,5.11-0.29"/>
			<path class="st19" d="M303.48,199.28c0.82-0.13,1.63-0.25,2.45-0.38c0.18-0.03,0.39-0.05,0.52,0.08
				c0.12,0.12,0.11,0.31,0.16,0.47c0.15,0.52,0.83,0.66,1.36,0.57c0.53-0.09,1.07-0.31,1.59-0.16"/>
			<path class="st19" d="M316.76,196.54c-0.26-0.59,0.08-1.29,0.54-1.75c0.87-0.89,2.24-1.33,3.41-0.92
				c1.18,0.4,2.02,1.72,1.72,2.93c-0.32,1.29-1.66,2.03-2.4,3.14c-0.61,0.9-0.8,2.06-0.51,3.1"/>
			<path class="st19" d="M319.73,206.64c-0.07,0.28-0.26,0.52-0.35,0.79c-0.09,0.27-0.04,0.64,0.22,0.75
				c0.26,0.11,0.58-0.32,0.33-0.46"/>
			<path class="st19" d="M257.87,216.61c-0.9,2.05-2.22,3.92-3.85,5.46c1.86,0.02,3.71-0.32,5.45-0.97"/>
			<path class="st19" d="M258.56,218.34c0,1.91,0,3.82,0,5.74"/>
			<path class="st19" d="M259.95,214.95c0.1,1.16,0.74,2.19,1.17,3.27c1.15,2.81,0.88,6.16-0.7,8.76c-0.2,0.33-0.5,0.69-0.88,0.65"
				/>
			<path class="st19" d="M266.18,221.74c2.24-0.97,4.29-2.39,5.98-4.15c-0.36,1.32,1.73,2.43,2.63,1.39
				c0.24,0.66,0.49,1.32,0.73,1.99c1.39-0.43,2.74-0.99,4.03-1.66c0.1,0.48,0.21,0.95,0.31,1.43c1.26-1.15,2.51-2.31,3.77-3.46
				c0.52,0.66,0.87,1.46,0.99,2.3c0.64,0.16,1.37-0.03,1.84-0.5c0.16,0.37,0.6,0.52,1,0.61c2.17,0.46,4.47,0.29,6.55-0.49
				c0.73-0.28,1.51-0.63,2.27-0.43c0.47,0.12,0.86,0.44,1.33,0.59c1.03,0.32,2.1-0.29,3.18-0.34c1.08-0.05,2.31,1.21,1.53,1.96
				c0.89,0.53,2.06-1.03,2.91-0.44c0.28,0.19,0.41,0.58,0.73,0.67c0.33,0.1,0.64-0.16,0.92-0.36c2.99-2.23,7.66,0.57,10.86-1.35"/>
			<path class="st19" d="M267.69,235.73c0.16,0.23,0.32,0.46,0.49,0.69c1.1-0.7,2.07-1.61,2.83-2.67c0.33,0.2,0.58,0.52,0.69,0.89
				c0.78-0.27,1.55-0.55,2.33-0.82c0.08,0.54,0.46,1.25,0.95,1.03c0.24-0.1,0.35-0.4,0.59-0.49c0.32-0.13,0.65,0.16,0.82,0.46
				c0.17,0.3,0.3,0.65,0.61,0.81c0.31,0.16,0.69,0.06,1.01-0.08c1.43-0.61,2.75-1.82,4.29-1.58"/>
			<path class="st19" d="M290.02,231.21c-0.15-0.37,0.06-0.82,0.4-1.03c0.34-0.22,0.76-0.25,1.17-0.22c1.19,0.08,2.47,0.82,2.6,2.01
				c0.11,0.91-0.5,1.76-1.21,2.34c-0.71,0.58-1.56,0.98-2.23,1.61c-0.67,0.62-1.16,1.58-0.87,2.45"/>
			<path class="st19" d="M290.59,243.71c-0.2-0.07-0.4-0.13-0.59-0.2"/>
			<path class="st19" d="M257.17,244.7c-1.01,0-2.01-0.01-3.02-0.01c-0.19,1.54-0.22,3.1-0.1,4.65c0.46-0.38,0.95-0.76,1.54-0.87
				c0.59-0.1,1.29,0.19,1.42,0.77c0.13,0.58-0.32,1.11-0.77,1.49c-0.63,0.54-1.42,1.02-2.24,0.88"/>
			<path class="st19" d="M258.58,243.29c1.12,1.22,1.44,2.96,1.56,4.61c0.11,1.45,0.1,2.94-0.33,4.34
				c-0.43,1.39-1.34,2.69-2.64,3.33"/>
			<path class="st19" d="M265.77,247.87c1.41-0.64,2.81-1.27,4.22-1.91c-0.39,0.75,0.05,1.79,0.85,2.05c0.8,0.26,1.76-0.3,1.94-1.12
				c0.42,0.58,0.64,1.31,0.59,2.03c1.59-0.65,3.08-1.53,4.41-2.62c0.3,1.01,0.6,2.02,0.9,3.03c1.5-0.04,2.99-0.61,4.13-1.59
				c0.27,0.39,0.53,0.77,0.8,1.16c1.01-0.25,2.01-0.5,3.02-0.74c1.18-0.29,2.96-0.16,2.96,1.06c2.08-1.56,5-0.98,7.51-0.33
				c0.56,0.14,1.26,0.48,1.17,1.05c1.12-0.6,2.09-1.45,3.22-2.02c2.08-1.04,4.67-1.01,6.73,0.09"/>
			<path class="st19" d="M317.11,246.28c0.01-0.65,0.02-1.3,0.02-1.96c1.4-0.26,2.93,0.55,3.51,1.85c0.11,0.24,0.19,0.5,0.2,0.77
				c0.05,0.89-0.59,1.67-1.3,2.2c-0.71,0.53-1.54,0.92-2.16,1.55c-0.62,0.64-0.99,1.65-0.54,2.42"/>
			<path class="st19" d="M317.11,257.56c-0.2-0.33-0.4-0.66-0.59-0.99"/>
		</g>
		<path class="st20" d="M321.87,211.77c-1.47,1.84-2.69,3.89-4.32,5.71c-0.34,0.38-0.55,0.78-0.67,1.18
			c-1.19,0.17-2.49,0.01-3.81-0.58c-4.59-2.06-8.78-5.54-12.41-8.98c-0.77-0.73-1.57-1.42-2.37-2.12c3.59,4,7.17,8.02,10.81,11.98
			c1.2,1.32,1.67,2.78,1.62,4.19c-1.75,1.84-3.47,3.76-5.53,5.23c-0.37,0.26-0.68,0.59-0.92,0.94c-1.26-0.08-2.53-0.65-3.66-1.87
			c-7.77-8.44-15.46-16.74-24.05-24.31c0.69,0.97,1.39,1.92,2.05,2.91c4.5,6.69,9.33,13.12,14.36,19.41
			c3.55,4.44,9.68,9.89,10.81,15.78c-0.24,0.29-0.47,0.57-0.71,0.86c-0.31,0.37-0.64,0.73-0.98,1.09c-0.31,0.06-0.62,0.16-0.89,0.35
			c-1.51,0.99-2.47,3-1.26,4.65c0.26,0.36,0.59,0.67,0.94,0.91c1.83,2.3,3.62,4.63,5.33,7.03c0.09,0.13,0.17,0.26,0.25,0.39
			c-1.23,3.51-4.15,6.07-7,8.47c-0.96-0.23-1.88-0.73-2.68-1.59c-3.43-3.72-7.35-6.99-10.52-10.93c-3.4-4.22-6.21-8.88-9.44-13.23
			c-0.05-0.07-0.11-0.14-0.16-0.21c-3.9-4.35-7.82-8.68-11.62-13.12c-3.31-3.35-6.68-6.61-9.91-9.88
			c-5.15-5.22-10.38-10.46-15.8-15.46c1.34,1.99,2.7,3.98,4.08,5.95c6.11,8.7,12.89,16.91,19.43,25.28
			c3.22,4.13,6.17,8.45,9.3,12.64c2.46,3.3,6.15,6.32,8.09,9.94c0.43,0.8,0.67,1.59,0.76,2.34c-0.22,0.19-0.42,0.39-0.6,0.63
			c-1.48,1.95-3.77,3.42-5.92,4.52c-0.58,0.3-0.95,0.69-1.19,1.13c-0.85-0.24-1.69-0.68-2.48-1.35c-3.04-2.61-5.94-5.47-8.66-8.49
			c0.87,1.5,1.62,3.04,2.1,4.68c1.54,5.25-4.32,9.11-8.81,6.78c-0.13-0.07-0.26-0.14-0.39-0.21c-0.89,2.95-4.37,5.09-7.51,4.34
			c-1.74,2.31-4.78,3.53-7.51,1.45c-11.25-8.6-21.97-18.11-32.59-27.49c-0.97-0.85-1.92-1.71-2.88-2.57
			c1.83,2.86,3.76,5.61,5.94,8.38c2.44,3.09,5.84,6.32,7.13,10.16c-0.12,0.09-0.25,0.17-0.37,0.28c-2.75,2.58-5.06,5.45-6.84,8.77
			c-0.02,0.03-0.02,0.06-0.04,0.09c-4.74-1.06-9.7-4.12-13.71-6.43c-5.24-3.01-9.97-6.64-14.56-10.52c0-0.46-0.07-0.92-0.26-1.46
			c-0.1-0.27-0.24-0.52-0.38-0.77c0.01-0.28,0.02-0.56,0.03-0.85c0.4-0.83,0.71-1.61,0.94-2.41c0.73-0.37,1.38-0.89,1.8-1.58
			c0.44-0.72,0.62-1.68,0.6-2.5c-0.03-0.24-0.06-0.47-0.1-0.71c0.47-0.39,0.76-0.87,0.9-1.37c1,0.18,2,0.62,2.93,1.43
			c1.26,1.09,2.53,2.14,3.81,3.17c-1.64-2.74-3.21-5.53-4.79-8.2c-2.79-4.69-5.72-9.25-8.91-13.68c-2.43-3.38-5.7-6.32-6.09-10.06
			c2.27-1.91,3.84-4.33,5.8-6.56c0.1-0.12,0.19-0.25,0.28-0.38c1.86,0.03,3.79,0.88,5.7,2.1c-0.52-0.62-1.03-1.25-1.5-1.9
			c-4.3-5.89-10.37-10.63-14.26-16.76c-0.5-0.79-0.8-1.56-0.93-2.29c0.45-0.57,0.9-1.14,1.35-1.7c0.75-0.95,1.07-2.15,0.65-3.21
			c0.03-0.03,0.06-0.05,0.1-0.08c-0.16-0.19-0.32-0.38-0.48-0.57c-0.01-0.01-0.01-0.02-0.02-0.03c-0.66-0.81-1.11-1.77-1.36-2.77
			c1.91-2.8,3.99-5.44,6.6-7.43c3.54,0.26,6.67,2.55,9.77,4.35c2.12,1.23,4.24,2.48,6.33,3.77c-1.04-1.36-1.98-2.78-2.65-4.36
			c-0.27-0.63-0.43-1.26-0.51-1.89c0.17-0.1,0.34-0.21,0.5-0.34c2.51-1.94,5.13-3.99,7.24-6.42c0.32,0.12,0.65,0.26,0.98,0.43
			c2.03,1.08,4.01,2.35,5.95,3.74c-0.31-0.92-0.47-1.83-0.47-2.74c0.92,0.15,1.89-0.15,2.65-0.8c1.71-1.46,3.09-3.34,4.78-4.83
			c0.54,0.14,1.05,0.35,1.53,0.68c4.47,3.03,8.25,7.01,12.52,10.31c1.07,0.83,2.15,1.65,3.23,2.46c-0.3-0.85-0.39-1.75-0.31-2.63
			c0.4-0.11,0.79-0.3,1.17-0.6c2.05-1.65,4.05-3.35,6.08-5.03c0.48,0.18,0.97,0.43,1.46,0.78c1.99,1.4,3.88,3.04,5.72,4.78
			c0.05-0.36,0.13-0.71,0.23-1.05c0.82,0.32,1.76,0.33,2.46-0.21c1.63-1.25,3.29-2.43,4.73-3.85c2.36,0.63,4.01,2.35,5.92,3.79
			c0.33,0.25,0.66,0.5,0.99,0.75c0.11-0.24,0.27-0.46,0.42-0.68c0.61,0.07,1.22-0.05,1.71-0.41c0.82-0.61,1.58-1.25,2.31-1.96
			c0.1-0.1,0.21-0.19,0.31-0.29c0.83-0.14,1.67-0.15,2.44,0.06c4.38,1.17,8.29,4.19,12.05,6.84c-0.74-0.86-1.48-1.72-2.19-2.6
			c-2.74-3.37-6.77-7.03-8.16-11.29c0.17-0.17,0.34-0.36,0.48-0.6c0.53-0.86,1.11-1.73,1.73-2.57c2.05-1.25,4.03-2.77,5.52-4.55
			c0.3,0.08,0.59,0.19,0.89,0.31c4.41,1.87,7.71,5.45,11.01,8.81c2.36,2.4,4.63,4.87,6.83,7.4c0.13-0.33,0.3-0.64,0.5-0.94
			c1.05,0.39,2.24,0.09,3.16-0.66c0.96-0.78,1.98-1.5,2.99-2.24c1.68,0.11,3.36,0.86,4.61,2.49c4.92,6.4,18.74,23.86,14.13,33.73
			c2.29,2.37,4.42,4.87,5.72,7.65C321.58,210.52,321.76,211.15,321.87,211.77z"/>
		<path class="st20" d="M178.41,206.69c1.38-1.73,2.52-3.65,4.05-5.36c0.32-0.35,0.51-0.73,0.63-1.11c1.11-0.16,2.33-0.01,3.57,0.54
			c4.31,1.93,8.23,5.2,11.64,8.42c0.72,0.69,1.48,1.34,2.22,1.99c-3.37-3.75-6.73-7.52-10.13-11.24c-1.13-1.23-1.57-2.61-1.52-3.93
			c1.64-1.72,3.25-3.52,5.18-4.9c0.35-0.25,0.63-0.55,0.86-0.89c1.18,0.08,2.38,0.61,3.43,1.76c7.28,7.92,14.5,15.69,22.55,22.79
			c-0.65-0.91-1.3-1.8-1.92-2.73c-4.22-6.27-8.75-12.3-13.47-18.2c-3.33-4.16-9.07-9.28-10.14-14.79c0.22-0.27,0.44-0.54,0.67-0.81
			c0.29-0.35,0.6-0.69,0.92-1.02c0.29-0.06,0.58-0.15,0.84-0.33c1.41-0.93,2.31-2.81,1.18-4.36c-0.25-0.34-0.55-0.63-0.89-0.85
			c-1.71-2.16-3.39-4.34-5-6.59c-0.09-0.12-0.16-0.24-0.23-0.37c1.16-3.3,3.89-5.69,6.56-7.95c0.9,0.21,1.76,0.69,2.51,1.49
			c3.21,3.49,6.89,6.55,9.86,10.24c3.19,3.96,5.82,8.33,8.85,12.4c0.05,0.07,0.1,0.13,0.15,0.19c3.66,4.08,7.34,8.14,10.89,12.3
			c3.1,3.14,6.27,6.2,9.29,9.27c4.83,4.89,9.73,9.81,14.82,14.5c-1.26-1.87-2.53-3.73-3.82-5.58c-5.73-8.16-12.09-15.86-18.22-23.71
			c-3.02-3.87-5.79-7.92-8.72-11.85c-2.31-3.09-5.77-5.92-7.59-9.32c-0.4-0.75-0.63-1.49-0.71-2.2c0.2-0.18,0.4-0.37,0.56-0.59
			c1.39-1.83,3.53-3.2,5.55-4.24c0.54-0.28,0.89-0.65,1.12-1.06c0.8,0.23,1.59,0.64,2.32,1.27c2.85,2.44,5.57,5.13,8.12,7.96
			c-0.81-1.4-1.52-2.85-1.97-4.39c-1.44-4.92,4.05-8.54,8.27-6.35c0.12,0.06,0.24,0.14,0.36,0.2c0.84-2.76,4.1-4.78,7.04-4.07
			c1.63-2.17,4.49-3.31,7.04-1.36c10.55,8.06,20.6,16.99,30.56,25.77c0.91,0.8,1.8,1.61,2.7,2.41c-1.72-2.68-3.52-5.26-5.57-7.85
			c-2.29-2.89-5.47-5.92-6.68-9.52c0.12-0.08,0.23-0.16,0.35-0.27c2.57-2.42,4.74-5.11,6.42-8.23c0.01-0.03,0.02-0.05,0.03-0.08
			c4.44,0.99,9.09,3.87,12.85,6.03c4.91,2.83,9.35,6.23,13.66,9.86c0,0.43,0.06,0.86,0.25,1.37c0.09,0.25,0.23,0.49,0.36,0.72
			c-0.01,0.26-0.02,0.53-0.03,0.79c-0.38,0.78-0.67,1.51-0.88,2.26c-0.68,0.34-1.29,0.83-1.69,1.48c-0.41,0.67-0.58,1.57-0.56,2.35
			c0.03,0.22,0.06,0.44,0.09,0.66c-0.44,0.37-0.71,0.81-0.85,1.28c-0.94-0.17-1.88-0.59-2.75-1.34c-1.18-1.02-2.37-2.01-3.57-2.97
			c1.53,2.57,3.01,5.18,4.5,7.69c2.61,4.4,5.37,8.67,8.36,12.83c2.28,3.17,5.34,5.93,5.71,9.44c-2.12,1.79-3.6,4.06-5.44,6.15
			c-0.1,0.11-0.18,0.23-0.26,0.35c-1.74-0.03-3.56-0.82-5.34-1.97c0.49,0.58,0.96,1.17,1.41,1.78c4.03,5.52,9.72,9.97,13.37,15.72
			c0.47,0.74,0.75,1.46,0.87,2.15c-0.42,0.53-0.84,1.07-1.27,1.6c-0.71,0.89-1.01,2.01-0.61,3.01c-0.03,0.02-0.06,0.05-0.09,0.07
			c0.15,0.18,0.3,0.35,0.45,0.53c0.01,0.01,0.01,0.02,0.02,0.03c0.62,0.76,1.04,1.66,1.27,2.6c-1.79,2.63-3.74,5.11-6.19,6.97
			c-3.32-0.24-6.25-2.4-9.16-4.08c-1.99-1.15-3.98-2.32-5.94-3.54c0.97,1.27,1.86,2.61,2.48,4.09c0.25,0.59,0.4,1.18,0.48,1.77
			c-0.16,0.09-0.32,0.2-0.47,0.31c-2.35,1.82-4.81,3.74-6.79,6.02c-0.3-0.11-0.61-0.24-0.92-0.41c-1.9-1.02-3.76-2.2-5.58-3.5
			c0.29,0.86,0.44,1.72,0.44,2.56c-0.86-0.14-1.77,0.14-2.48,0.75c-1.6,1.37-2.9,3.14-4.48,4.53c-0.5-0.13-0.99-0.33-1.44-0.63
			c-4.19-2.84-7.74-6.57-11.74-9.67c-1.01-0.78-2.02-1.55-3.03-2.31c0.28,0.8,0.36,1.64,0.29,2.47c-0.37,0.1-0.74,0.28-1.09,0.56
			c-1.92,1.55-3.8,3.14-5.7,4.72c-0.45-0.17-0.91-0.41-1.37-0.73c-1.87-1.32-3.64-2.85-5.36-4.48c-0.04,0.34-0.12,0.66-0.22,0.98
			c-0.77-0.3-1.65-0.31-2.31,0.2c-1.52,1.18-3.08,2.28-4.43,3.61c-2.22-0.59-3.76-2.21-5.55-3.56c-0.31-0.23-0.62-0.47-0.93-0.7
			c-0.11,0.23-0.25,0.43-0.39,0.64c-0.57-0.06-1.15,0.04-1.6,0.38c-0.77,0.57-1.48,1.18-2.17,1.84c-0.1,0.09-0.19,0.18-0.29,0.27
			c-0.78,0.13-1.57,0.14-2.29-0.06c-4.1-1.1-7.78-3.93-11.3-6.42c0.69,0.81,1.39,1.61,2.06,2.44c2.57,3.16,6.35,6.59,7.65,10.59
			c-0.16,0.16-0.32,0.34-0.45,0.56c-0.5,0.81-1.04,1.62-1.63,2.41c-1.93,1.18-3.78,2.59-5.17,4.27c-0.28-0.08-0.56-0.17-0.83-0.29
			c-4.14-1.76-7.23-5.11-10.32-8.26c-2.21-2.25-4.34-4.56-6.41-6.93c-0.12,0.31-0.28,0.6-0.47,0.89c-0.98-0.36-2.1-0.08-2.96,0.62
			c-0.9,0.73-1.85,1.41-2.8,2.1c-1.58-0.11-3.15-0.81-4.33-2.34c-4.62-6-17.57-22.38-13.25-31.63c-2.14-2.22-4.14-4.57-5.36-7.17
			C178.69,207.87,178.51,207.27,178.41,206.69z"/>
	</g>
	<g>
		<path class="st21" d="M286.82,167.59c0,2.97,0,5.94,0,8.91c0,1.19-0.57,2-1.62,2.54c-0.79,0.41-1.54,0.88-2.3,1.33
			c-1.15,0.68-2.31,1.36-3.47,2.02c-0.96,0.55-1.89,1.16-2.9,1.61c-0.53,0.24-1.06,0.25-1.63,0.12c-0.55-0.12-0.98-0.44-1.46-0.69
			c-1.05-0.56-2.05-1.2-3.1-1.78c-1.19-0.66-2.35-1.39-3.54-2.07c-0.53-0.3-1.07-0.57-1.56-0.94c-0.53-0.4-0.86-0.92-0.98-1.6
			c-0.08-0.42-0.09-0.83-0.09-1.25c0-5.81,0-11.61,0-17.42c0-0.69,0.43-0.98,1.08-0.78c0.56,0.17,1.15,0.26,1.72,0.44
			c0.54,0.17,1.09,0.3,1.64,0.45c0.52,0.14,1.05,0.29,1.58,0.42c0.59,0.14,1.16,0.35,1.75,0.47c0.55,0.11,1.07,0.32,1.61,0.43
			c0.42,0.08,0.82,0.23,1.24,0.33c0.49,0.12,0.98,0.11,1.47,0c0.6-0.14,1.19-0.31,1.78-0.47c0.52-0.14,1.04-0.27,1.56-0.41
			c0.59-0.16,1.17-0.32,1.76-0.48c0.68-0.19,1.35-0.41,2.04-0.57c0.41-0.09,0.81-0.24,1.22-0.32c0.41-0.08,0.82-0.21,1.22-0.35
			c0.47-0.17,0.98,0.17,0.98,0.67C286.82,161.35,286.82,164.47,286.82,167.59C286.82,167.59,286.82,167.59,286.82,167.59z
			 M284.6,165.58c-0.3,0.11-0.57,0.16-0.83,0.22c-0.53,0.13-1.06,0.33-1.59,0.44c-0.63,0.14-1.24,0.33-1.86,0.48
			c-0.53,0.12-1.03,0.32-1.59,0.3c-0.43-0.02-0.84-0.1-1.25-0.23c-0.21-0.06-0.42-0.11-0.63-0.15c-0.12-0.02-0.25,0-0.24,0.17
			c0.02,0.36-0.18,0.37-0.46,0.34c-0.11-0.01-0.28-0.1-0.34,0.15c-0.09,0.41-0.14,0.44-0.55,0.3c-0.23-0.07-0.3,0.09-0.29,0.2
			c0.02,0.16-0.25,0.38,0.09,0.48c0.49,0.15,0.98,0.28,1.47,0.4c0.46,0.11,0.46,0.12,0.2,0.51c-0.01,0.02-0.01,0.04-0.02,0.06
			c-0.53,0.92-1.05,1.83-1.59,2.75c-0.04,0.07-0.08,0.13-0.04,0.2c0.26,0.41,0.44,0.87,0.76,1.25c0.24-0.16,0.3-0.42,0.43-0.63
			c0.32-0.55,0.63-1.11,0.95-1.66c0.54-0.93,1.17-1.78,2.1-2.36c0.61-0.38,1.26-0.71,1.88-1.08c1-0.6,2-1.17,3.01-1.75
			C284.33,165.89,284.53,165.87,284.6,165.58z M280.62,168.44c0-0.01-0.02-0.06-0.03-0.06c-0.05,0.01-0.1,0.01-0.14,0.04
			c-0.22,0.12-0.44,0.24-0.66,0.37c-0.88,0.52-1.6,1.2-2.11,2.1c-0.57,1.01-1.17,2-1.74,3c-0.09,0.16-0.19,0.11-0.24,0.01
			c-0.4-0.69-0.78-1.4-1.17-2.09c-0.34-0.61-0.66-1.22-1.03-1.81c-0.38-0.59-1.03-0.85-1.61-1.2c-0.23-0.14-0.48-0.27-0.72-0.39
			c-0.04-0.02-0.11-0.09-0.15-0.01c-0.02,0.04,0,0.11,0.02,0.15c0.4,0.64,0.72,1.32,1.12,1.94c0.44,0.67,0.8,1.38,1.21,2.07
			c0.68,1.13,1.31,2.29,1.96,3.44c0.13,0.22,0.22,0.22,0.35-0.01c0.3-0.51,0.59-1.03,0.88-1.54c0.57-1,1.12-2,1.7-2.99
			c0.63-1.07,1.39-2.04,2.28-2.89C280.59,168.52,280.62,168.51,280.62,168.44z M271.65,170.08c-0.01-0.04-0.03-0.08-0.05-0.11
			c-0.31-0.52-0.63-1.04-0.92-1.58c-0.12-0.22-0.23-0.45-0.46-0.58c-1.21-0.69-2.43-1.39-3.64-2.08c-0.09-0.05-0.18-0.18-0.27-0.08
			c-0.08,0.08,0.02,0.22,0.07,0.3c0.25,0.33,0.43,0.69,0.63,1.05c0.27,0.48,0.6,0.89,1.09,1.17c0.68,0.39,1.36,0.79,2.04,1.18
			c0.44,0.26,0.91,0.48,1.32,0.79C271.51,170.18,271.61,170.23,271.65,170.08z M269.03,169.04c0,0-0.04,0.01-0.05,0.03
			c-0.03,0.08-0.01,0.16,0.04,0.23c0.16,0.27,0.31,0.55,0.47,0.82c0.35,0.59,0.71,1.15,1.36,1.51c0.75,0.41,1.51,0.8,2.21,1.3
			c0.05,0.04,0.13,0.05,0.18,0.01c0.09-0.07-0.01-0.13-0.04-0.18c-0.23-0.41-0.49-0.81-0.7-1.23c-0.14-0.28-0.29-0.61-0.52-0.79
			c-0.41-0.32-0.91-0.53-1.36-0.81c-0.26-0.17-0.56-0.24-0.8-0.46C269.62,169.27,269.32,169.18,269.03,169.04z M271.54,172.33
			c0.57,1.6,1.64,2.71,3.15,3.4c0.08,0.03,0.16,0.04,0.22-0.03c-0.34-0.49-0.59-1.01-0.89-1.51c-0.16-0.26-0.25-0.56-0.55-0.74
			C272.85,173.06,272.2,172.71,271.54,172.33z"/>
		<path class="st21" d="M307.84,169.35c0-1.16,0.01-2.32-0.01-3.48c0-0.26,0.08-0.36,0.34-0.35c0.28,0.01,0.57,0,0.85,0
			c0.6,0,1.03,0.4,1.03,1c0.01,1.89,0,3.77,0.01,5.66c0,0.47-0.02,0.95,0.23,1.4c0.29,0.52,0.75,0.78,1.29,0.88
			c0.51,0.1,1.01,0.06,1.51-0.13c0.56-0.22,1.04-0.87,1.04-1.45c0.01-1.95,0-3.9,0-5.85c0-0.16,0-0.32,0.01-0.47
			c0.02-0.62,0.37-0.99,0.99-1.02c0.33-0.02,0.65-0.01,0.98-0.01c0.19,0,0.28,0.07,0.28,0.28c0,2.25,0.04,4.51-0.02,6.76
			c-0.03,1.18-0.43,2.24-1.49,2.94c-0.33,0.22-0.7,0.36-1.07,0.48c-1.01,0.33-2.05,0.34-3.06,0.11c-1.18-0.27-2.16-0.86-2.62-2.05
			c-0.18-0.45-0.3-0.93-0.29-1.43C307.85,171.52,307.85,170.43,307.84,169.35C307.85,169.35,307.84,169.35,307.84,169.35z"/>
		<path class="st21" d="M294.74,173.57c0.29-1,0.54-1.93,0.82-2.84c0.22-0.73,0.43-1.46,0.65-2.19c0.24-0.81,0.48-1.63,0.74-2.44
			c0.09-0.27,0.51-0.56,0.81-0.57c0.44,0,0.89,0.01,1.33-0.01c0.26-0.01,0.33,0.1,0.26,0.32c-0.14,0.43-0.29,0.85-0.43,1.27
			c-0.19,0.57-0.39,1.13-0.58,1.7c-0.23,0.66-0.46,1.32-0.68,1.99c-0.19,0.57-0.38,1.15-0.58,1.72c-0.14,0.42-0.28,0.84-0.43,1.26
			c-0.19,0.57-0.4,1.14-0.58,1.71c-0.05,0.16-0.15,0.29-0.16,0.47c-0.01,0.12-0.14,0.14-0.25,0.14c-0.61,0-1.22,0-1.83,0
			c-0.19,0-0.25-0.1-0.3-0.28c-0.21-0.69-0.48-1.37-0.69-2.06c-0.14-0.46-0.34-0.91-0.46-1.38c-0.1-0.39-0.27-0.76-0.39-1.15
			c-0.13-0.46-0.32-0.9-0.48-1.36c-0.25-0.69-0.46-1.4-0.72-2.08c-0.18-0.48-0.29-0.99-0.44-1.48c-0.04-0.14-0.13-0.27-0.19-0.41
			c-0.1-0.2-0.06-0.33,0.19-0.33c0.44,0,0.89-0.01,1.33,0.01c0.6,0.03,0.77,0.27,0.95,0.83c0.3,0.89,0.51,1.8,0.79,2.7
			c0.27,0.88,0.53,1.75,0.77,2.64C294.33,172.32,294.53,172.9,294.74,173.57z"/>
		<path class="st21" d="M300.48,170.77c0-1.64,0-3.29,0-4.93c0-0.24,0.05-0.34,0.31-0.32c0.49,0.02,0.99,0.03,1.48,0
			c0.31-0.02,0.37,0.1,0.37,0.38c-0.01,2.64-0.01,5.29-0.01,7.93c0,0.52,0,0.52,0.52,0.52c1.04,0,2.09,0,3.13,0.01
			c0.56,0,0.98,0.4,1.02,0.95c0.06,0.79,0.06,0.79-0.73,0.79c-1.92,0-3.83-0.01-5.75,0.01c-0.26,0-0.34-0.07-0.34-0.33
			C300.48,174.1,300.48,172.44,300.48,170.77z"/>
		<path class="st22" d="M284.6,165.58c-0.06,0.29-0.26,0.31-0.39,0.38c-1.01,0.57-2.01,1.15-3.01,1.75
			c-0.62,0.37-1.26,0.7-1.88,1.08c-0.93,0.58-1.57,1.42-2.1,2.36c-0.32,0.55-0.63,1.11-0.95,1.66c-0.13,0.22-0.19,0.48-0.43,0.63
			c-0.32-0.37-0.5-0.83-0.76-1.25c-0.05-0.07,0-0.13,0.04-0.2c0.53-0.91,1.06-1.83,1.59-2.75c0.01-0.02,0.01-0.04,0.02-0.06
			c0.26-0.39,0.26-0.41-0.2-0.51c-0.5-0.11-0.99-0.25-1.47-0.4c-0.33-0.1-0.06-0.32-0.09-0.48c-0.02-0.11,0.06-0.27,0.29-0.2
			c0.42,0.13,0.47,0.11,0.55-0.3c0.05-0.25,0.22-0.16,0.34-0.15c0.28,0.03,0.48,0.02,0.46-0.34c-0.01-0.16,0.12-0.19,0.24-0.17
			c0.21,0.04,0.42,0.09,0.63,0.15c0.41,0.13,0.82,0.21,1.25,0.23c0.56,0.02,1.06-0.17,1.59-0.3c0.62-0.15,1.23-0.34,1.86-0.48
			c0.54-0.12,1.06-0.31,1.59-0.44C284.02,165.74,284.29,165.69,284.6,165.58z"/>
		<path class="st22" d="M280.62,168.44c0,0.07-0.04,0.09-0.07,0.11c-0.9,0.86-1.66,1.82-2.28,2.89c-0.58,0.99-1.13,1.99-1.7,2.99
			c-0.29,0.51-0.59,1.03-0.88,1.54c-0.13,0.23-0.22,0.23-0.35,0.01c-0.65-1.15-1.28-2.31-1.96-3.44c-0.41-0.68-0.78-1.39-1.21-2.07
			c-0.41-0.62-0.73-1.31-1.12-1.94c-0.02-0.04-0.04-0.11-0.02-0.15c0.04-0.08,0.12-0.01,0.15,0.01c0.25,0.12,0.49,0.25,0.72,0.39
			c0.57,0.35,1.23,0.61,1.61,1.2c0.37,0.58,0.69,1.2,1.03,1.81c0.39,0.7,0.77,1.4,1.17,2.09c0.06,0.1,0.15,0.16,0.24-0.01
			c0.58-1,1.18-1.99,1.74-3c0.51-0.9,1.22-1.58,2.11-2.1c0.22-0.13,0.44-0.25,0.66-0.37c0.04-0.02,0.09-0.03,0.14-0.04
			C280.61,168.37,280.62,168.43,280.62,168.44z"/>
		<path class="st22" d="M271.65,170.08c-0.03,0.15-0.13,0.09-0.19,0.05c-0.41-0.31-0.88-0.53-1.32-0.79
			c-0.68-0.39-1.35-0.8-2.04-1.18c-0.49-0.28-0.82-0.68-1.09-1.17c-0.2-0.35-0.38-0.72-0.63-1.05c-0.06-0.08-0.15-0.21-0.07-0.3
			c0.09-0.1,0.18,0.03,0.27,0.08c1.21,0.69,2.43,1.39,3.64,2.08c0.23,0.13,0.34,0.36,0.46,0.58c0.29,0.53,0.61,1.05,0.92,1.58
			C271.62,170.01,271.63,170.05,271.65,170.08z"/>
		<path class="st22" d="M269.03,169.04c0.28,0.14,0.59,0.23,0.79,0.42c0.24,0.22,0.54,0.29,0.8,0.46c0.44,0.28,0.94,0.49,1.36,0.81
			c0.24,0.18,0.38,0.51,0.52,0.79c0.21,0.43,0.47,0.82,0.7,1.23c0.03,0.06,0.13,0.11,0.04,0.18c-0.05,0.04-0.13,0.03-0.18-0.01
			c-0.7-0.5-1.47-0.89-2.21-1.3c-0.65-0.35-1.01-0.91-1.36-1.51c-0.16-0.27-0.31-0.55-0.47-0.82c-0.05-0.08-0.06-0.15-0.04-0.23
			C268.99,169.05,269.04,169.04,269.03,169.04z"/>
		<path class="st22" d="M271.54,172.33c0.66,0.38,1.31,0.73,1.94,1.12c0.29,0.18,0.39,0.48,0.55,0.74c0.3,0.5,0.55,1.02,0.89,1.51
			c-0.06,0.07-0.14,0.07-0.22,0.03C273.18,175.04,272.12,173.93,271.54,172.33z"/>
	</g>
</g>
<g id="Trash_bin">
	<g>
		<g>
			<path class="st9" d="M299.76,397.52c0.81-1.37-0.33-3.42-1.93-3.45c0.7-1.96,0.01-4.33-1.63-5.62c-0.21-0.16-0.44-0.31-0.71-0.31
				c-0.28,0-0.53,0.17-0.76,0.34c-1.5,1.08-3,2.15-4.5,3.23c-0.34,0.25-0.7,0.51-0.89,0.88c-0.92,1.78,2.39,4.06,1.03,5.53
				c-0.39,0.42-1.02,0.51-1.51,0.81c-1.07,0.67-1.2,2.14-1.7,3.3c-0.5,1.16-2.24,2.06-2.9,0.99c0.49-1.11-1-2.07-2.2-2.21
				c-1.19-0.14-2.47-0.21-3.14-1.34c-1.71,1.5-5.55-2.68-5.46-4.37c-1.41,0.11-2.37,1.43-2.68,2.75c-0.32,1.37-0.12,2.8-0.14,4.2
				c-0.04,2.73-0.92,5.4-0.88,8.13c0.04,2.12,0.86,4.48,2.8,5.33c0.94,0.41,1.99,0.41,3.01,0.4c7.38-0.05,14.75-0.09,22.13-0.14
				c0.53,0,1.09-0.01,1.56-0.26c1-0.52,1.21-1.83,1.3-2.96c0.4-4.81,0.79-9.61,1.19-14.42C301.09,398.07,300.42,397.8,299.76,397.52
				z"/>
			<path class="st16" d="M299.76,397.52c0.81-1.37-0.33-3.42-1.93-3.45c0.7-1.96,0.01-4.33-1.63-5.62
				c-0.21-0.16-0.44-0.31-0.71-0.31c-0.28,0-0.53,0.17-0.76,0.34c-1.5,1.08-3,2.15-4.5,3.23c-0.34,0.25-0.7,0.51-0.89,0.88
				c-0.92,1.78,2.39,4.06,1.03,5.53c-0.39,0.42-1.02,0.51-1.51,0.81c-1.07,0.67-1.2,2.14-1.7,3.3c-0.5,1.16-2.24,2.06-2.9,0.99
				c0.49-1.11-1-2.07-2.2-2.21c-1.19-0.14-2.47-0.21-3.14-1.34c-1.71,1.5-5.55-2.68-5.46-4.37c-1.41,0.11-2.37,1.43-2.68,2.75
				c-0.32,1.37-0.12,2.8-0.14,4.2c-0.04,2.73-0.92,5.4-0.88,8.13c0.04,2.12,0.86,4.48,2.8,5.33c0.94,0.41,1.99,0.41,3.01,0.4
				c7.38-0.05,14.75-0.09,22.13-0.14c0.53,0,1.09-0.01,1.56-0.26c1-0.52,1.21-1.83,1.3-2.96c0.4-4.81,0.79-9.61,1.19-14.42
				C301.09,398.07,300.42,397.8,299.76,397.52z"/>
		</g>
		<g>
			<g>
				<path class="st9" d="M301.05,374.14h-2.48h-6.84h-2.49h-6.83h-2.49h-6.83h-2.49h-3.86l0.28,3.47l0.2,2.48l0.52,6.45l0.3,3.7
					l0.4,4.93l0.17,2.11l0.06,0.63l0.2,2.48l0.27,3.4l0.17,2.11l0.18,2.15l0.2,2.48l0.15,1.88l0.17,2.11l0.07,0.92h4.52h3.82h5.51
					h3.82h5.51h3.82h4.53l0.07-0.92l0.17-2.11l0.15-1.9l0.2-2.48l0.18-2.14l0.17-2.11l0.27-3.41l0.2-2.48l0.05-0.63l0.17-2.11
					l0.4-4.93l0.3-3.69l0.52-6.45l0.2-2.48l0.28-3.47H301.05z M303.11,376.41L303.11,376.41l-0.66-0.66h0.72L303.11,376.41z
					 M302.94,378.52l-0.06,0.84l-3.07,3.07l-3.53-3.53l3.15-3.15h0.74L302.94,378.52z M302.06,389.5l-2.25,2.25l-3.53-3.53
					l3.53-3.52l2.44,2.44L302.06,389.5z M269.38,387.15L269.38,387.15l2.44-2.44l3.53,3.52l-3.53,3.53l-2.24-2.25L269.38,387.15z
					 M298.67,383.57l-3.53,3.53l-3.53-3.53l3.53-3.53L298.67,383.57z M293.13,375.75h4.03l-2.02,2.02L293.13,375.75z M294,388.23
					l-3.52,3.53l-3.53-3.53l3.53-3.52L294,388.23z M282.29,392.89l3.53-3.52l3.52,3.52l-3.52,3.53L282.29,392.89z M284.67,397.55
					l-3.53,3.53l-3.52-3.52l3.53-3.53L284.67,397.55z M290.48,394.04l3.52,3.53l-3.52,3.52l-3.53-3.53L290.48,394.04z
					 M285.82,387.09l-3.53-3.53l3.53-3.53l3.52,3.53L285.82,387.09z M284.67,388.23l-3.52,3.53l-3.53-3.53l3.53-3.52L284.67,388.23z
					 M276.48,387.09l-3.52-3.53l3.52-3.53l3.53,3.53L276.48,387.09z M276.48,389.38l3.53,3.52l-3.53,3.53l-3.52-3.53L276.48,389.38z
					 M280.01,402.23l-3.53,3.52l-3.52-3.52l3.52-3.52L280.01,402.23z M281.15,403.36l3.53,3.53l-3.52,3.53l-3.53-3.53L281.15,403.36
					z M282.29,402.23l3.53-3.52l3.52,3.52l-3.52,3.52L282.29,402.23z M290.48,403.36l3.52,3.53l-3.52,3.53l-3.53-3.53L290.48,403.36
					z M295.14,408.03l3.53,3.53l-2.28,2.28h-2.48l-2.28-2.28L295.14,408.03z M291.62,402.23l3.53-3.52l3.53,3.52l-3.53,3.52
					L291.62,402.23z M291.62,392.89l3.53-3.52l3.53,3.52l-3.53,3.53L291.62,392.89z M294,378.9l-3.52,3.53l-3.53-3.53l3.15-3.15
					h0.74L294,378.9z M285.82,377.77l-2.02-2.02h4.03L285.82,377.77z M284.67,378.9l-3.52,3.53l-3.53-3.53l3.15-3.15h0.74
					L284.67,378.9z M278.5,375.75l-2.02,2.02l-2.01-2.02H278.5z M272.19,375.75l3.15,3.15l-3.53,3.53l-3.07-3.07l-0.06-0.84
					l2.76-2.77H272.19z M269.17,375.75l-0.65,0.65l0,0l-0.06-0.65H269.17z M268.96,381.84l1.73,1.73l-1.47,1.47L268.96,381.84z
					 M269.92,393.66l-0.14-1.67l0,0l0.9,0.9L269.92,393.66L269.92,393.66z M270.09,395.78l1.73-1.74l3.53,3.53l-3.53,3.52
					l-1.42-1.42L270.09,395.78z M270.61,402.3l-0.01-0.15l0.08,0.08L270.61,402.3L270.61,402.3z M271.22,409.81l-0.44-5.4l1.04-1.04
					l3.53,3.53l-3.53,3.52L271.22,409.81L271.22,409.81z M271.55,413.83l-0.06-0.81l0.34-0.34l1.15,1.15H271.55z M272.97,411.55
					l3.52-3.53l3.53,3.53l-2.28,2.28h-2.48L272.97,411.55z M280.01,413.83l1.15-1.15l1.15,1.15H280.01z M284.57,413.83l-2.28-2.28
					l3.53-3.53l3.52,3.53l-2.27,2.28H284.57z M289.33,413.83l1.15-1.15l1.15,1.15H289.33z M300.08,413.83h-1.42l1.15-1.15l0.34,0.34
					L300.08,413.83z M300.41,409.81l-0.61,0.6l-3.53-3.52l3.53-3.53l1.04,1.04L300.41,409.81z M301.03,402.14l-0.02,0.16l-0.07-0.07
					L301.03,402.14L301.03,402.14z M301.23,399.66l-1.43,1.42l-3.53-3.52l3.53-3.53l1.74,1.74L301.23,399.66z M301.72,393.67
					l-0.77-0.77l0.91-0.9L301.72,393.67z M302.68,381.83l-0.26,3.21l-1.48-1.48L302.68,381.83L302.68,381.83z"/>
			</g>
			<g class="st23">
				<path class="st14" d="M301.05,374.14h-2.48h-6.84h-2.49h-6.83h-2.49h-6.83h-2.49h-3.86l0.28,3.47l0.2,2.48l0.52,6.45l0.3,3.7
					l0.4,4.93l0.17,2.11l0.06,0.63l0.2,2.48l0.27,3.4l0.17,2.11l0.18,2.15l0.2,2.48l0.15,1.88l0.17,2.11l0.07,0.92h4.52h3.82h5.51
					h3.82h5.51h3.82h4.53l0.07-0.92l0.17-2.11l0.15-1.9l0.2-2.48l0.18-2.14l0.17-2.11l0.27-3.41l0.2-2.48l0.05-0.63l0.17-2.11
					l0.4-4.93l0.3-3.69l0.52-6.45l0.2-2.48l0.28-3.47H301.05z M303.11,376.41L303.11,376.41l-0.66-0.66h0.72L303.11,376.41z
					 M302.94,378.52l-0.06,0.84l-3.07,3.07l-3.53-3.53l3.15-3.15h0.74L302.94,378.52z M302.06,389.5l-2.25,2.25l-3.53-3.53
					l3.53-3.52l2.44,2.44L302.06,389.5z M269.38,387.15L269.38,387.15l2.44-2.44l3.53,3.52l-3.53,3.53l-2.24-2.25L269.38,387.15z
					 M298.67,383.57l-3.53,3.53l-3.53-3.53l3.53-3.53L298.67,383.57z M293.13,375.75h4.03l-2.02,2.02L293.13,375.75z M294,388.23
					l-3.52,3.53l-3.53-3.53l3.53-3.52L294,388.23z M282.29,392.89l3.53-3.52l3.52,3.52l-3.52,3.53L282.29,392.89z M284.67,397.55
					l-3.53,3.53l-3.52-3.52l3.53-3.53L284.67,397.55z M290.48,394.04l3.52,3.53l-3.52,3.52l-3.53-3.53L290.48,394.04z
					 M285.82,387.09l-3.53-3.53l3.53-3.53l3.52,3.53L285.82,387.09z M284.67,388.23l-3.52,3.53l-3.53-3.53l3.53-3.52L284.67,388.23z
					 M276.48,387.09l-3.52-3.53l3.52-3.53l3.53,3.53L276.48,387.09z M276.48,389.38l3.53,3.52l-3.53,3.53l-3.52-3.53L276.48,389.38z
					 M280.01,402.23l-3.53,3.52l-3.52-3.52l3.52-3.52L280.01,402.23z M281.15,403.36l3.53,3.53l-3.52,3.53l-3.53-3.53L281.15,403.36
					z M282.29,402.23l3.53-3.52l3.52,3.52l-3.52,3.52L282.29,402.23z M290.48,403.36l3.52,3.53l-3.52,3.53l-3.53-3.53L290.48,403.36
					z M295.14,408.03l3.53,3.53l-2.28,2.28h-2.48l-2.28-2.28L295.14,408.03z M291.62,402.23l3.53-3.52l3.53,3.52l-3.53,3.52
					L291.62,402.23z M291.62,392.89l3.53-3.52l3.53,3.52l-3.53,3.53L291.62,392.89z M294,378.9l-3.52,3.53l-3.53-3.53l3.15-3.15
					h0.74L294,378.9z M285.82,377.77l-2.02-2.02h4.03L285.82,377.77z M284.67,378.9l-3.52,3.53l-3.53-3.53l3.15-3.15h0.74
					L284.67,378.9z M278.5,375.75l-2.02,2.02l-2.01-2.02H278.5z M272.19,375.75l3.15,3.15l-3.53,3.53l-3.07-3.07l-0.06-0.84
					l2.76-2.77H272.19z M269.17,375.75l-0.65,0.65l0,0l-0.06-0.65H269.17z M268.96,381.84l1.73,1.73l-1.47,1.47L268.96,381.84z
					 M269.92,393.66l-0.14-1.67l0,0l0.9,0.9L269.92,393.66L269.92,393.66z M270.09,395.78l1.73-1.74l3.53,3.53l-3.53,3.52
					l-1.42-1.42L270.09,395.78z M270.61,402.3l-0.01-0.15l0.08,0.08L270.61,402.3L270.61,402.3z M271.22,409.81l-0.44-5.4l1.04-1.04
					l3.53,3.53l-3.53,3.52L271.22,409.81L271.22,409.81z M271.55,413.83l-0.06-0.81l0.34-0.34l1.15,1.15H271.55z M272.97,411.55
					l3.52-3.53l3.53,3.53l-2.28,2.28h-2.48L272.97,411.55z M280.01,413.83l1.15-1.15l1.15,1.15H280.01z M284.57,413.83l-2.28-2.28
					l3.53-3.53l3.52,3.53l-2.27,2.28H284.57z M289.33,413.83l1.15-1.15l1.15,1.15H289.33z M300.08,413.83h-1.42l1.15-1.15l0.34,0.34
					L300.08,413.83z M300.41,409.81l-0.61,0.6l-3.53-3.52l3.53-3.53l1.04,1.04L300.41,409.81z M301.03,402.14l-0.02,0.16l-0.07-0.07
					L301.03,402.14L301.03,402.14z M301.23,399.66l-1.43,1.42l-3.53-3.52l3.53-3.53l1.74,1.74L301.23,399.66z M301.72,393.67
					l-0.77-0.77l0.91-0.9L301.72,393.67z M302.68,381.83l-0.26,3.21l-1.48-1.48L302.68,381.83L302.68,381.83z"/>
			</g>
		</g>
		<path class="st9" d="M266.16,377.19h39.31c0.91,0,1.64-0.74,1.64-1.64v-1.2c0-0.91-0.74-1.64-1.64-1.64h-39.31
			c-0.91,0-1.64,0.74-1.64,1.64l0,1.2C264.52,376.45,265.25,377.19,266.16,377.19z"/>
		<path class="st9" d="M302.4,417.52h-33.17c-0.91,0-1.64-0.74-1.64-1.64v-1.2c0-0.91,0.74-1.64,1.64-1.64h33.17
			c0.91,0,1.64,0.74,1.64,1.64v1.2C304.04,416.79,303.3,417.52,302.4,417.52z"/>
	</g>
</g>
<g id="Character_2">
	<g>
		<g>
			<g>
				<g>
					<path class="st24" d="M388.93,329.96h-17.87c-0.52,0-0.97-0.35-1.09-0.86l-2.53-10.42l-7.93,0l3.25,12.7
						c0.49,1.93,2.23,3.28,4.23,3.28h21.95V329.96z"/>
					<path class="st25" d="M388.93,329.96h-17.87c-0.52,0-0.97-0.35-1.09-0.86l-2.53-10.42l-7.93,0l3.25,12.7
						c0.49,1.93,2.23,3.28,4.23,3.28h21.95V329.96z"/>
				</g>
			</g>
			<g>
				<g>
					
						<rect x="353.93" y="330.67" transform="matrix(0.1357 -0.9908 0.9908 0.1357 5.7303 672.6695)" class="st24" width="68.94" height="4.77"/>
				</g>
				<g>
					
						<rect x="383.48" y="330.67" transform="matrix(0.1357 -0.9908 0.9908 0.1357 31.2687 701.9435)" class="st24" width="68.94" height="4.77"/>
				</g>
				<g class="st26">
					
						<rect x="353.93" y="330.67" transform="matrix(0.1357 -0.9908 0.9908 0.1357 5.7303 672.6695)" class="st14" width="68.94" height="4.77"/>
				</g>
				<g class="st27">
					
						<rect x="383.48" y="330.67" transform="matrix(0.1357 -0.9908 0.9908 0.1357 31.2687 701.9435)" class="st14" width="68.94" height="4.77"/>
				</g>
			</g>
			<polygon class="st24" points="387.15,417.16 380.51,417.16 379.69,382.04 379.35,367.2 388.31,367.2 387.97,382.04 			"/>
			<polygon class="st25" points="387.15,417.16 380.51,417.16 379.69,382.04 379.35,367.2 388.31,367.2 387.97,382.04 			"/>
			<polygon class="st13" points="379.35,367.2 379.69,382.45 387.97,382.45 388.31,367.2 			"/>
			<g>
				<g>
					<polygon class="st24" points="353.22,417.16 356.11,368.25 363.9,368.25 359.85,417.16 					"/>
					<polygon class="st28" points="359.86,417.16 353.23,417.16 355.68,375.49 356.11,368.15 363.9,368.15 363.29,375.49 					"/>
					<polygon class="st13" points="363.9,368.15 363.29,375.78 355.68,375.78 356.11,368.15 					"/>
				</g>
				<g>
					<polygon class="st24" points="407.81,417.16 403.76,368.25 411.55,368.25 414.44,417.16 					"/>
					<polygon class="st28" points="407.8,417.16 404.37,375.49 403.77,368.15 411.55,368.15 411.98,375.49 414.44,417.16 					"/>
					<polygon class="st13" points="403.77,368.15 404.37,375.78 411.98,375.78 411.55,368.15 					"/>
				</g>
			</g>
			<path class="st24" d="M356.84,359.89h53.98c2.71,0,4.9,2.19,4.9,4.9v6.24h-63.78v-6.24
				C351.94,362.09,354.13,359.89,356.84,359.89z"/>
			<g>
				<path class="st24" d="M350.85,365.46h65.95c1.09,0,1.97,0.88,1.97,1.97v1.63c0,1.09-0.88,1.97-1.97,1.97h-65.95
					c-1.09,0-1.97-0.88-1.97-1.97v-1.63C348.88,366.35,349.77,365.46,350.85,365.46z"/>
				<path class="st17" d="M350.85,365.46h65.95c1.09,0,1.97,0.88,1.97,1.97v1.63c0,1.09-0.88,1.97-1.97,1.97h-65.95
					c-1.09,0-1.97-0.88-1.97-1.97v-1.63C348.88,366.35,349.77,365.46,350.85,365.46z"/>
			</g>
			<g>
				<path class="st24" d="M387.49,321.73h35.63c1.94,0,3.58-1.44,3.83-3.37l2.53-19.73c0.23-1.78-1.16-3.36-2.96-3.36h-35.63
					c-1.94,0-3.58,1.44-3.83,3.37l-2.53,19.73C384.31,320.15,385.7,321.73,387.49,321.73z"/>
				<path class="st17" d="M387.49,321.73h35.63c1.94,0,3.58-1.44,3.83-3.37l2.53-19.73c0.23-1.78-1.16-3.36-2.96-3.36h-35.63
					c-1.94,0-3.58,1.44-3.83,3.37l-2.53,19.73C384.31,320.15,385.7,321.73,387.49,321.73z"/>
			</g>
		</g>
		<g id="_x3C_Group_x3E__74_">
			<g>
				<path class="st29" d="M364.91,288.21c-2.01-2.86-3.88-5.74-5.64-8.76c-0.89-1.5-1.74-3.04-2.57-4.62
					c-0.42-0.79-0.81-1.62-1.2-2.48c-0.39-0.87-0.78-1.86-1.07-2.77c-1.11-3.57-1.77-6.91-2.4-10.35
					c-0.62-3.41-1.09-6.83-1.43-10.29c-0.11-1.12,0.71-2.12,1.83-2.23c0.95-0.09,1.81,0.48,2.12,1.34l0.01,0.02
					c1.14,3.21,2.26,6.45,3.32,9.66c0.55,1.6,1.07,3.21,1.64,4.77c0.54,1.57,1.12,3.15,1.72,4.55c0.29,0.7,0.58,1.27,0.96,1.93
					c0.38,0.67,0.81,1.34,1.23,2.03c0.86,1.38,1.79,2.77,2.7,4.17c1.85,2.78,3.73,5.61,5.56,8.41l0.02,0.03
					c1.23,1.89,0.69,4.43-1.2,5.66C368.64,290.49,366.17,290,364.91,288.21z"/>
			</g>
			<g>
				<path class="st9" d="M332.75,365.46c-1.9,3.92,41.1,5.57,41.1,5.57s-2.92-12.17-15.88-14.05
					C345.01,355.1,335.96,358.86,332.75,365.46z"/>
				<path class="st13" d="M332.75,365.46c-1.9,3.92,41.1,5.57,41.1,5.57s-2.92-12.17-15.88-14.05
					C345.01,355.1,335.96,358.86,332.75,365.46z"/>
			</g>
			<path class="st30" d="M346.15,412l6.74-0.72c0,0-5.52-39.33-2.8-43.24c2.3-3.29,13.19-3.97,28.54-4.75
				c2.86-0.14,5.88-0.29,9.03-0.45c20.01-1.05-21.83-21.35-21.83-21.35s-23.07,6.65-30.06,15.86
				C329.35,365.83,346.15,412,346.15,412z"/>
			<path class="st31" d="M346.15,412l6.74-0.72c0,0-5.52-39.33-2.8-43.24c2.3-3.29,13.19-3.97,28.54-4.75
				c2.86-0.14,5.88-0.29,9.03-0.45c20.01-1.05-21.83-21.35-21.83-21.35s-23.07,6.65-30.06,15.86
				C329.35,365.83,346.15,412,346.15,412z"/>
			<path class="st24" d="M344.73,408.68l8.58-0.54c0.3-0.03,0.57,0.18,0.6,0.48c0,0,0,0.01,0,0.01l0.84,6.77
				c0.05,0.74-0.51,1.38-1.25,1.43c-3,0.14-4.43,0.05-8.21,0.26c-2.32,0.14-6.88,0.63-10.08,0.32c-3.2-0.31-2.81-3.46-1.43-3.61
				c3.27-0.37,7.61-2.78,9.66-4.6C343.8,408.89,344.25,408.71,344.73,408.68z"/>
			<path class="st9" d="M340.64,409.87c-0.28-0.25-0.38-0.63-0.28-0.98c0.03-0.23,0.17-0.43,0.38-0.53
				c0.92-0.42,3.17,0.92,3.43,1.08c0.06,0.04,0.09,0.11,0.08,0.18c-0.01,0.07-0.06,0.13-0.13,0.14c-0.66,0.21-1.34,0.34-2.02,0.4
				C341.59,410.25,341.07,410.14,340.64,409.87z M340.89,408.71c-0.1,0.05-0.17,0.15-0.18,0.26c-0.06,0.22,0.01,0.46,0.17,0.63
				c0.38,0.33,1.39,0.31,2.74-0.05C342.69,409.05,341.38,408.49,340.89,408.71L340.89,408.71z"/>
			<path class="st9" d="M343.98,409.77c-0.79-0.4-2.03-1.93-1.91-2.77c0.05-0.31,0.3-0.55,0.61-0.58c0.28-0.05,0.56,0.02,0.78,0.2
				c0.81,0.7,0.77,2.94,0.78,3c-0.01,0.06-0.04,0.11-0.09,0.15c-0.03,0.01-0.05,0.01-0.08-0.01
				C344.05,409.78,344.02,409.78,343.98,409.77z M342.75,406.8c-0.25,0.05-0.31,0.17-0.32,0.28c-0.05,0.56,0.75,1.72,1.45,2.24
				c-0.03-0.72-0.16-1.97-0.65-2.39c-0.1-0.1-0.25-0.15-0.39-0.14L342.75,406.8z"/>
			<path class="st30" d="M358.56,358.11c1.47-5.52,11.36-14.06,19.52-15.37l11.78,20.16c-12.35,0.51-16.15,4.11-16.43,5.26
				c-1.33,5.47,2.86,43.84,2.86,43.84h-7.15C369.14,412,354.94,371.73,358.56,358.11z"/>
			<path class="st9" d="M372.13,333.79c0,0-21.68,8.86-31.45,17.16c-8.03,6.82-7.93,14.52-7.93,14.52s6.22-5.57,16.13-3.58
				c12.66,2.54,24.97,9.15,24.97,9.15s5.33-6.25,21.58-8.03c16.25-1.78,16.32-17.31,8.21-29.95L372.13,333.79z"/>
			<path class="st24" d="M368.55,408.68l8.58-0.54c0.3-0.03,0.57,0.18,0.6,0.48c0,0,0,0.01,0,0.01l0.84,6.77
				c0.05,0.74-0.51,1.38-1.25,1.43c-3,0.14-4.43,0.05-8.21,0.26c-2.32,0.14-6.88,0.63-10.08,0.32c-3.2-0.31-2.81-3.46-1.42-3.61
				c3.27-0.37,7.61-2.78,9.66-4.6C367.63,408.89,368.08,408.71,368.55,408.68z"/>
			<path class="st9" d="M364.47,409.87c-0.28-0.25-0.38-0.63-0.28-0.98c0.03-0.23,0.17-0.43,0.38-0.53
				c0.92-0.42,3.17,0.92,3.43,1.08c0.06,0.04,0.09,0.11,0.08,0.18c-0.01,0.07-0.06,0.13-0.13,0.14c-0.66,0.21-1.34,0.34-2.02,0.4
				C365.42,410.25,364.9,410.14,364.47,409.87z M364.72,408.71c-0.1,0.05-0.17,0.15-0.18,0.26c-0.06,0.22,0.01,0.46,0.17,0.63
				c0.38,0.33,1.39,0.31,2.74-0.05C366.51,409.05,365.2,408.49,364.72,408.71L364.72,408.71z"/>
			<path class="st9" d="M367.81,409.77c-0.79-0.4-2.03-1.93-1.91-2.77c0.05-0.31,0.3-0.55,0.61-0.58c0.28-0.05,0.56,0.02,0.78,0.2
				c0.81,0.7,0.77,2.94,0.78,3c-0.01,0.06-0.04,0.11-0.09,0.15c-0.03,0.01-0.05,0.01-0.08-0.01
				C367.88,409.78,367.84,409.78,367.81,409.77z M366.58,406.8c-0.25,0.05-0.31,0.17-0.32,0.28c-0.05,0.56,0.75,1.72,1.45,2.24
				c-0.03-0.72-0.16-1.97-0.65-2.39c-0.1-0.1-0.25-0.15-0.39-0.14L366.58,406.8z"/>
			<g>
				<path class="st9" d="M358.66,282.42l8.52-6.55c0,0,0.05,0.04,0.15,0.11c0.05,0.04,0.12,0.09,0.19,0.14c-0.01,0.01,0,0.01,0,0.01
					c0.01,0,0.02,0.01,0.04,0.02c0,0,0,0.01,0.01,0.01c0.25,0.19,0.62,0.48,1.05,0.84c0.13,0.11,0.28,0.23,0.43,0.35
					c0.03,0.03,0.07,0.06,0.11,0.1c0.15,0.13,0.3,0.26,0.45,0.39c0.2,0.17,0.39,0.35,0.6,0.53c1.11,1,7.01,5.94,7.95,7.15
					c0.16,0.22,0.32,0.43,0.46,0.65c0.32,0.45,0.58,0.9,0.76,1.32c0.03,0.07,0.06,0.14,0.07,0.21c0.02,0.04,0.04,0.09,0.05,0.14
					c0.03,0.09,0.06,0.2,0.08,0.31c0.02,0.07,0.03,0.15,0.04,0.23c0.01,0.06,0.02,0.12,0.02,0.19c0.01,0.13,0.03,0.25,0.04,0.39
					c0,0.14,0,0.29,0.01,0.44c0,0.14-0.01,0.29-0.01,0.45c0,0.04-0.01,0.08,0,0.12l0,0.01c0,0.11-0.01,0.23-0.02,0.34
					c-0.01,0.16-0.02,0.33-0.04,0.5c-0.02,0.17-0.03,0.34-0.06,0.5c-0.02,0.18-0.05,0.35-0.08,0.53c-0.78,4.88-8.3,7.5-10.5,6.3
					c-4.38-2.42-8.65-11.75-9.93-14.77C358.79,282.77,358.66,282.42,358.66,282.42z"/>
				<path class="st32" d="M379.69,289.4c0,0.14-0.01,0.29-0.01,0.44c0.01,0.04,0,0.08,0,0.12v0.01c-0.01,0.12-0.02,0.23-0.02,0.35
					c-0.01,0.16-0.02,0.33-0.05,0.5c-0.02,0.17-0.03,0.34-0.06,0.51c-0.02,0.17-0.05,0.35-0.07,0.52c-0.65,4.04-5.92,6.53-8.96,6.58
					c-0.63,0.01-1.16-0.08-1.54-0.29c-1.32-0.73-2.63-2.07-3.84-3.69c-0.17-0.22-0.33-0.44-0.49-0.66
					c-2.61-3.69-4.76-8.42-5.61-10.41c-0.25-0.61-0.39-0.96-0.39-0.96l8.52-6.55c0,0,0.05,0.04,0.15,0.11
					c0.05,0.04,0.11,0.08,0.19,0.14c0.01,0.01,0.02,0.01,0.04,0.03c0,0,0,0.01,0.01,0.01c0.24,0.19,0.61,0.48,1.05,0.84
					c0.13,0.1,0.28,0.22,0.43,0.35c0.03,0.04,0.07,0.06,0.1,0.09c0.15,0.12,0.3,0.24,0.46,0.39c0.2,0.17,0.38,0.35,0.59,0.52
					c1.11,1,7.02,5.95,7.95,7.15c0.16,0.22,0.32,0.43,0.46,0.66c0.32,0.45,0.58,0.9,0.77,1.32c0.03,0.08,0.06,0.14,0.07,0.22
					c0.02,0.04,0.04,0.09,0.05,0.14c0.03,0.09,0.06,0.2,0.08,0.31c0.02,0.07,0.03,0.15,0.05,0.22c0.01,0.07,0.01,0.12,0.02,0.19
					c0.02,0.13,0.03,0.25,0.05,0.39C379.68,289.1,379.68,289.24,379.69,289.4z"/>
				<polygon class="st9" points="357.93,281.94 366.51,274.48 367.74,275.35 368.17,275.65 367.56,276.16 367.49,276.22 
					359.05,283.37 358.82,283.57 				"/>
				<path class="st13" d="M370.52,298.43c-0.63,0.01-1.16-0.08-1.54-0.29c-1.32-0.73-2.63-2.07-3.84-3.69c1.7-2.49,4.82-4,4.82-4
					C372.14,293.08,371.35,295.83,370.52,298.43z"/>
			</g>
			<g>
				<path class="st9" d="M405.58,336.15c0,0-0.55-31.56-3.55-38.03c-3-6.47-7.83-15.32-28.78-10.2c0,0-7.94,2.24-6.58,12.03
					c1.36,9.79,1.8,35.19,1.8,35.19L405.58,336.15z"/>
				<path class="st32" d="M366.67,299.94c0.4,2.88,0.72,7.11,0.97,11.64c0.06,1.05,0.11,2.13,0.17,3.2c0.12,2.49,0.22,5,0.31,7.36
					c0.02,0.41,0.03,0.82,0.05,1.23c0.22,6.59,0.31,11.75,0.31,11.75l37.11,1.03c0,0-0.55-31.57-3.55-38.04
					c-3-6.47-7.83-15.33-28.77-10.2C373.26,287.92,365.32,290.15,366.67,299.94z"/>
			</g>
			<path class="st9" d="M376.44,293.78l-2.42-3.93l-3.34,3.93c0,0,0.94-10.43,13.06-10.67c4.97-0.1,6.14,4.11,6.14,4.11
				c-2.12,3.43-7.76,7.16-7.76,7.16l-2.24-3.4L376.44,293.78z"/>
			<line class="st33" x1="354.07" y1="299.8" x2="348.17" y2="315.07"/>
			<g>
				<path class="st30" d="M385.88,274.28c0,0-0.56,3.64-0.29,7.15c0.11,1.7,0.42,3.35,1.07,4.66c0,0-3.24,3.14-6.16,3.8l-3.23,2.4
					l0.21-3.27c0,0,0.02-0.17,0.04-0.46c0.08-1.27-0.03-5.24-3.62-6.73C368.95,279.76,385.88,274.28,385.88,274.28z"/>
				<path class="st13" d="M385.88,274.28c0,0-0.56,3.64-0.29,7.15c-2.05,3.06-4.69,5.98-8.07,7.13c0.08-1.27-0.03-5.24-3.62-6.73
					C368.95,279.76,385.88,274.28,385.88,274.28z"/>
			</g>
			<path class="st30" d="M347.62,309.88l1.85-0.78c0.7-0.29,1.49-0.23,2.14,0.16l3.01,1.85c1.2,0.74,1.98,2.02,2.07,3.43l0.06,0.87
				c-2.99,1.51-7.33,0.94-7.33,0.94l-1.26-0.03c-1.12-0.02-1.97-0.87-1.97-1.95l0.02-2.49
				C346.23,311.03,346.78,310.23,347.62,309.88z"/>
			<path class="st13" d="M367.64,311.58c0.06,1.05,0.11,2.13,0.17,3.2c0.12,2.49,0.22,5,0.31,7.36c0.02,0.41,0.03,0.82,0.05,1.23
				c26.64-1.22,30.81-20.9,30.81-20.9s-6.91-7.21-10.79-6.43c-3.88,0.79-12.67,11.4-12.67,11.4l0.37,1.47
				C374.86,310.01,369.93,311.12,367.64,311.58z"/>
			<g>
				<path class="st29" d="M395.55,304.61c-1.35,1.56-2.66,2.83-4.05,4.16c-1.4,1.3-2.85,2.54-4.37,3.72
					c-1.51,1.18-3.11,2.28-4.78,3.32c-1.67,1.03-3.44,1.94-5.3,2.75l-0.3,0.13c-0.14,0.06-0.29,0.1-0.44,0.12
					c-0.6,0.08-1.26,0.19-1.8,0.21c-0.53,0.02-1.09,0.05-1.59,0.03c-1.02-0.02-1.99-0.09-2.95-0.18c-1.9-0.18-3.74-0.47-5.56-0.79
					c-1.82-0.34-3.61-0.71-5.4-1.14c-1.78-0.45-3.54-0.9-5.31-1.45c-1.08-0.34-1.67-1.48-1.33-2.56c0.28-0.9,1.14-1.47,2.04-1.43
					l0.01,0l5.34,0.25l5.31,0.22c1.75,0.07,3.5,0.08,5.19,0.06l1.25-0.04l1.2-0.08c0.4-0.03,0.73-0.09,1.1-0.13
					c0.36-0.04,0.57-0.13,0.87-0.18l-0.74,0.25c1.4-0.77,2.78-1.63,4.14-2.59c1.35-0.98,2.68-2,3.97-3.1
					c1.29-1.1,2.56-2.24,3.8-3.42c1.23-1.15,2.49-2.44,3.56-3.56l0.09-0.1c1.56-1.63,4.15-1.68,5.78-0.12
					C396.86,300.5,396.96,302.98,395.55,304.61z"/>
			</g>
			<g>
				<path class="st9" d="M396.94,291.39c-5.97-5.51-18.08,15.02-18.08,15.02l7.33,9.03C386.19,315.44,409.87,303.32,396.94,291.39z"
					/>
				<path class="st32" d="M396.94,291.39c-5.97-5.51-18.08,15.02-18.08,15.02l7.33,9.03C386.19,315.44,409.87,303.32,396.94,291.39z
					"/>
				<polygon class="st9" points="387.72,315.85 378.86,305.07 377.22,307.46 384.88,317.63 				"/>
			</g>
			<g>
				<path class="st24" d="M392.56,258.27c0,0,3.52-4.45,11-2.99c7.48,1.46,10.73,10.35,4.11,19.06c-6.62,8.72-2.61,11.05-4.17,13.54
					c-1.56,2.49-4.1,1.94-4.1,1.94s2.93-0.62-0.53-3.68c-3.46-3.05-3.34-10.39-1.6-14.03c1.74-3.64-1.21-5.96-3.83-4.79
					L392.56,258.27z"/>
				<path class="st24" d="M372.13,254.4c0,0-5.05,3.19-3.88,9.08c1.17,5.89,10.38-4.67,10.38-4.67L372.13,254.4z"/>
				<path class="st30" d="M392.77,269.01c-3.3,7.27-4.81,11.7-10.46,13.93c-8.52,3.37-17.59-3.9-16.81-12.09
					c0.67-7.38,5.97-18,15.28-17.91C390.09,253.04,396.06,261.75,392.77,269.01z"/>
				<path class="st24" d="M377.86,262.71c-0.04-0.08-0.05-0.17-0.04-0.25c0.07-0.22,0.29-0.35,0.51-0.29
					c1.29,0.32,2.35,1.26,2.82,2.5c0.07,0.22-0.05,0.45-0.27,0.52l0,0c-0.22,0.06-0.44-0.06-0.52-0.27l0,0
					c-0.4-0.99-1.25-1.71-2.29-1.95C377.98,262.92,377.9,262.82,377.86,262.71z"/>
				<path class="st24" d="M368.67,260.67c-0.08-0.04-0.14-0.11-0.18-0.18c-0.08-0.21,0.03-0.45,0.25-0.53
					c1.23-0.5,2.64-0.37,3.75,0.36c0.18,0.13,0.22,0.39,0.09,0.58v0c-0.14,0.17-0.39,0.21-0.58,0.09l0,0
					c-0.9-0.56-2.02-0.65-2.99-0.23C368.88,260.77,368.76,260.74,368.67,260.67z"/>
				<path class="st34" d="M371.51,267.9l-2.41,0.95c0,0,0.28,0.95,2.09,1.7L371.51,267.9z"/>
				<g>
					<path class="st24" d="M369.67,272.83c0.32,1.24,0.45,3.49,0.45,3.49c0.21,0.03,0.41,0.05,0.62,0.06
						c2.79,0.27,4.18-0.53,4.87-1.5c0.37-0.53,0.53-1.12,0.6-1.6c0.08-0.56,0.01-0.98,0.01-0.98c-1.57,0.74-4.19,0.69-5.59,0.61
						C370.04,272.88,369.67,272.83,369.67,272.83z"/>
					<path class="st14" d="M370.62,272.91l0.16,1.02c2.63,0.25,4.52,0.07,5.42-0.65c0.08-0.56,0.01-0.98,0.01-0.98
						C374.65,273.04,372.02,272.99,370.62,272.91z"/>
					<path class="st35" d="M370.73,276.38c2.79,0.27,4.18-0.53,4.87-1.5c-0.96-0.05-2.11-0.01-3.16,0.32
						C371.64,275.45,371.1,275.91,370.73,276.38z"/>
				</g>
				<path class="st24" d="M384.79,274.26c0,0-1.58-2.78-0.9-6.59c0,0-6.72-4.29-8.16-9.26c0,0,0.4,4.71,3.78,8.26
					c0,0-9.65-5.58-8.31-11.55c1.34-5.96,9.74-6.03,18.03-1.72c8.29,4.31,8.5,12.36,5.95,17.35c0,0-2.08,10.7-9.7,10.38
					C385.49,281.14,388.03,276.12,384.79,274.26z"/>
				<path class="st30" d="M384.71,271.85c0,0,2.98-3.8,4.83-1.86c1.85,1.94-0.49,8.97-3.77,8.09
					C382.49,277.21,382.62,273.76,384.71,271.85z"/>
				<g>
					<path class="st24" d="M375.77,267.56c-0.17,0.8,0.13,1.53,0.66,1.64c0.53,0.11,1.1-0.44,1.26-1.24
						c0.17-0.8-0.13-1.53-0.66-1.64C376.5,266.21,375.93,266.76,375.77,267.56z"/>
					<path class="st24" d="M377.24,266.41l-1.59-1.04C375.66,265.36,376.21,267,377.24,266.41z"/>
				</g>
				<g>
					<path class="st24" d="M368.49,265.18c-0.17,0.8,0.13,1.53,0.66,1.64c0.53,0.11,1.1-0.44,1.26-1.24
						c0.17-0.8-0.13-1.53-0.66-1.64C369.23,263.83,368.66,264.39,368.49,265.18z"/>
					<path class="st24" d="M369.97,264.03l-1.59-1.04C368.38,262.99,368.94,264.62,369.97,264.03z"/>
				</g>
			</g>
		</g>
		<g>
			<path class="st30" d="M355.61,251.23l0.75-7.66l-6.72,0.42c0,0-1.28,5.28,2.4,7.84L355.61,251.23z"/>
			<polygon class="st30" points="354.27,238.5 349.34,240.02 349.64,243.99 356.36,243.57 			"/>
		</g>
		<g>
			<path class="st9" d="M334.58,314.06c2.35-0.08,8.21,0.35,8.21,0.35l2.72-1.01c0,0,13.71,2.14,15.25,2.04
				c1.54-0.1,5.75,1.54,5.75,1.54l-30.26,1.33L334.58,314.06z"/>
			<path class="st10" d="M334.58,314.06c2.35-0.08,8.21,0.35,8.21,0.35l2.72-1.01c0,0,13.71,2.14,15.25,2.04
				c1.54-0.1,5.75,1.54,5.75,1.54l-30.26,1.33L334.58,314.06z"/>
			<path class="st9" d="M328,316.98c0,0,5.28-5.01,10.19-1.9c0,0,6.56-3.76,13.28,0l8.95,1.59L328,316.98z"/>
			<path class="st36" d="M328,316.98c0,0,5.28-5.01,10.19-1.9c0,0,6.56-3.76,13.28,0l8.95,1.59L328,316.98z"/>
			<path class="st24" d="M315.99,320.73h66.26c0.78,0,1.4-0.63,1.4-1.4v-1.26c0-0.78-0.63-1.4-1.4-1.4h-66.26
				c-0.78,0-1.4,0.63-1.4,1.4v1.26C314.58,320.1,315.21,320.73,315.99,320.73z"/>
			<path class="st17" d="M314.58,318.02v1.34c0,0.75,0.61,1.36,1.37,1.36h66.34c0.75,0,1.36-0.61,1.36-1.36v-1.34
				c0-0.75-0.61-1.36-1.36-1.36h-66.34C315.19,316.66,314.58,317.27,314.58,318.02z"/>
			<path class="st16" d="M314.58,318.02v1.34c0,0.75,0.61,1.36,1.37,1.36h32.03c0.75,0,1.36-0.61,1.36-1.36v-1.34
				c0-0.75-0.61-1.36-1.36-1.36h-32.03C315.19,316.66,314.58,317.27,314.58,318.02z"/>
		</g>
	</g>
</g>
<g id="Character_1">
	<g>
		<g>
			<polygon class="st30" points="160.27,395.42 146.23,395.56 150.9,412.37 162.63,412.28 			"/>
			<polygon class="st37" points="160.26,395.43 146.23,395.56 148.84,404.98 161.59,404.87 			"/>
		</g>
		<path class="st24" d="M124.39,329.94c-7.91-21.58-19.6-53.87-15.58-63.8l43.52-1c0,0,2.65,47.25,4.36,67.17
			c1.77,20.71,5.56,69.65,5.56,69.65l-15.2,0.04C147.04,402.01,126.4,354.57,124.39,329.94z"/>
		<path class="st24" d="M148.91,417.51h3.06l0.83-1.24l1.61,1.25l18.46,0c0.36-1.83-0.79-4.23-0.79-4.23s-5.52-0.5-7.65-3.25
			c-0.16-0.21-0.42-0.33-0.68-0.27c-1.84,0.39-9.14,1.77-13.16,0.32c-0.44-0.16-0.9,0.14-0.9,0.6
			C149.63,413.87,148.91,417.51,148.91,417.51z"/>
		<g>
			<polygon class="st30" points="107.73,395.4 93.67,395.54 94.67,412.37 106.42,412.28 			"/>
			<polygon class="st37" points="107.72,395.41 93.66,395.54 94.22,404.97 106.99,404.86 			"/>
		</g>
		<path class="st24" d="M86.13,329.85c-3.21-21.61-7.86-53.93-1.67-63.87l43.74-1c0,0-7.65,47.31-10.29,67.24
			c-2.74,20.73-9.63,69.73-9.63,69.73L93.07,402C93.07,402,82.77,354.51,86.13,329.85z"/>
		<g>
			<g>
				<path class="st9" d="M144.76,192.75c2.49,1.57,4.32,3.46,5.67,5.2c1.36,1.75,2.32,3.39,3.14,4.92c1.63,3.04,2.67,5.72,3.76,8.18
					c2.05,4.91,3.95,8.96,6.39,12.17c0.6,0.82,1.23,1.57,1.91,2.27l0.25,0.27l0.13,0.13c0.04,0.05,0.03,0.03,0.04,0.05
					c0.02,0.05,0.04,0.11,0.14,0.2c0.06,0.08,0.18,0.19,0.32,0.3c0.11,0.1,0.29,0.23,0.45,0.35c1.37,1.02,3.58,2.05,5.82,3.03
					c4.56,1.95,9.79,3.68,14.8,5.58l0.26,0.1c2.69,1.02,4.04,4.03,3.02,6.72c-0.71,1.86-2.36,3.07-4.2,3.31
					c-3.06,0.39-5.94,0.54-8.93,0.52c-1.49,0-2.98-0.06-4.49-0.17c-1.51-0.09-3.03-0.25-4.57-0.49c-3.11-0.45-6.23-1.11-9.83-2.57
					c-0.46-0.2-0.9-0.38-1.39-0.64c-0.47-0.23-0.94-0.49-1.45-0.8c-0.48-0.28-1.02-0.64-1.54-1.02l-0.37-0.27l-0.26-0.21l-0.53-0.42
					c-1.41-1.12-2.74-2.34-3.96-3.62c-2.46-2.56-4.49-5.37-6.23-8.14c-1.74-2.78-3.13-5.57-4.42-8.16
					c-1.22-2.59-2.37-5.01-3.36-6.87c-0.5-0.91-0.97-1.66-1.3-2.12c-0.34-0.46-0.49-0.58-0.32-0.52c-4.78-3.06-6.17-9.4-3.12-14.18
					C133.64,191.09,139.98,189.7,144.76,192.75z"/>
			</g>
		</g>
		<path class="st30" d="M187.11,244.97l0.68-5.89c2.86-5.53,9.34-0.63,9.34-0.63l5.92,1.5c1.38,0.37,2.26,1.85,2.08,3.49l-0.44,4.12
			c-0.2,1.88-1.7,3.29-3.33,3.12l-5.51-0.76c-1.06-0.11-2.09-0.48-2.97-1.07L187.11,244.97z"/>
		<path class="st9" d="M140.79,191.06c-11.23-3.59-26.91-6.79-39.63-7.79c-8.11-0.64-14.34,5.53-13.63,13.31
			c2.86,31.59-6.04,64.41-2.64,71.6c0,0,43.94,5.98,67.99,7.25c10.34-29.13,0.31-49.81-2.95-75.22
			C149.37,195.81,145.13,192.44,140.79,191.06z"/>
		<g>
			<path class="st30" d="M135.09,191.46c-0.05-1.34-0.89-3.57-2.29-4.6c0.02-1.62,0.62-3.3,1.97-5.11l-14.24-10.49
				c-1.09,6.65-3.84,11.91-7.38,14.42c2.72,3.16,7.73,8.85,15.13,10.38C135.67,197.59,135.19,194.39,135.09,191.46z"/>
			<path class="st37" d="M134.38,182.31l-13.85-11.04c0,10.48,8.5,16.07,12.32,14.85C133.01,184.88,133.49,183.63,134.38,182.31z"/>
			<g>
				<path class="st9" d="M128.71,196.15l-1.96-3.29l-4.92,1.12C121.84,193.97,123.4,197.08,128.71,196.15z"/>
				<path class="st38" d="M128.71,196.15l-1.96-3.29l-4.92,1.12C121.84,193.97,123.4,197.08,128.71,196.15z"/>
			</g>
			<path class="st9" d="M116.17,181.74c0,0,2.92,8.87,10.58,11.11c-5.46,1.12-8.38,6.17-8.38,6.17s-8.97-4.11-6.44-15.16
				C113.81,182.43,116.17,181.74,116.17,181.74z"/>
			<g>
				<path class="st9" d="M128.71,196.15l4.71-2.32l3.81,2.36C137.24,196.19,132.38,199.21,128.71,196.15z"/>
				<path class="st38" d="M128.71,196.15l4.71-2.32l3.81,2.36C137.24,196.19,132.38,199.21,128.71,196.15z"/>
			</g>
			<path class="st9" d="M132.8,186.87c0,0,1.56,4.33,0.63,6.96c3.22,1.93,2.72,7.83,2.72,7.83s3.9-7.68-0.1-13.27
				C135.05,187.11,132.8,186.87,132.8,186.87z"/>
			<path class="st36" d="M116.17,181.74c0,0,2.92,8.87,10.58,11.11c-5.46,1.12-8.38,6.17-8.38,6.17s-8.97-4.11-6.44-15.16
				C113.81,182.43,116.17,181.74,116.17,181.74z"/>
			<path class="st36" d="M132.8,186.87c0,0,1.56,4.33,0.63,6.96c3.22,1.93,2.72,7.83,2.72,7.83s3.9-7.68-0.1-13.27
				C135.05,187.11,132.8,186.87,132.8,186.87z"/>
		</g>
		<path class="st24" d="M92.67,417.51h3.06l0.83-1.24l1.61,1.25l18.46,0c0.36-1.83-0.79-4.23-0.79-4.23s-5.52-0.5-7.65-3.25
			c-0.16-0.21-0.42-0.33-0.68-0.27c-1.84,0.39-9.14,1.77-13.16,0.32c-0.44-0.16-0.9,0.14-0.9,0.6
			C93.4,413.87,92.67,417.51,92.67,417.51z"/>
		<g>
			<path class="st24" d="M143.37,154.03c0,0,9.26,8.19,0.99,16.06C136.08,177.95,136.33,151.19,143.37,154.03z"/>
			<path class="st30" d="M120.07,160.34c-1.1,8.53-1.66,14.36,2.82,19.15c8.9,9.5,15.99,6.39,19.77-1.51
				c3.41-7.11,4.64-19.87-3.47-25.23C131.21,147.48,121.18,151.81,120.07,160.34z"/>
			<path class="st24" d="M135.4,165.61c-0.16,0.73,0.1,1.41,0.58,1.51c0.48,0.1,1-0.41,1.16-1.15c0.16-0.73-0.1-1.41-0.58-1.51
				C136.08,164.37,135.56,164.88,135.4,165.61z"/>
			<path class="st24" d="M142.94,167.46c-0.16,0.73,0.1,1.41,0.58,1.51c0.48,0.1,1-0.41,1.16-1.15c0.16-0.73-0.1-1.41-0.58-1.51
				C143.62,166.21,143.1,166.73,142.94,167.46z"/>
			<path class="st34" d="M140.29,167.49l-1.4,6.16c0,0,1,0.48,2.14,0.57c0.66,0.05,1.1-0.7,0.74-1.26
				C140.55,171.01,140.29,167.49,140.29,167.49z"/>
			<path class="st24" d="M131.95,162.67c-0.07-0.02-0.13-0.07-0.18-0.13c-0.16-0.18-0.14-0.46,0.05-0.62
				c1.86-1.6,3.83-1.07,3.91-1.04c0.24,0.07,0.37,0.31,0.3,0.54c-0.07,0.23-0.31,0.37-0.55,0.3l0,0c-0.06-0.02-1.6-0.42-3.09,0.86
				C132.26,162.69,132.09,162.72,131.95,162.67z"/>
			<path class="st24" d="M146.31,166.1c-0.14-0.03-0.26-0.13-0.31-0.27c-0.67-1.82-2.22-2.2-2.28-2.21
				c-0.24-0.05-0.38-0.29-0.33-0.53c0.06-0.24,0.29-0.39,0.53-0.33c0.09,0.02,2.07,0.48,2.91,2.76c0.08,0.23-0.03,0.48-0.26,0.57
				C146.48,166.11,146.39,166.12,146.31,166.1z"/>
			<path class="st24" d="M141.3,177.16c0,0-2.86-1.48-11.39-3.67c0.34,2.82,1.67,5.4,6.05,6.48
				C140.34,181.04,141.3,177.16,141.3,177.16z"/>
			<path class="st39" d="M134.45,177.42c2.11,0.52,3.52,1.39,4.44,2.46c-0.74,0.29-1.7,0.37-2.93,0.07
				c-2.11-0.52-3.51-1.38-4.43-2.46C132.27,177.21,133.22,177.12,134.45,177.42z"/>
			<path class="st14" d="M140.93,176.98c-0.38,0.48-0.76,0.97-1.66,0.93c-1.81-0.34-6.23-2.01-7.39-2.58
				c-0.75-0.33-1.35-0.77-1.6-1.75C136.85,175.28,139.94,176.54,140.93,176.98z"/>
			<path class="st24" d="M122.87,168.5c0,0,6.19-6.81,4.7-13.6c0,0,4.27,2.59,13.37,2.1c0,0-2.75,2.69-7.96,1.11
				c0,0,6.1,2.96,12.32,0.12c6.22-2.84-1.01-9.16-9.03-10.52c-8.02-1.36-13.77-1.22-14.43,2.74c0,0-8.69,0-6.01,15.66L122.87,168.5z
				"/>
			<path class="st30" d="M114.73,168.63c0.83,2.34,2.66,4.08,4.53,4.92c2.81,1.27,4.7-1.13,4.33-4.01c-0.33-2.6-2.19-6.39-5.21-6.44
				C115.41,163.04,113.78,165.95,114.73,168.63z"/>
		</g>
		<g>
			<path class="st9" d="M102.24,204.3l-0.87,0.62l-0.98,0.72l-1.98,1.48c-1.31,1.01-2.63,2.02-3.9,3.07
				c-2.57,2.07-4.99,4.25-7.22,6.45c-1.11,1.1-2.15,2.22-3.09,3.34c-0.96,1.11-1.82,2.22-2.55,3.31c-1.45,2.18-2.28,4.17-2.45,5.37
				l-0.63-3.38c-0.37-0.38-0.34,0.33,0.32,1.15c0.34,0.41,0.76,0.88,1.25,1.36c0.5,0.48,1.09,0.95,1.7,1.44
				c1.23,0.98,2.64,1.94,4.13,2.9c0.74,0.47,1.5,0.97,2.27,1.43l1.16,0.72c0.37,0.24,0.81,0.5,1.09,0.71l0.89,0.67
				c2.28,1.7,2.75,4.93,1.05,7.21c-0.99,1.33-2.53,2.04-4.06,2.07l-1.74,0.02l-1.64-0.05c-1.09-0.07-2.18-0.16-3.27-0.31
				c-2.19-0.29-4.38-0.77-6.63-1.48c-2.23-0.76-4.56-1.69-6.93-3.27c-1.19-0.8-2.41-1.77-3.61-3.02c-1.2-1.24-2.34-2.84-3.23-4.82
				c-0.39-0.86-0.58-1.75-0.61-2.64l-0.02-0.75c-0.09-3.05,0.42-5.89,1.18-8.42c0.75-2.55,1.81-4.78,2.93-6.85
				c2.26-4.12,4.92-7.54,7.72-10.65c2.78-3.12,5.76-5.88,8.82-8.46c1.54-1.28,3.09-2.53,4.71-3.7c0.81-0.59,1.61-1.18,2.44-1.74
				l1.27-0.85l1.4-0.9c4.76-3.07,11.11-1.69,14.18,3.08c2.97,4.62,1.77,10.72-2.64,13.88L102.24,204.3z"/>
		</g>
		<g>
			<path class="st2" d="M126.81,224.19l-1.97-2.82l-11.18-2l-11.75-9.84l-7.86,8.7c0,0-6.01,11-5.43,11.43s14.86,8.16,14.86,8.16
				l9.71-1.21L126.81,224.19z"/>
			<polygon class="st24" points="98,208.61 80.97,229.2 98.24,239.91 112.48,242.42 129.34,223.5 113.18,220.4 			"/>
			<polygon class="st25" points="113.18,220.4 98.24,239.91 80.97,229.2 98,208.61 			"/>
			<polygon class="st20" points="113.18,220.4 98.24,239.91 112.48,242.42 129.34,223.5 			"/>
		</g>
		<path class="st30" d="M88.54,236.43l-0.87,5.86c1.33,6.08,8.85,3.02,8.85,3.02l4.21-0.01c1.43,0,2.66-1.2,2.92-2.83l0.64-4.09
			c0.29-1.87-0.8-3.62-2.41-3.88l-3.63-0.59c-1.06-0.17-2.14-0.08-3.15,0.27L88.54,236.43z"/>
	</g>
</g>
</svg>
