<?xml version="1.0" encoding="utf-8"?>
<!-- Generator: Adobe Illustrator 25.0.0, SVG Export Plug-In . SVG Version: 6.00 Build 0)  -->
<svg version="1.1" id="Layer_1" xmlns="http://www.w3.org/2000/svg" xmlns:xlink="http://www.w3.org/1999/xlink" x="0px" y="0px"
	 viewBox="0 0 476 300" style="enable-background:new 0 0 476 300;" xml:space="preserve">
<style type="text/css">
	.st0{fill-rule:evenodd;clip-rule:evenodd;fill:#B3F1FF;}
	.st1{fill-rule:evenodd;clip-rule:evenodd;fill:none;stroke:#FFFFFF;stroke-linecap:round;stroke-miterlimit:10;}
	.st2{opacity:0.07;}
	.st3{fill-rule:evenodd;clip-rule:evenodd;fill:#004DBC;}
	.st4{fill-rule:evenodd;clip-rule:evenodd;fill:#0074FF;}
	.st5{fill-rule:evenodd;clip-rule:evenodd;fill:#1AD4FF;}
	.st6{fill-rule:evenodd;clip-rule:evenodd;fill:#DAE3E8;}
	.st7{fill-rule:evenodd;clip-rule:evenodd;fill:#EDF1F4;}
	.st8{opacity:0.15;fill-rule:evenodd;clip-rule:evenodd;fill:#004DBC;enable-background:new    ;}
	.st9{opacity:0.07;fill-rule:evenodd;clip-rule:evenodd;fill:#08217E;enable-background:new    ;}
	.st10{filter:url(#Adobe_OpacityMaskFilter);}
	.st11{fill-rule:evenodd;clip-rule:evenodd;fill:#FFFFFF;}
	.st12{opacity:0.07;mask:url(#mask-24_1_);fill-rule:evenodd;clip-rule:evenodd;fill:#004DBC;enable-background:new    ;}
	.st13{opacity:0.07;fill-rule:evenodd;clip-rule:evenodd;fill:#004DBC;enable-background:new    ;}
	.st14{fill-rule:evenodd;clip-rule:evenodd;fill:#08217E;}
	.st15{fill-rule:evenodd;clip-rule:evenodd;fill:#FF5F2B;}
	.st16{fill-rule:evenodd;clip-rule:evenodd;fill:#7A4515;}
	.st17{fill-rule:evenodd;clip-rule:evenodd;fill:#FFCBA5;}
	.st18{fill-rule:evenodd;clip-rule:evenodd;fill:#2E24EA;}
	.st19{fill-rule:evenodd;clip-rule:evenodd;fill:#FFB37C;}
	.st20{fill-rule:evenodd;clip-rule:evenodd;fill:#ECF2F5;}
	.st21{fill-rule:evenodd;clip-rule:evenodd;fill:#0A1B60;}
	.st22{fill-rule:evenodd;clip-rule:evenodd;fill:#75D0FD;}
	.st23{filter:url(#Adobe_OpacityMaskFilter_1_);}
	.st24{mask:url(#mask-26_1_);fill-rule:evenodd;clip-rule:evenodd;fill:#1AD4FF;}
	.st25{fill-rule:evenodd;clip-rule:evenodd;fill:#3F15A6;}
	.st26{fill:#E10415;}
	.st27{fill:#FDFCFD;}
</style>
<desc>Created with Sketch.</desc>
<g id="Group-33" transform="translate(70.813390, 133.015517) rotate(-18.000000) translate(-70.813390, -133.015517) translate(19.313390, 65.515517)">
	<path class="st0" d="M10.75,72.92C2.98,59.89-2.81,45.83-4.3,30.83c-0.57-5.73-0.47-11.67,1.58-17.06c1.47-3.84,3.98-7.25,7.12-9.9
		c2.99-2.52,7.03-5.01,11.01-5.11c4.92-0.13,9.33,1.39,13.57,3.76c1.75,0.98,3.27,2.7,4.62,4.18c1.46,1.6,2.8,3.31,4.03,5.1
		c3.17,4.62,5.59,9.74,7.43,15.02c3.7,10.62,5.24,21.84,7.57,32.83c4,18.78,10.39,37.05,18.97,54.23c0.76,1.53,1.57,3.2,1.23,4.87
		c-2.03,10.14-20.74,0.15-24.61-2.43c-9.14-6.12-16.63-14.34-23.35-22.97C19.84,86.84,15,80.03,10.75,72.92z"/>
	<path class="st0" d="M59.93,49.02c1.19-6.45,3.07-12.97,7.09-18.15c4.02-5.18,10.55-8.82,17.04-7.88
		c5.97,0.86,11.38,3.98,14.46,9.2c1.52,2.58,2.93,5.66,3.37,8.66c0.44,3.01,0.01,6.48-0.35,9.51c-0.8,6.81-2.75,13.45-5.26,19.82
		c-0.99,2.51-2.07,4.99-3.24,7.43c-2.81,5.86-6.12,11.49-8.53,17.54c-2.41,6.04-2.5,12.47-3.67,18.81
		c-1.41,7.65-5.86,8.31-10.22,2.29c-8.27-11.42-11.34-28.52-12.17-42.28C57.94,65.63,58.43,57.23,59.93,49.02z"/>
	<path class="st1" d="M70.87,122.9c-9.24-8.41-18.57-16.92-25.65-27.21c-3.17-4.6-5.86-9.52-8.43-14.48
		C23.32,55.17,12.85,26.73,13.23-2.57"/>
	<path class="st1" d="M6.17,64.64c8.72,3.11,17.45,5.07,26.22,7.45"/>
	<path class="st1" d="M46.71,30.45c0,0-8.82,18.38-19.82,29.67"/>
	<path class="st1" d="M42.87,92.09c0,0-9.62-0.27-21.91-3.94"/>
	<path class="st1" d="M37.88,83.3c0,0,9.99-8.62,14.84-21.54"/>
	<path class="st1" d="M86.89,23.57c0,0-19.7,42.96-11.61,91.98"/>
	<path class="st1" d="M101.67,39.65c0,0-6.9,7.73-23.82,12.4"/>
	<path class="st1" d="M70.55,27.25c0,0,2.39,5.49,10.25,13.2"/>
	<path class="st1" d="M58.96,55.52c0,0,5.23,7.46,15.86,13.42"/>
	<path class="st1" d="M95.52,72.07c0,0-6.42,9.9-22.01,11.55"/>
	<path class="st1" d="M58.91,79.68c0,0,6.13,11.96,14.46,15.14"/>
	<path class="st1" d="M21.35,45.36c0,0-11.92-5.08-27.3-16.97"/>
</g>
<g id="Group-292" transform="translate(63.000000, 29.626545)">
	<g id="Group-3_1_" transform="translate(151.631038, 225.615478)" class="st2">
		<path id="Fill-1_1_" class="st3" d="M-6.73,11.06L11.58,0.04l36.87,0.89c0,0-10.14,13.77-14.98,17.15c0,0-17.79-1-19.14-1.39
			C7.68,14.78-6.73,11.06-6.73,11.06"/>
	</g>
	<path id="Fill-4_1_" class="st4" d="M376.53,115.61c0,3.42-5.3,6.2-11.83,6.2c-6.53,0-11.83-2.77-11.83-6.2
		c0-3.42,5.3-6.2,11.83-6.2C371.24,109.42,376.53,112.19,376.53,115.61"/>
	<path id="Fill-6" class="st3" d="M376.53,118.25c0,3.42-5.3,6.2-11.83,6.2c-6.53,0-11.83-2.77-11.83-6.2s5.3-6.2,11.83-6.2
		C371.24,112.06,376.53,114.83,376.53,118.25"/>
	<path id="Fill-8" class="st0" d="M364.7,121.81c-6.53,0-11.83-2.77-11.83-6.2c0-3.42,5.3-6.2,11.83-6.2
		c6.53,0,11.83,2.77,11.83,6.2C376.53,119.04,371.24,121.81,364.7,121.81 M364.7,107.71c-8.33,0-15.09,3.54-15.09,7.9
		c0,4.36,6.76,7.9,15.09,7.9c8.33,0,15.09-3.54,15.09-7.9C379.79,111.25,373.04,107.71,364.7,107.71"/>
	<path id="Fill-10_1_" class="st5" d="M364.7,123.52c-8.33,0-15.09-3.54-15.09-7.9v52.86c0,4.36,6.76,7.9,15.09,7.9
		c8.33,0,15.09-3.54,15.09-7.9v-52.86C379.79,119.98,373.04,123.52,364.7,123.52"/>
	<path id="Fill-12" class="st0" d="M341.22,100.95c-6.2-0.43-1.18-13.45-10.79-13.89c-9.61-0.44-15.22,8.28-14.34,8.42
		c0.89,0.15,10.2-2.51,13.15,1.77c2.96,4.29,2.07,4.29,0.89,4.29s-11.67-7.24-16.85-4.73c0,0-5.91,5.47-6.21,9.01
		c0,0,9.61-6.35,14.63-3.84c5.02,2.51,3.84,5.22,0.84,5.32c-3.01,0.1-11.13-4.19-16.11,1.18c0,0-1.92,4.34-1.13,14.29
		c0,0,0.21,1.68-0.19,3.45c0,0,2.18-2.66,9.8,0c0,0,2.73,0.37,6.13-3.99c3.4-4.36,4.88-10.35,6.13-8.13
		c1.26,2.22-3.4,10.27-9.09,12.56h10.05c0,0,7.02-13.29,6.8-15.55c-0.22-2.26,1.63-1.95,1.48,0c-0.15,1.96-1.77,11.41-4.95,14.59
		c0,0,8.28-3.55,10.27-6.8c1.99-3.25,4.73-1.33,5.54-4.8C348.09,110.63,347.57,101.4,341.22,100.95"/>
	<path id="Fill-14" class="st0" d="M351.16,53.57c0,0,12.47,43.31,12.92,61.55c0.02,0.9,0.88,1.55,1.75,1.33
		c0.48-0.12,0.78-0.59,0.7-1.07c-1-5.83-6.97-40.1-13.66-62.79L351.16,53.57z"/>
	<path id="Fill-16" class="st0" d="M335.94,100.86c2.59-1.67,15.06-3.03,22.98-1.03c5.03,1.26,3.85,3.48,3.85,3.48l1.1,3.55
		c0,0-1.25-2.86-5.62-5.55c-3.75-2.3-16.7-1.48-21.43,0.44C332.1,103.67,335.94,100.86,335.94,100.86"/>
	<path id="Fill-18" class="st0" d="M365.69,110.56c0,0,17.69-32.3,19.76-32.45c2.07-0.15,0-2.22,0-2.22s-20.74,29.45-20.74,32.81
		C364.71,112.06,365.69,110.56,365.69,110.56"/>
	<path id="Fill-20_1_" class="st0" d="M385.05,74.73c-2.2-2.17-4.41-7.41-9.01-4.71c-4.6,2.69-4.87,12.4-3.22,16.45
		c0,0,2.08-3.78,4.16-4.89c2.08-1.11,7-3.02,3.65-0.2c-3.35,2.82-7.11,5.5-7.06,7.26c0.05,1.76,6.53,8.44,6.53,8.44
		s0.24-11.41,4.17-11.74c3.93-0.33-1.74,3.56-2.18,8.83c-0.24,2.91-0.01,4.36-0.01,4.36s10.12,4.88,9.25,7.43
		c0,0-0.19,1.73-0.85,2.63c-0.66,0.9,7.76-3.79,8.35-5.06c0.59-1.27-6.51-12.51-4.57-12.06c1.93,0.46,4.28,2.21,5.28,5.24
		c0.99,3.03,1.17,6.21,0.91,7.19c-0.26,0.97,4.21-4.25,3.27-5.5c-0.93-1.25-5.51-8.8-10.2-12.11c-2.67-1.89-2.09-3.54-0.3-3.05
		c1.79,0.49,10.43,9.11,11.13,13.73c0,0,3.52-5.39,0.74-8.9c-2.78-3.51-12.41-7.49-11.94-8.58c0.47-1.09,8,2.38,11.76,7.31
		c3.76,4.93-1.18-14.75-11.55-14.65c0,0-2.93,0.48-6.08,2.6C385.61,75.88,385.05,74.73,385.05,74.73"/>
	<path id="Fill-22" class="st0" d="M368.77,112.56c-2.04-1.49-4.15-6.34-8.26-1.53c-4.1,4.81-4.13,15.55-2.54,19.32
		c0,0,1.79-4.98,3.65-7.03c1.86-2.05,6.26-6.13,3.29-1.69c-2.96,4.44-6.31,8.89-6.22,10.8c0.08,1.91,6.1,6.61,6.1,6.61
		s-0.04-12.6,3.5-14.54c3.54-1.94-1.49,4.6-1.77,10.55c-0.15,3.29,0.09,4.78,0.09,4.78s9.26,1.26,8.53,4.41c0,0-0.13,1.97-0.71,3.22
		c-0.58,1.26,6.93-7.28,7.44-8.91c0.5-1.63-6.17-11.08-4.41-11.36c1.76-0.28,3.92,0.69,4.89,3.61c0.97,2.91,1.2,6.34,0.98,7.51
		c-0.22,1.17,3.71-6.35,2.83-7.34c-0.87-0.99-5.18-7.42-9.5-9.16c-2.46-0.99-1.97-3.04-0.34-3.23c1.63-0.19,9.64,5.78,10.38,10.56
		c0,0,3.06-7.33,0.47-10.05s-11.39-3.2-10.99-4.58c0.4-1.39,7.29-0.62,10.8,3.27c3.51,3.88-1.4-15.68-10.77-11.39
		c0,0-2.64,1.7-5.44,5.3C369.3,113.59,368.77,112.56,368.77,112.56"/>
	<path id="Fill-24" class="st0" d="M354.22,52c-0.18-0.3-15.75-16.45-18.9-16.16c-3.15,0.3-4.14,1.28-4.14,1.28s1.77-0.2,3.15,0.39
		c1.38,0.59,7.69,6.4,7.69,6.4s-8.87-5.22-10.84-5.42c-1.97-0.2-11.13,3.05-12.41,5.42c0,0,5.42,0.89,6.4,1.48
		c0.99,0.59-7.98,1.87-7.98,1.87s-0.99,2.07-0.69,2.07c0.3,0,17.44-2.86,20.39-1.58c2.96,1.28,8.55,4.37,1.67,3.52
		c-6.89-0.86-22.06-4.3-25.02,2.4c-2.96,6.7-0.49,10.96-0.49,10.96s11.13-12.15,24.93-9.88c0,0,6.11,1.28,1.48,1.77
		c-4.63,0.49-15.76,2.96-19.9,7s-8.51,5.41-8.39,6.5c0.12,1.09,4.45,8.18,5.04,8.28c0.59,0.1,1.38-4.53,2.56-6.7
		c1.18-2.17,9.03-9.16,13.92-9.66c4.9-0.49,5.98,0.39,4.4,1.58s-18.05,7.42-18.28,14.78c-0.22,7.36-0.22,2.26-0.22,2.26
		s4.14,4.06,4.8,4.06c0.67,0-0.81-7.83,2.22-10.35c3.03-2.51,11.6-9.09,13.45-8.13c1.85,0.96-5.47,3.62-8.42,7.98
		c-2.96,4.36-4.14,7.46-4.51,9.61c-0.37,2.14,7.76-1.48,11.01,3.77c3.25,5.25,0.52-4.88,2.59-10.35c2.07-5.47,3.03-6.95,3.18-5.69
		c0.15,1.26,0.67,7.09-0.59,10.49c-1.26,3.4-2.81,4.8-1.99,5.1c0.81,0.3,5.85-1.15,6.43-2.22c0.58-1.06,0.07-11.23-0.96-13.74
		c-1.03-2.51-0.44-3.7,0.52-2.29c0.96,1.4,4.43,8.79,2.66,14.48c0,0,1.94-1.03,5.25-1.7c3.32-0.66,2.14-13-2.74-17
		c-4.88-3.99,0.67-3.84,1.77-3.03c1.11,0.81,7.31,6.43,6.8,16.4c0,0,1.77-2.29,5.62-3.18c3.84-0.89,1.03-11.38-8.5-15.96
		c-9.53-4.58,12.64-2.59,13.74,9.31c0,0,3.47-3.74,5.54-5.75c2.07-2.01-10.42-6.37-12.86-6.89s-1.33-2.51,0.07-2.51
		c1.4,0,14.26,1.99,14.63,4.65c0.37,2.66,2.98-8.82,0-10.79c-2.98-1.97-15.39-0.59-17.56,2.27c-2.17,2.86-1.97-2.5,0-2.96
		c1.97-0.46,7.68-0.49,8.28-0.59c0.59-0.1-3.74-5.12-7.09-4.73s-7.39,6.5-7.19,8.18C354.93,50.72,354.22,52,354.22,52"/>
	<path id="Fill-26_1_" class="st6" d="M144.77,231.99c0,0,4.65,3.11,15.56,7.91c10.91,4.8,22.21,0.93,22.38,1.03
		c0.17,0.1,15.05-11.41,16.27-19.5L144.77,231.99z"/>
	<path id="Fill-28" class="st7" d="M144.77,231.99c0,0,17.32,8.91,36,7.81c0,0,9.98-4.54,18.22-18.37c0,0-14.76-7.07-30.94-8.24
		c0,0-10.49,2.98-15.06,7.05C148.41,224.3,144.77,231.99,144.77,231.99"/>
	<path id="Fill-30" class="st8" d="M157.03,143.7c0,4.36,4.29,10.82,15.4,12.59c11.11,1.77,24.64,14.43,33.13,11.99
		c8.49-2.45,10.4-13.18-7.46-19.75c-17.86-6.57-25.67-13.72-25.67-13.72S157.03,136.83,157.03,143.7"/>
	<path id="Fill-32" class="st9" d="M136.35,142.24c0,0,63.33-9.25,76.59-22.23c0,0-2.72-1.96-7.25-8.55
		c-4.53-6.59-124.22-9.49-124.22-9.49l-10.5,8.68c0,0,40.54,32.49,50.95,32.62C132.34,143.39,136.35,142.24,136.35,142.24"/>
	<g id="Group-36" transform="translate(0.000000, 188.221374)">
		<g id="Clip-35">
		</g>
		<defs>
			<filter id="Adobe_OpacityMaskFilter" filterUnits="userSpaceOnUse" x="-7" y="0.17" width="150.9" height="52.38">
				<feColorMatrix  type="matrix" values="1 0 0 0 0  0 1 0 0 0  0 0 1 0 0  0 0 0 1 0"/>
			</filter>
		</defs>
		<mask maskUnits="userSpaceOnUse" x="-7" y="0.17" width="150.9" height="52.38" id="mask-24_1_">
			<g class="st10">
				<polygon id="path-23_1_" class="st11" points="-7,0.17 143.9,0.17 143.9,52.55 -7,52.55 				"/>
			</g>
		</mask>
		<path id="Fill-34" class="st12" d="M-7,1.96l26.25-1.79L62.4,23.52l44.4,3.19l26.02-13.27l11.08,2.77c0,0-45.91,32.59-65.04,36.34
			C78.85,52.55,7.69,31.59-7,1.96"/>
	</g>
	<path id="Fill-37" class="st13" d="M262.59,211.94l12.87-6.6l49.8,15.78l61.9-27.87c0,0,12.03,12.19,13.47,10.17
		c1.44-2.01-4.22,5.13-16.19,11.39c-17.18,8.99-39.48,22.89-60.28,22.76C316.45,237.52,274.33,218.72,262.59,211.94"/>
	<path id="Fill-39" class="st4" d="M121.16,111.46c14.97,9.67,33.99,14.05,33.99,14.05s-12.55-12.64-10.55-16.13
		c2-3.5,19.11-3.41,22.88,0c3.76,3.41,12.2,10.6,12.2,10.6V103.8c0,0-7.88-6.43-13.84-7.79c-5.96-1.36-35.02,3.87-35.02,3.87
		L121.16,111.46z"/>
	<path id="Fill-41" class="st6" d="M82.03,63.34c0,0-6.01,27.91,0,47.77c6.01,19.86,39.97,33.59,44.79,33.13
		c13.19-1.25,76.33-18.17,82.08-25.36c5.76-7.19,7.77-21.58,7.77-21.58l-100.15,6.71L82.03,63.34z"/>
	<path id="Fill-43" class="st7" d="M129.48,133.34c0,0,19.97-3.49,37.12-8.78c23.24-7.17,41.3-17.66,50.07-27.26
		c0,0-25.53-9.59-31.7-17.55c-12.72-16.41-18.37-44.03-18.37-44.03s-25.61,35.97-35.68,36.84c-10.07,0.86-48.89-9.21-48.89-9.21
		C83.05,115.71,110.49,128.16,129.48,133.34"/>
	<path id="Fill-45" class="st4" d="M121.16,111.46c14.97,9.67,33.99,14.05,33.99,14.05s-12.55-12.64-10.55-16.13
		c2-3.5,14.89-3.41,22.88,0c4.67,1.99,12.2,10.6,12.2,10.6V103.8c0,0-7.88-6.43-13.84-7.79c-5.96-1.36-35.02,3.87-35.02,3.87
		L121.16,111.46z"/>
	<path id="Fill-47" class="st14" d="M187.88,148.65c0,0,0.06,1.85,0.24,2.41c0.18,0.56,5.62,11.67,13.91,11.64
		c8.29-0.03-0.67-14.67-0.67-14.67L187.88,148.65z"/>
	<path id="Fill-49" class="st15" d="M188.34,141.96c-1.48,1.07-0.55,5.96-0.46,6.68c0.06,0.49,6.75,13.64,14.79,12.48
		c7.32-1.05-2.95-16.93-3.38-17.73c-0.44-0.81-2.3-3.19-4.31-3.7C192.97,139.2,188.34,141.96,188.34,141.96"/>
	<path id="Fill-51" class="st14" d="M188.5,143.56c0,4.77,9.95,5.46,9.94,1.14C198.42,139.58,188.5,139.43,188.5,143.56"/>
	<path id="Fill-53" class="st6" d="M166.61,35.71c0,0-43.74,36.91-56.95,34.03l15.51,17.34c0,0,22.19-10.22,24.19-12.23
		C151.35,72.84,166.61,35.71,166.61,35.71"/>
	<path id="Fill-55" class="st16" d="M143.45,51.27c-2.54,0.73-4.76,2.32-6.21,4.53c-5.27,8.05-8.9,21.82-4.37,32.7
		c5.29,12.7,22.54,1.53,23.95-10.42s12.22-27.27,1.75-28.14c-6.56-0.55-7.27-0.53-11.63,0.38
		C146.35,50.45,144.89,50.86,143.45,51.27"/>
	<path id="Fill-57" class="st11" d="M164,137.52c-0.28,0-0.57-0.03-0.86-0.09c-2.26-0.47-3.7-2.69-3.23-4.94l0.5-2.37l-4.4-1.57
		c-2.17-0.78-3.3-3.17-2.52-5.33c0.78-2.17,3.17-3.3,5.34-2.52l7.82,2.8c1.96,0.7,3.11,2.75,2.68,4.79l-1.25,5.93
		C167.66,136.17,165.93,137.52,164,137.52"/>
	<path id="Fill-59" class="st16" d="M168.4,37.14c-1.02-5.64-6.42-9.39-12.06-8.37c-5.64,1.02-9.39,6.42-8.37,12.06
		c1.02,5.64,6.42,9.39,12.06,8.37C165.67,48.19,169.42,42.78,168.4,37.14"/>
	<path id="Fill-61" class="st14" d="M157.41,130.66c-0.8,0-1.61-0.16-2.38-0.49c-0.08-0.03-8-3.44-16.39-7.4
		c-15.75-7.43-19.73-10.4-21.44-12.17c-1.37-1.42-5.55-5.72-3.64-10.83c1.72-4.61,6.92-5.6,8.88-5.97c2.75-0.52,6.2-0.83,10.57-1.21
		c1.08-0.09,2.22-0.19,3.4-0.3c3.33-0.3,6.26,2.14,6.57,5.47c0.3,3.32-2.14,6.26-5.47,6.57c-1.2,0.11-2.35,0.21-3.44,0.31
		c-1.28,0.11-2.61,0.23-3.89,0.35c6.53,3.65,18.86,9.45,29.63,14.08c3.07,1.32,4.48,4.87,3.17,7.94
		C161.99,129.29,159.76,130.66,157.41,130.66"/>
	<path id="Fill-63" class="st14" d="M190.82,141.74c-2.68,0-5.13-1.8-5.84-4.51c-2.2-8.39-8.59-30.87-12.8-38.83
		c-2.69-0.3-9.48,0.75-15.29,2.45c-0.21,0.06-0.42,0.11-0.63,0.15l-18.24,3.26c-3.28,0.59-6.42-1.6-7.01-4.89
		c-0.59-3.29,1.6-6.42,4.89-7.01l17.95-3.2c1.21-0.34,5.49-1.5,10.11-2.23c6.53-1.03,14.45-1.51,17.88,4.02
		c5.89,9.5,13.94,39.8,14.84,43.22c0.85,3.23-1.08,6.53-4.31,7.38C191.85,141.68,191.33,141.74,190.82,141.74"/>
	<path id="Fill-65" class="st16" d="M171.29,84.66L171.29,84.66L171.29,84.66z M160.04,104.05c-1.43,0-2.82-0.73-3.6-2.05
		c-1.17-1.99-0.51-4.54,1.48-5.71c0.01-0.01,1.04-0.61,2.52-1.6c8.5-5.63,10.73-9.2,10.85-10.05c-0.22-3.13-8.05-16.66-15.26-27.38
		c-1.29-1.91-0.78-4.51,1.14-5.79s4.5-0.78,5.79,1.14c0.16,0.24,4.05,6.04,8.03,12.69c7.53,12.59,8.57,16.83,8.65,19.12
		c0.06,1.84,0.23,7.44-14.59,17.24c-1.68,1.11-2.84,1.8-2.89,1.83C161.49,103.86,160.76,104.05,160.04,104.05z"/>
	<path id="Fill-67" class="st16" d="M150.36,57.63c-0.61,0-1.22-0.14-1.8-0.43c-1.99-1-2.79-3.42-1.79-5.41l5.15-10.27
		c1-1.99,3.42-2.79,5.41-1.79c1.99,1,2.79,3.42,1.79,5.41l-5.15,10.27C153.26,56.82,151.84,57.63,150.36,57.63"/>
	<path id="Fill-69" class="st16" d="M129.69,110.37c-0.88,0-1.77-0.28-2.53-0.86c-2.07-1.58-4.59-6.68-7.28-14.73
		c-4.59-13.75,5.79-25.6,13.37-34.25c1.78-2.03,3.47-3.96,4.67-5.59c1.37-1.86,3.98-2.25,5.83-0.88c1.86,1.37,2.25,3.98,0.88,5.83
		c-1.41,1.91-3.21,3.97-5.11,6.14c-6.6,7.53-14.81,16.9-11.73,26.11c1.81,5.43,3.18,8.34,4,9.82c0.41,0.73,0.67,1.09,0.76,1.21
		c1.53,1.45,1.75,3.85,0.44,5.56C132.18,109.8,130.94,110.37,129.69,110.37"/>
	<path id="Fill-71" class="st11" d="M146.6,60.75c2.61,3.9,9.84,2.33,11.2-1.71c1.75-5.19,2.42-6.98,1.14-9.06
		c0,0,1.25,0.1,1.81,0.51c0.58,0.43,1.23,3.19-0.77,9.85c-1.9,6.36-0.34,7.05-0.34,7.05s-5.69,18.18,1.25,19.92
		c0,0-3.61,9.28-9.15,12.79c-8.57,5.43-8.77-2.26-22.35-7.33c0,0-4.26-0.44,1.43-15.73c0,0,5.85-6.68,7.95-11.63
		c2.1-4.95,1.81-12.91,1.81-12.91l1.58-0.83C142.16,51.68,145.19,58.65,146.6,60.75"/>
	<path id="Fill-73" class="st11" d="M194.02,150.23c-1.68,0-3.23-1.1-3.73-2.79l-2.42-8.19c-0.61-2.06,0.57-4.23,2.63-4.84
		c2.06-0.61,4.23,0.57,4.84,2.63l2.42,8.19c0.61,2.06-0.57,4.23-2.63,4.84C194.76,150.18,194.39,150.23,194.02,150.23"/>
	<path id="Fill-75" class="st14" d="M152.94,39.83c1.93,0,12.75,7.53,17.57,0c0,0,0.86-9.93-7.41-12.51
		c-8.22-2.57-12.47,0.72-15.31,6.01c-3.2,5.96,2.14,11.97,2.14,11.97S149.1,39.83,152.94,39.83"/>
	<path id="Fill-77" class="st16" d="M154.98,40.2c0-1.12-0.91-2.03-2.03-2.03c-1.12,0-2.03,0.91-2.03,2.03s0.91,2.03,2.03,2.03
		C154.07,42.23,154.98,41.32,154.98,40.2"/>
	<path id="Fill-79" class="st15" d="M189.56,145.95c1.83,1.53,5.24,2.39,8.43,0.17c3.2-2.22-1.66,5.66-1.66,5.66l-6.04-1.88
		L189.56,145.95z"/>
	<path id="Fill-81" class="st11" d="M201.02,150.96c-0.02,0-0.04,0-0.06,0l-7.92-0.95c-0.29-0.04-0.51-0.3-0.47-0.6
		c0.04-0.29,0.3-0.51,0.6-0.47l7.92,0.95c0.29,0.03,0.51,0.3,0.47,0.6C201.52,150.76,201.29,150.96,201.02,150.96"/>
	<path id="Fill-83" class="st11" d="M195.65,153.49c-0.09,0-0.18-0.02-0.27-0.07c-0.26-0.15-0.34-0.48-0.2-0.73
		c0.07-0.12,2.27-4.1,3.43-6.2c0.14-0.26,0.47-0.35,0.73-0.21c0.26,0.14,0.35,0.47,0.21,0.73c-0.35,0.63-3.38,6.12-3.44,6.21
		C196.01,153.4,195.83,153.49,195.65,153.49"/>
	<path id="Fill-85" class="st0" d="M141.97,69.47c-3.36,5.95-3.84,13.55-3.7,17.61c0,0,11.08,1.31,13.99-2.26
		c0,0-1.4-5.63,2.87-14.55c0.3-0.16-3.15,1.6-7.34,1.2C143.72,71.08,141.97,69.47,141.97,69.47"/>
	<path id="Fill-87" class="st14" d="M171.18,125.66c1.07,1.03,1.57,1.8,1.02,4.14c-0.31,1.31-3.27,15.22-5.86,16.91
		c-2.59,1.69-4.26,2.3-6.79-1.66C157.02,141.09,171.18,125.66,171.18,125.66"/>
	<path id="Fill-89" class="st15" d="M165.75,123.29c0,0-1.68,9.69-5.35,6.81c0,0-3.7,11.47-0.34,15.82
		c3.36,4.35,6.16-1.04,6.95-3.48c0.79-2.45,4.43-15.77,4.18-16.78c-0.25-0.98-5.1-5.04-7.04-3.08c-0.02,0.02,0.26,0.15,0.65,0.32
		C165.09,123.02,165.44,123.17,165.75,123.29"/>
	<path id="Fill-91" class="st11" d="M164.92,136.87c-0.14,0-0.28-0.05-0.39-0.16l-4.17-4.29c-0.21-0.21-0.2-0.55,0.01-0.76
		c0.21-0.21,0.55-0.2,0.76,0.01l4.17,4.29c0.21,0.21,0.2,0.55-0.01,0.76C165.18,136.81,165.05,136.87,164.92,136.87"/>
	<path id="Fill-93" class="st11" d="M160.03,136.6c-0.16,0-0.32-0.07-0.43-0.21c-0.18-0.24-0.14-0.57,0.1-0.75l5.71-4.37
		c0.24-0.18,0.57-0.13,0.75,0.1c0.18,0.24,0.14,0.57-0.1,0.75l-5.71,4.37C160.26,136.57,160.15,136.6,160.03,136.6"/>
	<path id="Fill-95" class="st14" d="M164.79,122.89c0.2-0.35,0.95-0.4,0.95,0v0.4L164.79,122.89z"/>
	<path id="Fill-97" class="st3" d="M155.62,89.05l6.05,0.69c0.54,0.06,0.9,0.42,0.81,0.8l-2.07,8.68l-8.05-0.81l2.24-8.85
		C154.69,89.22,155.14,89,155.62,89.05"/>
	<path id="Fill-99" class="st16" d="M160.52,104.48c-6.11,0-9.42-1.95-10.04-2.36l5.04-7.71c0,0-0.04-0.03-0.12-0.08
		c0.07,0.04,1.85,1.01,5.57,0.93c2.54-0.07,4.65,1.96,4.71,4.5c0.06,2.54-1.96,4.65-4.5,4.71
		C160.95,104.48,160.73,104.48,160.52,104.48"/>
	<path id="Fill-101" class="st11" d="M159.02,91.46c0-0.27-0.33-0.48-0.73-0.48c-0.4,0-0.73,0.21-0.73,0.48s0.33,0.48,0.73,0.48
		C158.69,91.94,159.02,91.72,159.02,91.46"/>
	<path id="Fill-103" class="st16" d="M136.26,116.61l-8.3-0.85l-0.01,0.08c0-0.03,0.15-2.67-1.49-7.78c-0.7-2.19,0.5-4.54,2.7-5.25
		c2.19-0.7,4.54,0.5,5.25,2.7C136.56,112.22,136.33,115.93,136.26,116.61"/>
	<path id="Fill-105" class="st16" d="M136.35,110.38c-0.33,0-0.65-0.16-0.85-0.46l-2.96-4.55c-0.3-0.47-0.17-1.09,0.29-1.39
		c0.47-0.3,1.09-0.17,1.39,0.29l2.96,4.55c0.3,0.47,0.17,1.09-0.29,1.39C136.73,110.33,136.54,110.38,136.35,110.38"/>
	<path id="Fill-107" class="st6" d="M43.32,169.32l90.95,1.22l12.17-3.31c0,0-1.28,22.33-10.84,36.04
		c-9.57,13.71-50.29,21.42-50.29,21.42c-19.83-8.18-46.07-13.28-62.98-26.04c-16.9-12.76-27.1-42.54-27.1-42.54L43.32,169.32z"/>
	<path id="Fill-109" class="st7" d="M-4.76,156.12c36.24,48.31,66.55,45.84,90.08,61.25c0,0,23.48-1.11,39.98-21.2
		c16.51-20.09,21.15-28.94,21.15-28.94s-17.96,3.81-49.85-18.46c-21.33-14.9-33.36-23.85-33.36-23.85L-4.76,156.12z"/>
	<path id="Fill-111" class="st4" d="M39.6,174.11c1.92,10.26,11.51,11.67,16.59,12.5c5.08,0.83,12.37,2.75,14.48,9.27
		s-2.49,13.68,0.77,15.86c3.26,2.18,8.06,3.42,15.25-7.03c7.19-10.46,11.86-24.46,10.73-28.01c-1.13-3.55-4.39-7.9-12.11-6.82
		C77.59,170.97,39.6,174.11,39.6,174.11"/>
	<path id="Fill-113" class="st17" d="M99.02,142.64c-0.82,0-1.65-0.29-2.3-0.88c-1.42-1.27-1.54-3.46-0.26-4.88
		c3.43-3.82,8.58-4.34,9.16-4.39c1.9-0.15,3.57,1.26,3.72,3.16c0.15,1.89-1.25,3.55-3.14,3.72c-0.83,0.08-3.25,0.62-4.6,2.12
		C100.91,142.25,99.96,142.64,99.02,142.64"/>
	<path id="Fill-115" class="st14" d="M78.24,145.95c-4.24,0-7.27-0.83-9.47-2.49c-3.72-2.83-3.99-7.09-4.21-10.51
		c-0.09-1.42-0.17-2.76-0.46-3.95c-0.54-2.24,0.84-4.49,3.08-5.03c2.24-0.54,4.49,0.84,5.03,3.08c0.45,1.89,0.57,3.74,0.67,5.37
		c0.13,1.99,0.25,3.88,0.93,4.39c0.82,0.62,4.06,1.8,16.31-0.8c2.25-0.48,4.47,0.96,4.95,3.22c0.48,2.26-0.96,4.47-3.22,4.95
		C86.3,145.36,81.84,145.95,78.24,145.95"/>
	<path id="Fill-117" class="st17" d="M91,143.12c-1.45,0-2.73-1.05-2.98-2.53c-0.27-1.65,0.85-3.2,2.49-3.47l6.99-1.15
		c1.65-0.27,3.2,0.84,3.47,2.49c0.27,1.65-0.84,3.2-2.49,3.47l-6.99,1.15C91.32,143.1,91.16,143.12,91,143.12"/>
	<path id="Fill-119" class="st3" d="M74.12,191.3c-3.06,0-5.69-2.32-6-5.43c-0.87-8.51-2.11-18.12-3.27-25
		c-2.02,3.25-4.25,7.12-6.12,10.63c-1.57,2.94-5.23,4.06-8.18,2.48c-2.94-1.57-4.06-5.23-2.48-8.18c0.12-0.22,2.89-5.4,6.09-10.61
		c5.71-9.3,9.31-13.58,14.34-12.7c5.02,0.88,6.26,6.51,7.17,10.62c0.71,3.22,1.46,7.62,2.24,13.08c1.3,9.15,2.21,18.07,2.25,18.44
		c0.34,3.32-2.08,6.29-5.4,6.62C74.53,191.29,74.33,191.3,74.12,191.3"/>
	<path id="Fill-121" class="st11" d="M87.47,194.35H74.98c-1.99,0-3.7-1.41-4.09-3.36l-0.71-3.57c-0.45-2.26,1.02-4.46,3.28-4.91
		c2.26-0.45,4.46,1.02,4.91,3.28l0.04,0.21h9.07c2.3,0,4.17,1.87,4.17,4.17C91.64,192.49,89.77,194.35,87.47,194.35"/>
	<path id="Fill-123" class="st17" d="M100.94,159.55c-1.07,0-2.1-0.57-2.65-1.57c-0.8-1.46-0.27-3.3,1.2-4.1l9.9-5.43
		c1.46-0.8,3.3-0.27,4.1,1.2c0.8,1.46,0.27,3.3-1.2,4.1l-9.9,5.43C101.93,159.43,101.43,159.55,100.94,159.55"/>
	<path id="Fill-125" class="st4" d="M76.55,212.16c-1.09,0-2.19-0.29-3.18-0.91c-2.84-1.76-3.71-5.48-1.95-8.32
		c5.7-9.19,9.66-16.66,11.79-22.22c1.06-2.77,1.5-4.64,1.66-5.85c-2.27,0.63-5.58,1.92-8,2.87c-9.85,3.84-21.01,8.19-29.48,3.35
		c-4.34-2.48-7.04-6.85-8.04-13c-0.53-3.29,1.7-6.4,5-6.93c3.29-0.53,6.4,1.7,6.93,5c0.26,1.63,0.84,3.72,2.1,4.44
		c3.46,1.98,12.87-1.69,19.09-4.11c3.72-1.45,7.23-2.82,10.3-3.53c5.37-1.25,9.35-0.27,11.81,2.9c5.55,7.14,1.81,19.74-12.9,43.46
		C80.55,211.14,78.57,212.16,76.55,212.16"/>
	<path id="Fill-127" class="st14" d="M57.62,125.54c-20.39,9.06-22.67,42.19-20.03,48.36c2.28,5.34,16.67,6.06,27.08-0.66
		c2.63-1.7,4.07-4.73,3.79-7.85c-0.57-6.23-0.75-17.03,12.35-28.48C87.58,131.01,82.81,114.35,57.62,125.54"/>
	<path id="Fill-129" class="st11" d="M85.31,221.55c-0.71,0-1.43-0.18-2.09-0.57l-11.06-6.43c-1.88-1.09-2.6-3.44-1.67-5.4l2.3-4.84
		c0.99-2.08,3.48-2.97,5.56-1.97c2.08,0.99,2.96,3.48,1.97,5.56l-0.65,1.37l7.74,4.5c1.99,1.16,2.67,3.71,1.51,5.7
		C88.15,220.8,86.75,221.55,85.31,221.55"/>
	<path id="Fill-131" class="st14" d="M89.36,165.01c-1.94,0-3.71-0.42-5.3-1.24c-7.48-3.88-7.72-14.91-7.9-22.96
		c-0.06-2.46-0.11-5.01-0.39-6.11c-0.57-2.23,0.78-4.5,3.02-5.07c2.23-0.57,4.5,0.78,5.07,3.02c0.51,2.01,0.57,4.77,0.64,7.97
		c0.11,4.94,0.32,14.13,3.41,15.74c0.77,0.4,3.98,1.26,12.7-4.58c1.91-1.28,4.51-0.77,5.79,1.14c1.28,1.91,0.77,4.51-1.14,5.79
		C98.97,162.92,93.71,165.01,89.36,165.01"/>
	<path id="Fill-133" class="st18" d="M53.15,128.57c0,6.49,0.78,14.56,6.64,12.2c5.86-2.36,16.81-10.67,23.76-9.39
		c0,0,0.16-1.4-0.11-2.82c-0.27-1.43-12.06,0.47-12.06,0.47l-17.42-0.08L53.15,128.57z"/>
	<path id="Fill-135" class="st4" d="M73.76,114.51c-24.23-1.55-22.56,20.21-17.57,22.13c4.99,1.92,18.52-6.84,27.39-6.31
		c0,0,1.44-5.9-1.55-8.4C78.83,119.23,73.76,114.51,73.76,114.51"/>
	<path id="Fill-137" class="st5" d="M72.86,114.54c-3.62,0.11-7.77,0.92-9.43,2.46c-1.67,1.54-3.02,4.59,10.83,7.18
		c13.85,2.59,6.77-2.46,6.77-2.46L72.86,114.54z"/>
	<path id="Fill-139" class="st14" d="M73.99,115.34c-4.45-0.51-14.48,2.75-6.6,5.49c7.88,2.73,14.32,3.64,15.31,3.02
		C83.68,123.23,73.99,115.34,73.99,115.34"/>
	<path id="Fill-141" class="st17" d="M89.02,107.57c-2.4-5.21-8.57-7.48-13.78-5.08c-5.21,2.4-7.48,8.57-5.08,13.78
		c2.4,5.21,8.57,7.48,13.78,5.08C89.15,118.95,91.42,112.78,89.02,107.57"/>
	<path id="Fill-143" class="st14" d="M112.13,149.91l-11.28-8.54c-0.54-0.41-0.65-1.18-0.24-1.72l7.02-9.27
		c0.41-0.54,1.18-0.65,1.72-0.24l11.28,8.54c0.65,0.49,0.78,1.41,0.29,2.06l-6.73,8.89C113.7,150.27,112.78,150.4,112.13,149.91"/>
	<path id="Fill-145" class="st11" d="M112.49,148.31l-10.17-7.7c-0.47-0.36-0.56-1.03-0.21-1.5l5.95-7.85
		c0.17-0.23,0.5-0.27,0.72-0.1l11.05,8.37c0.32,0.24,0.38,0.7,0.14,1.02l-5.69,7.52C113.86,148.62,113.05,148.73,112.49,148.31"/>
	<path id="Fill-147" class="st17" d="M111.68,154.44c-1.47,0-2.84-0.95-3.3-2.43c-0.56-1.82,0.46-3.76,2.28-4.32
		c2.9-0.89,3.61-2.67,3.61-2.69c0.51-1.84,2.42-2.91,4.26-2.39c1.84,0.51,2.91,2.42,2.39,4.26c-0.15,0.55-1.69,5.4-8.22,7.42
		C112.36,154.38,112.02,154.44,111.68,154.44"/>
	<path id="Fill-149" class="st15" d="M89.56,106.35c4.98,7.05-9.96,7.19-6.73,16.23c3.22,9.04,12.58,13.29,2.88,16.59
		c-8.09,2.74,3.43-12.45-7.31-14.76c-7.4-1.59-7.95-5.45-7.95-5.45c-1.91,0.45-3.66,0.83-3.29-4.82
		C67.93,102.6,82.11,95.81,89.56,106.35"/>
	<path id="Fill-151" class="st17" d="M84.57,113.95c-0.51-1.09-1.8-1.57-2.9-1.07c-1.09,0.51-1.57,1.8-1.07,2.9
		c0.51,1.09,1.8,1.57,2.9,1.07S85.07,115.05,84.57,113.95"/>
	<path id="Fill-153" class="st19" d="M83.83,114.29c-0.32-0.69-1.13-0.98-1.81-0.67c-0.69,0.32-0.98,1.13-0.67,1.81
		c0.32,0.69,1.13,0.98,1.81,0.67C83.85,115.79,84.14,114.98,83.83,114.29"/>
	<path id="Fill-155" class="st14" d="M84.02,116.72c-0.18-0.39-0.65-0.56-1.04-0.38c-0.39,0.18-0.56,0.65-0.38,1.04
		c0.18,0.39,0.65,0.56,1.04,0.38C84.03,117.58,84.2,117.11,84.02,116.72"/>
	<path id="Fill-157" class="st17" d="M98.95,142.7c-0.56,0-1.01-0.45-1.01-1.01c0-0.56,0.45-1.01,1.01-1.01
		c2.15,0,3.3-0.89,3.35-0.93c0.43-0.34,1.07-0.27,1.41,0.16c0.35,0.43,0.28,1.06-0.14,1.41C103.5,141.38,101.86,142.69,98.95,142.7
		L98.95,142.7z"/>
	<path id="Fill-159" class="st17" d="M110.96,149.53c-0.55,0-1-0.44-1.01-0.99c0-0.07-0.03-1.7,0.4-3.17
		c0.16-0.53,0.72-0.84,1.25-0.68c0.53,0.16,0.84,0.72,0.68,1.25c-0.34,1.17-0.32,2.55-0.32,2.56c0.01,0.56-0.43,1.01-0.99,1.03
		C110.97,149.53,110.96,149.53,110.96,149.53"/>
	<path id="Fill-161" class="st11" d="M107.25,144.94c0,0.25-0.2,0.45-0.45,0.45c-0.25,0-0.45-0.2-0.45-0.45s0.2-0.45,0.45-0.45
		C107.05,144.49,107.25,144.69,107.25,144.94"/>
	<path id="Fill-163" class="st11" d="M120.16,138.91c0,0.12-0.1,0.21-0.21,0.21c-0.12,0-0.21-0.1-0.21-0.21
		c0-0.12,0.1-0.21,0.21-0.21C120.06,138.69,120.16,138.79,120.16,138.91"/>
	<path id="Fill-165" class="st11" d="M119.57,138.48c0,0.12-0.1,0.21-0.21,0.21c-0.12,0-0.21-0.1-0.21-0.21s0.1-0.21,0.21-0.21
		C119.47,138.26,119.57,138.36,119.57,138.48"/>
	<path id="Fill-167" class="st14" d="M265.57,173.31c-0.24,0.39-0.35,0.85-0.32,1.3c0.14,2,1.5,6.44,6.31,10.52
		c5.68,4.82,8.57,3.74,9.72,3.31c1.15-0.43-15.18-16.01-15.18-16.01L265.57,173.31z"/>
	<path id="Fill-169" class="st15" d="M265.92,172.68c-0.99,1.7,1.17,7.17,8.78,13.76c7.62,6.59,11.19-3.13,10.14-4.18
		c-1.05-1.05-6.27-6.55-11.66-9.58c-4.43-2.49-6.49-0.89-7.08-0.24C265.98,172.58,265.92,172.68,265.92,172.68"/>
	<path id="Fill-171" class="st14" d="M285.18,174.84c-0.11,0.45-0.08,0.91,0.08,1.34c0.73,1.86,3.37,5.69,9.18,8.14
		c6.87,2.89,9.3,1,10.27,0.24c0.97-0.76-19.28-10.72-19.28-10.72L285.18,174.84z"/>
	<path id="Fill-173" class="st15" d="M285.32,174.12c-0.44,1.91,3.26,6.49,12.5,10.5c9.24,4.01,9.73-6.34,8.42-7.03
		c-1.31-0.69-7.95-4.37-13.99-5.65c-4.97-1.05-6.45,1.1-6.82,1.9C285.35,174.02,285.32,174.12,285.32,174.12"/>
	<path id="Fill-175" class="st11" d="M280.57,185.46c-1.18,0-2.35-0.45-3.25-1.35c-1.8-1.8-1.8-4.71,0-6.51l2.99-3
		c1.8-1.8,4.71-1.8,6.51,0c1.8,1.8,1.8,4.71,0,6.51l-2.99,3C282.93,185.01,281.75,185.46,280.57,185.46"/>
	<path id="Fill-177" class="st11" d="M302.17,183.96c-0.72,0-1.45-0.17-2.13-0.53c-2.25-1.18-3.12-3.96-1.94-6.22l2.77-5.28
		c1.18-2.25,3.96-3.12,6.22-1.94c2.25,1.18,3.12,3.96,1.94,6.22l-2.77,5.28C305.43,183.06,303.83,183.96,302.17,183.96"/>
	<path id="Fill-179" class="st17" d="M304.58,178.95c-0.61,0-1.23-0.14-1.82-0.42c-2.07-1.01-2.94-3.5-1.93-5.57
		c0.08-0.17,2.04-4.17,4.9-8.19c4.51-6.32,8.82-9.31,13.18-9.15c2.3,0.08,4.1,2.02,4.02,4.32c-0.08,2.3-2.02,4.1-4.32,4.02
		c-0.01,0-0.01,0-0.02,0c-0.57,0-2.72,0.99-6.01,5.58c-2.48,3.45-4.23,7.04-4.25,7.07C307.61,178.09,306.13,178.95,304.58,178.95"/>
	<path id="Fill-181" class="st17" d="M282.73,182.94c-1.01,0-2.02-0.36-2.82-1.1c-1.7-1.56-1.81-4.2-0.26-5.9
		c0.64-0.7,1.28-1.4,1.91-2.1c8.05-8.82,14.4-15.79,20.61-15.79c2.3,0,4.14,1.86,4.15,4.15c0.01,2.3-1.86,4.17-4.15,4.19
		c-0.05,0-1.39,0.05-5.07,3.36c-2.82,2.53-6,6.02-9.37,9.71c-0.64,0.7-1.28,1.41-1.93,2.11
		C284.98,182.49,283.86,182.94,282.73,182.94"/>
	<path id="Fill-183" class="st7" d="M370.52,164.46c-10.44-2.59-30.42-23.15-30.42-23.15s-38.8,35.96-42.95,38.04
		c-10.76,5.4-46.43,11.53-46.43,11.53s4.66,4.45,22.56,11.36c17.91,6.91,58.42,0,58.42,0s35.85-10.44,44.91-15.85
		c9.06-5.42,36.08-45.08,36.08-45.08S391.94,169.78,370.52,164.46"/>
	<path id="Fill-185" class="st4" d="M290.25,182c6.91-0.24,10.17-2.57,20.05,1.09c9.88,3.66,16.4,7.6,19.81,9.32
		c3.4,1.73,12.61-5.68,12.61-5.68s-34.43-13-43.45-8.87L290.25,182z"/>
	<path id="Fill-187" class="st4" d="M303.47,174.39l4.94-4.29c0,0,16.38,0.65,24.87,6.01c8.49,5.37,9.45,9.44,9.45,9.44h-8.94
		C333.78,185.54,310.71,173.06,303.47,174.39"/>
	<path id="Fill-189" class="st18" d="M341.23,196.77c-0.07,0-0.13,0-0.2,0c-9.03-0.29-17.18-9.31-25.06-18.02
		c-3.45-3.81-8.65-9.57-10.69-10.21l-0.19-0.06c-0.17-0.05-0.53-0.17-1.83-0.21c-3.34-0.12-5.95-2.91-5.83-6.25
		c0.11-3.26,2.8-5.84,6.04-5.84c0.07,0,0.14,0,0.21,0c2.6,0.09,3.97,0.42,5.07,0.77l0.07,0.02c5.2,1.59,10.26,7.18,16.12,13.66
		c3.31,3.66,6.73,7.44,9.98,10.24c3.93,3.38,5.86,3.79,6.51,3.81c3.34,0.11,5.95,2.9,5.84,6.24
		C347.16,194.2,344.48,196.77,341.23,196.77"/>
	<path id="Fill-191" class="st18" d="M350.27,188.56c-0.34,0-0.68-0.03-1.03-0.09c-7.32-1.26-12.67-7.26-17.39-12.57
		c-3.74-4.2-7.61-8.54-10.76-8.64c-3.34-0.1-5.96-2.89-5.85-6.23c0.1-3.34,2.88-5.96,6.23-5.85c8.35,0.26,14.23,6.86,19.42,12.68
		c3.57,4.01,7.26,8.15,10.41,8.69c3.29,0.57,5.5,3.69,4.93,6.98C355.71,186.49,353.15,188.56,350.27,188.56"/>
	<path id="Fill-193" class="st15" d="M379.41,177.49c-0.86,0-1.72-0.26-2.46-0.81c-1.86-1.36-2.26-3.97-0.9-5.83
		c1.9-2.59,3.9-5.41,5.73-8.05c-0.69,0.49-1.35,0.95-1.99,1.35c-1.96,1.22-4.53,0.62-5.75-1.34c-1.22-1.96-0.62-4.53,1.34-5.75
		c1.16-0.72,2.63-1.84,4.18-3.03c4.76-3.64,8.88-6.78,12.77-5.83c1.7,0.41,3.06,1.54,3.83,3.17c1.11,2.36-0.04,4.58-1.93,7.71
		c-1.09,1.8-2.64,4.18-4.62,7.06c-3.33,4.85-6.79,9.58-6.82,9.63C381.96,176.9,380.69,177.49,379.41,177.49z"/>
	<path id="Fill-195" class="st15" d="M352.44,175.61c2.78,0.37,3.85,0.37,5.42-0.95c7.84-6.62,21.32-7.25,22.62-9.32
		c0.3-0.48,0.76,3.87,1.01,4.41c4.5,9.88-11.63,14.52-11.63,14.52l-18.26,2.64l-0.16-11.66L352.44,175.61z"/>
	<path id="Fill-197" class="st6" d="M412.71,141.32c0,0-5.67,37.02-27.71,56.09c-43.76,37.87-66.23,28.59-92.54,18.68
		c-16.33-6.15-37.53-17.94-41.72-25.21l0.21-0.14c49.29,20.34,79.18-2.02,79.18-2.02l44.01-0.39L412.71,141.32z"/>
	<path id="Fill-199" class="st17" d="M373.76,158c0-5.73-4.65-10.38-10.38-10.38c-5.73,0-10.38,4.65-10.38,10.38
		s4.65,10.38,10.38,10.38C369.11,168.38,373.76,163.73,373.76,158"/>
	<path id="Fill-201" class="st17" d="M367.22,173.88c-1.46,0-2.75-1.06-2.98-2.55l-1.16-7.36c-0.26-1.65,0.87-3.2,2.52-3.45
		c1.65-0.26,3.2,0.87,3.45,2.52l1.16,7.36c0.26,1.65-0.87,3.19-2.52,3.45C367.54,173.86,367.38,173.88,367.22,173.88"/>
	<path id="Fill-203" class="st17" d="M357.83,174.68c0,0,7.38,1.68,11.3-0.3c3.92-1.98,3.21-4.51,3.13-5.08
		c-0.22-1.39-2.53-1.39-2.53-1.39S361.69,170.85,357.83,174.68"/>
	<path id="Fill-205" class="st15" d="M355.03,184.56c-0.31,0-0.62-0.03-0.94-0.11c-0.19-0.04-4.61-1.06-9.34-2.53
		c-9.55-2.95-11.83-5.07-12.87-6.92c-0.75-1.33-0.91-2.83-0.45-4.22c0.9-2.74,3.16-3.99,14.75-6.03c5.57-0.98,10.96-1.69,11.18-1.72
		c2.28-0.3,4.38,1.31,4.68,3.59c0.3,2.29-1.31,4.38-3.59,4.68c-4.32,0.57-9.13,1.33-13.03,2.07c3.07,1.02,6.83,2.09,10.53,2.94
		c2.25,0.52,3.65,2.76,3.13,5C358.64,183.25,356.93,184.56,355.03,184.56"/>
	<path id="Fill-207" class="st20" d="M330.11,188.72c0,0,23.42-3.57,40.43-6.82c8.18-1.56,41.09-39.97,41.09-39.97
		s-23.49,45.42-33.76,46.48c-10.26,1.06-10.66,3.76-31.26,2.85C340,190.96,330.11,188.72,330.11,188.72"/>
	<path id="Fill-209" class="st4" d="M361.05,183.32c-2.38,2.68,3.67,5.13,6.91,4.91c3.24-0.22,9-0.32,9.3,0.24
		c0.3,0.57-1.24-3.62-1.24-3.62L361.05,183.32z"/>
	<path id="Fill-211" class="st14" d="M352.51,153.11c-0.95,1.99-0.42,4.41,1.35,5.73c2.48,1.84,5.77,1.2,6.97,2
		c1.65,1.1,3.37,10-0.6,14.26c-3.97,4.25-0.23,8.67,4.28,10.01c4.51,1.34,12.47,0.24,13.24,4.6c0.77,4.36-0.94,6.71,0.46,10.35
		c1.39,3.65,6.87,2.3,10.13-0.86c3.26-3.17,2.79-11.74,0.3-15.34c-2.49-3.6-5.76-1.35-7.77-3.46c-2.01-2.11,4.5-4.14-1.4-10.35
		c-5.34-5.63-5.3-3.15-5.08-12.04c0.31-12.66-12.31-12.55-16.95-10.17C355.36,148.89,353.43,151.2,352.51,153.11"/>
	<path id="Fill-213" class="st17" d="M362.27,170.65c-1.76,0-3.05-0.15-3.36-0.19c-1.89-0.25-3.22-1.98-2.98-3.87
		c0.25-1.89,1.98-3.22,3.86-2.98c1.58,0.2,6.28,0.38,9.12-1.15c1.68-0.9,3.77-0.27,4.68,1.41c0.9,1.68,0.27,3.77-1.41,4.68
		C368.95,170.28,365.02,170.65,362.27,170.65"/>
	<path id="Fill-215" class="st17" d="M362.85,160.41c-0.65-0.99-1.98-1.27-2.97-0.63c-0.99,0.65-1.27,1.98-0.63,2.97
		c0.65,0.99,1.98,1.27,2.97,0.63C363.22,162.73,363.5,161.4,362.85,160.41"/>
	<path id="Fill-217" class="st17" d="M373.29,160.32C373.29,160.32,373.29,160.32,373.29,160.32
		C373.29,160.32,373.29,160.32,373.29,160.32 M373.29,160.32C373.29,160.32,373.29,160.32,373.29,160.32
		C373.29,160.32,373.29,160.32,373.29,160.32 M373.29,160.32C373.29,160.33,373.29,160.33,373.29,160.32
		C373.29,160.33,373.29,160.33,373.29,160.32 M373.76,167.75c-1.15,0-2.27-0.57-2.93-1.62c-1.01-1.62-0.52-3.75,1.09-4.76
		c1.01-0.63,1.36-1.16,1.44-1.29c0.6-1.69,2.4-2.65,4.16-2.18c1.84,0.5,2.93,2.4,2.43,4.24c-0.18,0.67-1.03,3-4.36,5.09
		C375.02,167.58,374.39,167.75,373.76,167.75"/>
	<path id="Fill-219" class="st17" d="M365.1,172.34c-0.08,0-0.15-0.01-0.23-0.03c-2.78-0.65-4.53-2.79-4.6-2.89
		c-0.35-0.43-0.28-1.07,0.15-1.42c0.43-0.35,1.07-0.28,1.41,0.15c0.02,0.02,1.41,1.7,3.49,2.19c0.54,0.13,0.88,0.67,0.75,1.21
		C365.97,172.02,365.55,172.34,365.1,172.34"/>
	<path id="Fill-221" class="st17" d="M377.17,168.18c-0.12,0-0.23-0.02-0.35-0.06c-0.52-0.19-0.79-0.77-0.6-1.29
		c0.01-0.02,0.69-1.87,0.98-3.51c0.1-0.55,0.62-0.91,1.17-0.81c0.55,0.1,0.91,0.62,0.81,1.17c-0.33,1.82-1.05,3.77-1.08,3.85
		C377.96,167.93,377.58,168.18,377.17,168.18"/>
	<path id="Fill-223" class="st8" d="M225.26,152.72c-6.35,3.86,5.11,11.14,10.32,14.15c5.2,3,4.2,13.57,15.68,14.63
		c11.49,1.06,22.12-15.43,20.36-22.46C269.87,152,255,134.63,225.26,152.72"/>
	<path id="Fill-225" class="st4" d="M234.98,59.82c-0.13,0-0.27,0-0.41-0.01c-1.33-0.09-3.75-0.8-5.04-4.53
		c-3.42-9.84,4.33-23.06,5.22-24.53c1.2-1.97,3.76-2.6,5.73-1.4c1.97,1.2,2.6,3.76,1.4,5.73c-0.8,1.33-2.2,4.04-3.3,7.08
		c1.87-3.62,4.08-7.72,6.66-11.57c1.28-1.91,3.87-2.43,5.79-1.14c1.91,1.28,2.43,3.87,1.15,5.79c-2.93,4.37-5.44,9.29-7.46,13.25
		C241.02,55.73,238.93,59.82,234.98,59.82z"/>
	<path id="Fill-227" class="st14" d="M239.62,33.6c-0.42,3.45-0.53,15.08,2.98,19.53c3.51,4.46,1.12-5.35,1.12-5.35l-1.13-17.11
		L239.62,33.6z"/>
	<path id="Fill-229" class="st17" d="M245.34,35.17c-0.9,0-1.8-0.35-2.48-1.05c-0.3-0.3-0.75-0.64-1.1-0.84
		c-1.17,1.09-2.99,1.25-4.35,0.28c-1.55-1.11-1.92-3.26-0.81-4.81c1.07-1.51,2.62-2.41,4.36-2.54c3.42-0.26,6.31,2.54,6.86,3.11
		c1.33,1.37,1.29,3.56-0.07,4.88C247.07,34.84,246.2,35.17,245.34,35.17"/>
	<path id="Fill-231" class="st17" d="M272.16,98.67C272.16,98.67,272.16,98.67,272.16,98.67C272.16,98.67,272.16,98.67,272.16,98.67
		z M274.84,104.3c-0.77,0-1.54-0.25-2.18-0.77c-1.26-1.02-1.61-2.75-0.95-4.15c0.33-1.19,0.85-5.49-0.12-8.14
		c-0.65-1.79,0.27-3.77,2.07-4.42c1.79-0.65,3.77,0.27,4.43,2.07c1.02,2.82,1.06,6.03,0.9,8.23c-0.21,2.98-0.7,4.97-1.47,5.92
		C276.84,103.86,275.84,104.3,274.84,104.3z"/>
	<path id="Fill-233" class="st21" d="M266.73,22.69c4.05,2.22,12.48,6.42,13.92,14.91c1.44,8.49-0.72,11.62-0.72,11.62l-13.9-24.75
		L266.73,22.69z"/>
	<path id="Fill-235" class="st3" d="M270.57,74.85c7.14-4.59,9.45-9.05,9.45-9.05s0.18-26.86-1.08-29.83
		c-2.78-6.57-9.27-10.81-9.27-10.81L270.57,74.85z"/>
	<path id="Fill-237" class="st14" d="M265.98,23.15c3.74,1.36,6.07,3.81,7.05,6.9c0.98,3.09-2.01,39.86-2.16,43.89
		c-0.14,4.03-10.65-1.15-10.65-1.15L265.98,23.15z"/>
	<path id="Fill-239" class="st22" d="M259.25,88.49c-1,0-2-0.28-2.87-0.84l-11.84-7.6c-1.6-1.03-2.53-2.83-2.43-4.73l0.41-8.27
		c0.07-1.52,0.8-2.94,1.99-3.89c1.19-0.95,2.73-1.34,4.24-1.08l11.44,2.02c2.54,0.45,4.38,2.65,4.38,5.23v13.85
		c0,1.94-1.06,3.73-2.76,4.66C261,88.28,260.13,88.49,259.25,88.49"/>
	<path id="Fill-241" class="st21" d="M266.13,161.5h-1.84v1.58c-4.72-1.98-7.08-1.58-8.55-0.02c-1.06,1.12-4.07,6.4-4.79,8.51h-0.63
		l0.03,1.03c-0.02,0.83,0.54,2.07,2.09,2.47c1.64,0.43,3.86-0.02,4.91-0.68c2.05-1.3,7.16-7.3,8.53-9.88
		c0.17-0.32,0.26-0.63,0.28-0.91h0.01L266.13,161.5z"/>
	<path id="Fill-243" class="st21" d="M251.26,150.66c0-0.01,0-0.02,0-0.03l-0.03-1.86h-2.7v0.63c-1.18-0.38-2.62-0.46-4.11-0.15
		l-11.36,3.94c-0.59,0.15-1.14,0.37-1.61,0.64h-2.09l0.03,0.95h0c0,0.17,0.02,0.33,0.06,0.5c0.4,1.59,2.67,2.52,5.19,2.13
		l11.68-2.61C249.12,154.2,251.14,152.46,251.26,150.66L251.26,150.66z"/>
	<path id="Fill-245" class="st11" d="M246.29,153.66l-11.67,2.61c-2.53,0.39-4.79-0.53-5.19-2.13c-0.4-1.59,2.54-4.01,3.64-4.78
		c2.07-1.45,9.16-5.44,11.57-6.08c3.15-0.83,6.97-0.24,6.61,5.41C251.13,150.46,249.5,153,246.29,153.66"/>
	<path id="Fill-247" class="st21" d="M241.71,148.33c3.88,3.68,10.34-0.66,7.79-3.52C246.11,141.02,238.8,145.57,241.71,148.33"/>
	<path id="Fill-249" class="st11" d="M265.84,163.35c-1.26,3.16-6.53,8.78-8.53,9.88c-1.09,0.6-3.27,1.11-4.91,0.68v0
		c-1.63-0.43-2.17-1.77-2.08-2.6c0.24-2.22,4.87-11.64,6.4-13.25c1.48-1.56,5.24-2.19,7.16-1.29
		C266.44,157.97,266.34,162.11,265.84,163.35"/>
	<path id="Fill-251" class="st21" d="M257.67,162.27c3.82,3.62,9.63-0.95,7.13-3.76C261.46,154.78,254.8,159.56,257.67,162.27"/>
	<path id="Fill-253" class="st11" d="M245.56,149.17c-0.08,0-0.17,0-0.26-0.01c-1.87-0.14-3.27-1.77-3.13-3.64l0.44-5.9
		c0.14-1.87,1.77-3.27,3.64-3.13c1.87,0.14,3.27,1.77,3.13,3.64l-0.44,5.9C248.81,147.81,247.32,149.17,245.56,149.17"/>
	<path id="Fill-255" class="st11" d="M261.03,162.7c-1.82,0-3.33-1.44-3.39-3.28l-0.21-5.91c-0.07-1.87,1.4-3.45,3.27-3.51
		c1.88-0.07,3.45,1.4,3.51,3.27l0.21,5.91c0.07,1.87-1.4,3.45-3.27,3.51C261.11,162.7,261.07,162.7,261.03,162.7"/>
	<path id="Fill-257" class="st5" d="M245.91,144.65c-0.04,0-0.08,0-0.12,0c-2.93-0.06-5.26-2.49-5.19-5.42l1.4-65.21
		c0.06-2.93,2.48-5.26,5.42-5.19c2.93,0.06,5.26,2.49,5.19,5.42l-1.4,65.21C251.16,142.35,248.79,144.65,245.91,144.65"/>
	<path id="Fill-259" class="st5" d="M260.85,158.7c-2.87,0-5.23-2.29-5.3-5.17c-0.19-7.5-0.46-14.63-0.73-21.52
		c-0.57-14.83-1.15-30.16-0.98-50.32c0.03-2.92,2.4-5.26,5.31-5.26c0.02,0,0.03,0,0.05,0c2.93,0.03,5.29,2.42,5.26,5.35
		c-0.17,19.91,0.41,35.12,0.97,49.82c0.26,6.93,0.54,14.09,0.73,21.65c0.07,2.93-2.24,5.37-5.17,5.44
		C260.94,158.7,260.9,158.7,260.85,158.7"/>
	<path id="Fill-261" class="st4" d="M243.99,32.05c1.77-10.27,27.64-10.49,27.64,5.44c0,2.89-1.36,35.33-4.49,50.3
		c-1.64,7.85-27.08,4.35-29.98-3.8C235.66,79.83,242.87,38.55,243.99,32.05"/>
	<g id="Group-265" transform="translate(246.143609, 0.018081)">
		<g id="Clip-264">
		</g>
		<defs>
			<filter id="Adobe_OpacityMaskFilter_1_" filterUnits="userSpaceOnUse" x="-6.73" y="0.39" width="26.16" height="32.5">
				<feColorMatrix  type="matrix" values="1 0 0 0 0  0 1 0 0 0  0 0 1 0 0  0 0 0 1 0"/>
			</filter>
		</defs>
		<mask maskUnits="userSpaceOnUse" x="-6.73" y="0.39" width="26.16" height="32.5" id="mask-26_1_">
			<g class="st23">
				<polygon id="path-25_1_" class="st11" points="-6.73,0.39 19.43,0.39 19.43,32.89 -6.73,32.89 				"/>
			</g>
		</mask>
		<path id="Fill-263" class="st24" d="M19.43,27.13c-0.25-1.01-0.5-2.03-0.75-3.05c-0.56-2.32-1.11-4.62-1.65-6.92
			c-0.8-1.34-1.61-2.67-2.41-4.01c-1.5-3.66-3-7.31-4.5-10.97C9.34,1.7,5.5-0.51,1.16,0.8C-4.92,2.65-6.33,9.7-6.5,10.6
			c-0.78,4.25,0.53,7.82,1.63,10.27c1.11,2.46,2.48,4.65,3.78,6.36c2.18,2.86,3.73,4.12,5.31,4.97
			C9.73,35.15,18.68,27.76,19.43,27.13"/>
	</g>
	<path id="Fill-266" class="st14" d="M256.93,22.88c3.87-6.22,0.55-21.86-7.68-21.16c-4.59,0.39-7.33,4.88-8.33,9.14
		c0,0.68-0.91,5.6,3.75,11.67C249.25,28.51,254.34,27.04,256.93,22.88"/>
	<path id="Fill-268" class="st17" d="M261.75,14.39c0.68-5.85-3.83-10.99-9.72-11.08c-5.05-0.07-9.4,3.75-9.98,8.76
		c-0.68,5.85,3.83,10.99,9.72,11.08C256.82,23.22,261.17,19.4,261.75,14.39"/>
	<path id="Fill-270" class="st18" d="M255.29,1.07c8.09,2.47,13.44,8.71,13.29,14.54c-0.16,5.88-3.01,11.53-3.01,11.53
		c-0.51,0.58-1.03,1.05-1.54,1.43c-4.03,3.04-8.62,4.69-10.39,4.32c0.82-1.55,1.08-5.58,1.89-7.14l3.74-9.86l-3.5-11.2l-6.08-4.28
		C249.7,0.42,253.96,0.67,255.29,1.07"/>
	<path id="Fill-272" class="st25" d="M246.79,41.8c-0.14,0-0.27-0.08-0.34-0.21c-0.23-0.44-0.37-0.9-0.42-1.37
		c-0.14-1.2,0.34-2.01,0.77-2.72c0.34-0.56,0.63-1.05,0.64-1.68c0.01-0.81-0.47-1.33-0.98-1.88c-0.53-0.57-1.13-1.22-1.11-2.22
		c0.03-1.2,0.97-2.37,2.79-3.48c0.18-0.11,0.42-0.05,0.53,0.13c0.11,0.18,0.05,0.42-0.13,0.53c-1.58,0.96-2.4,1.92-2.42,2.84
		c-0.02,0.69,0.41,1.15,0.9,1.68c0.56,0.61,1.2,1.29,1.19,2.41c-0.01,0.85-0.38,1.47-0.75,2.07c-0.4,0.66-0.78,1.29-0.67,2.23
		c0.04,0.38,0.16,0.75,0.34,1.11c0.1,0.19,0.02,0.42-0.17,0.52C246.91,41.78,246.85,41.8,246.79,41.8"/>
	<path id="Fill-274" class="st15" d="M258.15,11.07c0.02-0.12,0.03-0.24,0.03-0.36c0-0.97-0.72-1.78-1.65-1.92
		c0.13-0.26,0.2-0.55,0.2-0.86c0-0.71-0.38-1.34-0.96-1.67c0.01-0.09,0.02-0.18,0.02-0.27c0-1.01-0.77-1.84-1.76-1.94
		c-0.25-0.78-0.99-1.34-1.85-1.34c-0.36,0-0.7,0.1-0.99,0.27c-0.34-0.28-0.77-0.45-1.25-0.45c-0.47,0-0.89,0.16-1.23,0.44
		c-0.13-0.03-0.26-0.04-0.4-0.04c-1.08,0-1.95,0.87-1.95,1.95c0,0,0,0,0,0c-0.03,0-0.05,0-0.08,0c-1.08,0-1.95,0.87-1.95,1.95
		c0,0,0,0.01,0,0.01c-0.07-0.01-0.14-0.01-0.21-0.01c-1.08,0-1.95,0.87-1.95,1.95c0,1.08,0.87,1.95,1.95,1.95
		c0.4,0,0.77-0.12,1.08-0.33c0.29,0.72,0.99,1.23,1.81,1.23c0.59,0,1.12-0.26,1.48-0.68c0.31,0.67,0.98,1.14,1.77,1.14
		c0.53,0,1.01-0.21,1.36-0.56c0.35,0.52,0.94,0.85,1.61,0.85c0.25,0,0.49-0.05,0.71-0.14c-0.07,0.2-0.11,0.42-0.11,0.64
		c0,1.07,0.88,1.95,1.95,1.95c0.29,0,0.56-0.07,0.81-0.18c0.25,0.11,0.52,0.18,0.81,0.18c1.08,0,1.95-0.87,1.95-1.95
		C259.37,12.06,258.86,11.36,258.15,11.07"/>
	<path id="Fill-276" class="st5" d="M251.9,26.47c3.62-1.16,7.76-10.06,4.7-17.49c-3.06-7.43-6.46-7.31-6.9-7.29
		c-0.45,0.02-0.51-1.27,0-1.28c0.51-0.01,3.68-0.03,6.12,2.89c3.57,4.27,7.44,15.47,0.78,26.41
		C251.19,38.61,251.9,26.47,251.9,26.47"/>
	<path id="Fill-278" class="st25" d="M252.57,43.45c-0.09-0.01-0.17-0.05-0.23-0.12c-0.14-0.16-0.14-0.4,0.02-0.54
		c1.72-1.6,2.46-2.97,2.2-4.06c-0.13-0.57-0.51-0.9-0.99-1.32c-0.35-0.31-0.75-0.66-1.1-1.16c-1.17-1.67-1.19-4.19-0.04-7.49
		c0.07-0.2,0.29-0.31,0.49-0.24c0.2,0.07,0.31,0.29,0.24,0.49c-1.06,3.06-1.08,5.34-0.05,6.8c0.3,0.42,0.64,0.73,0.98,1.02
		c0.51,0.45,1.04,0.91,1.23,1.73c0.32,1.38-0.49,2.99-2.42,4.8C252.8,43.44,252.68,43.47,252.57,43.45"/>
	<path id="Fill-280" class="st14" d="M270.7,27.28c1.03,0.9,1.55,2.55,1.55,2.55s-7.52,1.46-10.42,11.96
		c-2.9,10.5,3.8,23.64,7.97,25.88c1.92,1.03,1.4,0.75,1.4,0.75l-0.1,2.49c0,0-0.43,1.27-4.93-2.09c-4.5-3.35-11.12-20.66-6.79-31.02
		C263.69,27.45,270.7,27.28,270.7,27.28"/>
	<path id="Fill-282" class="st4" d="M274.84,92.87c-2.13,0-4-1.56-4.32-3.73c-0.27-1.78-6.58-43.75-7.08-48.53
		c-0.26-2.4,1.49-4.56,3.89-4.82c2.4-0.25,4.56,1.49,4.82,3.89c0.39,3.68,4.77,33.11,7.04,48.15c0.36,2.39-1.29,4.62-3.68,4.98
		C275.27,92.86,275.05,92.87,274.84,92.87"/>
	<path id="Fill-284" class="st21" d="M238.43,152.89c-0.03,0-0.05,0-0.08-0.01c-0.29-0.04-0.5-0.31-0.46-0.61
		c0.31-2.19,1.01-5.23,1.02-5.26c0.07-0.29,0.35-0.47,0.64-0.4c0.29,0.07,0.47,0.35,0.4,0.64c-0.01,0.03-0.69,3.03-1,5.17
		C238.92,152.7,238.69,152.89,238.43,152.89"/>
	<path id="Fill-286" class="st21" d="M242.17,150.98c-0.07,0-0.13-0.01-0.2-0.04l-5.07-2.01c-0.28-0.11-0.41-0.42-0.3-0.7
		c0.11-0.28,0.42-0.41,0.7-0.3l5.07,2.01c0.28,0.11,0.41,0.42,0.3,0.7C242.58,150.85,242.38,150.98,242.17,150.98"/>
	<path id="Fill-288" class="st21" d="M259.26,168.91c-0.19,0-0.37-0.1-0.47-0.28l-3.14-5.67c-0.14-0.26-0.05-0.59,0.21-0.73
		s0.59-0.05,0.73,0.21l3.14,5.67c0.14,0.26,0.05,0.59-0.21,0.73C259.43,168.89,259.35,168.91,259.26,168.91"/>
	<path id="Fill-290" class="st21" d="M254.47,166.59c-0.26,0-0.48-0.18-0.53-0.45c-0.05-0.29,0.15-0.57,0.44-0.62l6.71-1.15
		c0.29-0.05,0.57,0.15,0.62,0.44c0.05,0.29-0.15,0.57-0.44,0.62l-6.71,1.15C254.53,166.58,254.5,166.59,254.47,166.59"/>
</g>
<g id="Group-45" transform="translate(233.000000, 0.000000)">
	<path id="Age-_x3D_-21" class="st11" d="M3.29,7.29c0,0.23-0.54,0.5-1.61,0.8c0.1,1.27,0.15,2.34,0.15,3.23
		c0,1.53-0.19,2.3-0.58,2.3c-0.21,0-0.37-0.13-0.49-0.38s-0.22-0.7-0.29-1.33C0.38,10.75,0.29,9.6,0.19,8.48
		c-0.55,0.15-1.05,0.28-1.5,0.39c-0.45,0.12-1.13,0.3-2.05,0.56c-1.07,2.8-1.7,4.2-1.9,4.2s-0.4-0.12-0.63-0.36
		c-0.23-0.24-0.34-0.49-0.34-0.76c0-0.12,0.35-0.99,1.04-2.59h-0.13c-0.24,0-0.46-0.08-0.65-0.24s-0.28-0.36-0.28-0.59
		s0.6-0.55,1.81-0.94c0.19-0.44,0.35-0.83,0.47-1.19c0.28-0.69,0.67-1.64,1.17-2.85s0.82-1.98,0.95-2.31
		c0.13-0.33,0.37-0.62,0.7-0.86c0.33-0.24,0.66-0.36,0.98-0.36c0.38,0,0.72,0.6,1.01,1.81c0.3,1.21,0.54,2.7,0.72,4.47
		c0.34-0.04,0.64-0.05,0.89-0.05C3.02,6.82,3.29,6.98,3.29,7.29z M-2.68,7.68c0.86-0.23,1.78-0.43,2.74-0.58
		C-0.16,5.01-0.37,3.45-0.58,2.4C-1.13,3.65-1.83,5.41-2.68,7.68z M11.89,8.72c0,0.49-0.21,1.04-0.64,1.66
		c-0.33,0.74-0.68,1.81-1.06,3.2c-0.38,1.39-0.69,2.39-0.95,2.99c-0.51,1.24-1.3,1.86-2.36,1.86c-0.86,0-1.59-0.23-2.18-0.7
		c-0.59-0.47-0.89-0.93-0.89-1.4c0-0.19,0.06-0.39,0.17-0.58c0.12-0.19,0.24-0.29,0.37-0.29s0.27,0.09,0.43,0.27
		c0.16,0.18,0.31,0.38,0.45,0.59c0.14,0.21,0.35,0.41,0.64,0.59c0.29,0.18,0.56,0.27,0.83,0.27s0.47-0.04,0.6-0.12
		s0.26-0.21,0.38-0.38S7.92,16.34,8,16.16c0.09-0.18,0.18-0.43,0.28-0.75c0.1-0.32,0.19-0.6,0.25-0.83
		c0.06-0.23,0.15-0.56,0.26-0.98c0.11-0.42,0.2-0.76,0.27-1.01c-0.95,0.71-1.72,1.06-2.32,1.06s-1.11-0.24-1.55-0.72
		c-0.44-0.48-0.66-1.04-0.66-1.68S4.78,9.76,5.26,8.7C5.74,7.64,6.39,6.69,7.2,5.85c0.82-0.84,1.61-1.26,2.39-1.26
		c0.5,0,0.92,0.19,1.26,0.57c0.56,0.62,0.84,1.5,0.84,2.65c0,0.15-0.01,0.25-0.02,0.31C11.82,8.32,11.89,8.52,11.89,8.72z
		 M6.01,11.44c0,0.21,0.07,0.37,0.2,0.5s0.3,0.19,0.51,0.19c0.61,0,1.33-0.36,2.15-1.09c0.83-0.72,1.41-1.57,1.75-2.53
		c-0.05-0.16-0.09-0.4-0.13-0.73C10.47,7.46,10.43,7.2,10.4,7c-0.04-0.19-0.12-0.39-0.24-0.59c-0.12-0.2-0.28-0.3-0.47-0.3
		c-0.47,0-1.01,0.34-1.61,1.02S6.99,8.57,6.6,9.41S6.01,10.93,6.01,11.44z M20.62,7.62c0,0.65-0.35,1.17-1.05,1.58
		c-0.7,0.41-1.49,0.61-2.37,0.61s-1.68-0.1-2.4-0.29c-0.17,0.54-0.26,1.01-0.26,1.43s0.13,0.75,0.39,0.98
		c0.26,0.23,0.69,0.35,1.3,0.35c0.6,0,1.22-0.11,1.86-0.32s0.99-0.32,1.05-0.32c0.32,0,0.47,0.12,0.47,0.37
		c0,0.33-0.37,0.68-1.11,1.07s-1.47,0.58-2.17,0.58c-0.95,0-1.72-0.28-2.32-0.85c-0.6-0.57-0.89-1.28-0.89-2.15s0.23-1.77,0.69-2.71
		s1.06-1.74,1.79-2.38s1.45-0.97,2.17-0.97s1.37,0.34,1.96,1.02C20.33,6.3,20.62,6.97,20.62,7.62z M17.87,6.03
		c-0.45,0-0.92,0.23-1.41,0.7c-0.49,0.47-0.9,1.05-1.24,1.74c0.49,0.11,1.04,0.16,1.66,0.16c0.62,0,1.16-0.1,1.63-0.3
		c0.46-0.2,0.69-0.47,0.69-0.79c0-0.33-0.15-0.66-0.45-1C18.45,6.2,18.16,6.03,17.87,6.03z M36.68,9.54c0-0.21,1.16-0.44,3.47-0.71
		c2.31-0.27,3.87-0.4,4.68-0.4c0.81,0,1.21,0.15,1.21,0.46c0,0.45-1.42,0.86-4.26,1.24c-2.05,0.26-3.52,0.38-4.42,0.38
		c-0.16-0.01-0.31-0.14-0.47-0.37S36.68,9.7,36.68,9.54z M37.26,5.96c0.01-0.26,0.96-0.48,2.84-0.68c1.88-0.19,3.42-0.29,4.63-0.29
		s1.81,0.19,1.81,0.57c0,0.21-0.26,0.37-0.79,0.49s-1.79,0.3-3.79,0.53s-3.32,0.35-3.98,0.35c-0.16,0-0.32-0.12-0.47-0.36
		C37.34,6.34,37.26,6.13,37.26,5.96z M58.7,11.82c0.95-0.15,1.78-0.27,2.49-0.37s1.24-0.15,1.57-0.15c0.33,0,0.59,0.03,0.77,0.08
		c0.18,0.05,0.26,0.17,0.26,0.34c0,0.34-0.92,0.73-2.75,1.16c-1.83,0.43-3.17,0.65-4.03,0.65c-0.38,0-0.77-0.17-1.18-0.5
		s-0.61-0.68-0.61-1.05c0-0.29,0.58-0.88,1.75-1.75c1.1-0.8,2.17-1.74,3.23-2.81c0.5-0.51,0.92-1.07,1.25-1.69
		c0.33-0.61,0.5-1.18,0.5-1.7s-0.12-0.92-0.35-1.21c-0.23-0.29-0.55-0.44-0.95-0.44s-0.78,0.12-1.13,0.37s-0.64,0.48-0.86,0.72
		c-0.22,0.24-0.36,0.36-0.42,0.36c-0.21,0-0.45-0.09-0.73-0.27C57.25,3.37,57.11,3.19,57.11,3c0-0.45,0.37-0.95,1.12-1.5
		c0.75-0.55,1.55-0.82,2.4-0.82s1.56,0.3,2.13,0.9s0.85,1.35,0.85,2.24c0,2.63-2.25,5.39-6.76,8.27
		C57.15,12.06,57.76,11.97,58.7,11.82z M70.04,2.03c0,1.3-0.31,3.18-0.93,5.62c-0.13,0.49-0.29,1.09-0.46,1.81
		c-0.17,0.72-0.31,1.29-0.42,1.73c-0.11,0.43-0.23,0.87-0.37,1.31c-0.24,0.86-0.48,1.3-0.71,1.3c-0.17,0-0.35-0.12-0.54-0.37
		c-0.19-0.24-0.28-0.5-0.28-0.76s0.13-0.89,0.39-1.89s0.56-2.36,0.89-4.09c0.33-1.73,0.55-3.55,0.68-5.46
		c0.04-0.38,0.18-0.57,0.42-0.57c0.27,0,0.56,0.17,0.87,0.51S70.04,1.8,70.04,2.03z"/>
	<path id="Fill-1_2_" class="st11" d="M48.85,18.91c13.52,1.69,12.43,0.42,21.53,0.32c0.88-0.29,0.23-0.7,0.91-1.38
		c-11.36,0-9.64,0.79-20.53-0.78C49.88,17.58,49.93,18.37,48.85,18.91z"/>
	
		<g id="Group-3_2_" transform="translate(51.733348, 41.086801) scale(1, -1) translate(-51.733348, -41.086801) translate(37.733348, 26.586801)">
		<path id="Fill-1_3_" class="st11" d="M20.16,2.08C16.88,1.62,13.22,1.7,10.27,0c0.1,0.06,0.2,0.61,0.24,0.72
			c0.04,0.12,0.14,0.64,0.25,0.71c1.44,0.83,3.05,1.24,4.7,1.49C10.75,4.2,5.91,5.44,1.74,8.02c-2.31,1.43-4.28,3.36-5.65,5.71
			c-1.68,2.88-2.3,6.25-2.43,9.54c-0.06,1.51-0.01,3.13,0.16,4.76c0.01,0.11,0,0.22,0.04,0.34c0.72-0.54,1.1-0.46,1.35-0.76
			c0-0.16-0.03-0.25-0.04-0.38c-0.6-5.98,0.42-12.62,4.75-17.04c4.08-4.17,9.98-5.78,15.55-7.28c1.06,0.16,2.14,0.26,3.2,0.36
			c-1.56,1.35-2.99,2.87-4.24,4.52c-0.07,0.1,0.1,0.43,0.26,0.76c0.08,0.22,0.15,0.45,0.23,0.67c0.48-0.42,1.08-0.62,1.56-1.04
			c0.07-0.06-0.05-0.33-0.2-0.63c1.31-1.49,2.77-2.85,4.36-4.05C20.67,3.49,20.22,2.09,20.16,2.08z"/>
	</g>
</g>
<g id="Group-44" transform="translate(307.000000, 244.000000)">
	<path id="Hair-color-_x3D_-Indigo" class="st11" d="M-5.08,45.05c-0.13,0-0.31-0.15-0.54-0.45c-0.23-0.3-0.34-0.58-0.33-0.84
		c0-0.26,0.27-1.34,0.78-3.22c-0.14-0.06-0.26-0.16-0.37-0.3c-0.1-0.14-0.15-0.3-0.15-0.47c0-0.14,0.29-0.3,0.87-0.46
		c0.79-2.87,1.19-4.65,1.2-5.34c0-0.19,0.03-0.32,0.08-0.39c0.05-0.07,0.15-0.1,0.3-0.1c0.15,0,0.34,0.18,0.58,0.52
		c0.24,0.35,0.36,0.73,0.35,1.15c-0.01,0.42-0.3,1.69-0.87,3.8c1.46-0.27,2.88-0.44,4.28-0.5c0.6-2.28,0.91-3.74,0.92-4.39
		c0.01-0.33,0.12-0.49,0.34-0.49c0.19,0,0.4,0.18,0.65,0.52c0.25,0.35,0.37,0.7,0.36,1.07c-0.01,0.37-0.27,1.48-0.8,3.34
		c0.5,0.09,0.75,0.24,0.75,0.47c0,0.23-0.35,0.4-1.03,0.53c-0.37,1.29-0.63,2.19-0.76,2.68c-0.14,0.5-0.24,0.9-0.33,1.19
		s-0.17,0.59-0.26,0.89c-0.16,0.58-0.31,0.87-0.43,0.87c-0.15,0-0.33-0.14-0.53-0.4s-0.3-0.53-0.29-0.81s0.36-1.68,1.06-4.22
		c-1.61,0.19-3.06,0.42-4.35,0.68c-0.16,0.57-0.32,1.12-0.47,1.65S-4.32,43-4.4,43.29c-0.08,0.3-0.17,0.59-0.26,0.89
		C-4.83,44.76-4.97,45.05-5.08,45.05z M9.04,37.14c0.49,0.01,0.95,0.27,1.36,0.77c0.41,0.51,0.61,0.96,0.6,1.36
		c-0.01,0.4-0.15,0.81-0.43,1.22c0.13,0.17,0.19,0.31,0.19,0.43c-0.01,0.31-0.08,0.83-0.23,1.58c-0.15,0.75-0.24,1.23-0.27,1.46
		c-0.03,0.23-0.06,0.41-0.08,0.55c-0.02,0.14-0.05,0.27-0.09,0.4c-0.05,0.27-0.15,0.41-0.3,0.41c-0.2,0-0.36-0.18-0.48-0.53
		s-0.19-0.8-0.2-1.35c-1,1.23-1.92,1.83-2.75,1.82c-0.51-0.01-1-0.23-1.48-0.68c-0.48-0.44-0.72-0.9-0.71-1.36
		c0.01-0.66,0.27-1.47,0.77-2.44c0.5-0.96,1.14-1.82,1.93-2.57C7.62,37.5,8.36,37.13,9.04,37.14z M9.75,40.06
		c0.02-1.02-0.18-1.54-0.58-1.54c-0.43-0.01-0.93,0.29-1.52,0.89s-1.08,1.28-1.49,2.04c-0.41,0.76-0.62,1.37-0.63,1.82
		c0,0.19,0.07,0.34,0.22,0.46c0.15,0.12,0.33,0.18,0.54,0.18c0.52,0.01,1.11-0.33,1.77-1.02c0.66-0.69,1.13-1.53,1.4-2.52
		c0.04-0.16,0.13-0.26,0.29-0.29L9.75,40.06z M14.54,34.9c0-0.22,0.1-0.43,0.27-0.62c0.18-0.19,0.36-0.29,0.54-0.29
		s0.39,0.23,0.64,0.68c0.25,0.45,0.37,0.82,0.36,1.12c0,0.11-0.05,0.21-0.15,0.29c-0.1,0.09-0.21,0.13-0.32,0.13
		c-0.26,0-0.56-0.17-0.87-0.49C14.69,35.39,14.54,35.12,14.54,34.9z M14.42,37.24c0.21,0,0.4,0.13,0.59,0.39
		c0.18,0.26,0.27,0.51,0.27,0.75s-0.18,0.96-0.52,2.16c-0.34,1.2-0.76,2.54-1.27,4.03c-0.2,0.55-0.44,0.82-0.72,0.81
		c-0.15,0-0.28-0.07-0.39-0.2c-0.11-0.13-0.16-0.27-0.16-0.43c0-0.16,0.05-0.41,0.14-0.76c0.09-0.34,0.22-0.8,0.39-1.38
		c0.17-0.57,0.3-1.04,0.4-1.4c0.1-0.36,0.2-0.77,0.31-1.22c0.11-0.45,0.19-0.82,0.26-1.1c0.07-0.28,0.14-0.56,0.22-0.85
		C14.09,37.5,14.25,37.23,14.42,37.24z M17.27,39.3l-0.03-1.24c0.01-0.52,0.13-0.77,0.38-0.77c0.21,0,0.41,0.14,0.6,0.41
		c0.19,0.27,0.28,0.59,0.27,0.96c-0.01,0.37-0.02,0.65-0.05,0.83c0.98-1.43,1.9-2.14,2.76-2.13c0.54,0.01,0.81,0.15,0.8,0.41
		c0,0.13-0.06,0.25-0.19,0.36s-0.32,0.23-0.58,0.37c-0.59,0.24-1.09,0.62-1.5,1.14c-0.41,0.52-0.75,1.1-1.01,1.76
		c-0.26,0.66-0.47,1.21-0.63,1.66c-0.16,0.45-0.28,0.8-0.36,1.05s-0.17,0.5-0.28,0.74c-0.18,0.44-0.39,0.65-0.62,0.65
		c-0.19,0-0.34-0.11-0.45-0.33c-0.11-0.22-0.17-0.43-0.16-0.63s0.1-0.61,0.3-1.21C17,41.95,17.24,40.61,17.27,39.3z M30.9,45.71
		c-0.64-0.01-1.23-0.27-1.78-0.78c-0.55-0.51-0.82-1.11-0.81-1.8c0.01-0.69,0.26-1.48,0.73-2.37s1.09-1.65,1.83-2.28
		c0.74-0.63,1.46-0.93,2.15-0.92c0.45,0.01,0.84,0.22,1.18,0.63c0.33,0.41,0.5,0.77,0.49,1.08c0,0.09-0.03,0.16-0.09,0.22
		c-0.06,0.06-0.14,0.09-0.24,0.09c-0.1,0-0.29-0.1-0.55-0.31c-0.26-0.2-0.5-0.31-0.7-0.31c-0.59-0.01-1.3,0.5-2.11,1.53
		c-0.81,1.03-1.22,1.94-1.24,2.72c-0.01,0.34,0.1,0.61,0.31,0.81c0.21,0.2,0.56,0.31,1.03,0.32c0.48,0.01,0.92-0.04,1.32-0.15
		c0.4-0.11,0.72-0.22,0.94-0.33c0.22-0.11,0.39-0.17,0.51-0.16c0.21,0,0.31,0.11,0.31,0.32c-0.01,0.32-0.39,0.68-1.17,1.09
		C32.26,45.52,31.55,45.72,30.9,45.71z M40.66,40.5c0.01-0.37-0.05-0.73-0.16-1.07c-0.12-0.34-0.29-0.59-0.52-0.74
		c-0.76,0.2-1.42,0.77-1.99,1.72c-0.56,0.95-0.85,1.85-0.86,2.7c-0.01,0.85,0.18,1.38,0.6,1.59c0.79-0.14,1.48-0.67,2.05-1.59
		C40.35,42.2,40.65,41.32,40.66,40.5z M36.32,40.57c0.4-0.85,0.92-1.55,1.55-2.09c0.63-0.54,1.27-0.81,1.93-0.8
		c0.65,0.01,1.2,0.3,1.63,0.86s0.64,1.24,0.62,2.04c-0.01,0.8-0.22,1.61-0.62,2.43c-0.4,0.82-0.94,1.5-1.63,2.03
		c-0.69,0.53-1.41,0.79-2.17,0.78c-0.56-0.01-1.02-0.28-1.39-0.8c-0.36-0.52-0.54-1.18-0.53-1.98
		C35.73,42.25,35.93,41.42,36.32,40.57z M46.51,34.56c-0.04,2.07-0.51,4.74-1.43,8.03c-0.59,2.23-0.99,3.35-1.21,3.34
		c-0.15,0-0.33-0.13-0.53-0.37c-0.2-0.25-0.3-0.43-0.3-0.57c0-0.13,0.17-0.81,0.51-2.04c0.34-1.23,0.69-2.74,1.04-4.53
		c0.35-1.79,0.54-3.41,0.56-4.85c0-0.15,0.03-0.26,0.07-0.33c0.05-0.07,0.14-0.1,0.28-0.09c0.14,0,0.35,0.16,0.61,0.48
		C46.38,33.96,46.51,34.27,46.51,34.56z M52.17,40.7c0.01-0.37-0.05-0.73-0.16-1.07c-0.12-0.34-0.29-0.59-0.52-0.74
		c-0.76,0.2-1.42,0.77-1.99,1.72c-0.56,0.95-0.85,1.85-0.86,2.7c-0.01,0.85,0.18,1.38,0.6,1.59c0.79-0.14,1.48-0.67,2.05-1.59
		C51.87,42.4,52.16,41.53,52.17,40.7z M47.83,40.77c0.4-0.85,0.92-1.55,1.55-2.09c0.63-0.54,1.27-0.81,1.93-0.8
		c0.65,0.01,1.2,0.3,1.63,0.86s0.64,1.24,0.62,2.04c-0.01,0.8-0.22,1.61-0.62,2.43c-0.4,0.82-0.94,1.5-1.63,2.03
		c-0.69,0.53-1.41,0.79-2.17,0.78c-0.56-0.01-1.02-0.28-1.39-0.8c-0.36-0.52-0.54-1.18-0.53-1.98
		C47.24,42.45,47.44,41.62,47.83,40.77z M55.67,39.97l-0.03-1.24c0.01-0.52,0.13-0.77,0.38-0.77c0.21,0,0.41,0.14,0.6,0.41
		c0.19,0.27,0.28,0.59,0.27,0.96c-0.01,0.37-0.02,0.65-0.05,0.83c0.98-1.43,1.9-2.14,2.76-2.13c0.54,0.01,0.81,0.15,0.8,0.41
		c0,0.13-0.06,0.25-0.19,0.36c-0.12,0.11-0.32,0.23-0.58,0.37c-0.59,0.24-1.09,0.62-1.5,1.14s-0.75,1.1-1.01,1.76
		c-0.26,0.66-0.47,1.21-0.63,1.66s-0.28,0.8-0.36,1.05c-0.08,0.25-0.17,0.5-0.28,0.74c-0.18,0.44-0.39,0.65-0.62,0.65
		c-0.19,0-0.34-0.11-0.45-0.33c-0.11-0.22-0.17-0.43-0.16-0.63c0-0.2,0.1-0.61,0.3-1.21C55.4,42.62,55.65,41.28,55.67,39.97z
		 M67.14,42.63c0-0.19,1.05-0.38,3.15-0.59c2.09-0.21,3.51-0.3,4.24-0.29c0.73,0.01,1.09,0.16,1.09,0.43
		c-0.01,0.41-1.29,0.76-3.86,1.05c-1.85,0.2-3.18,0.29-4,0.28c-0.14-0.01-0.28-0.13-0.41-0.35C67.2,42.95,67.14,42.77,67.14,42.63z
		 M67.72,39.4c0.02-0.23,0.87-0.42,2.58-0.57c1.7-0.15,3.1-0.21,4.19-0.19c1.09,0.02,1.63,0.2,1.62,0.54c0,0.19-0.25,0.33-0.73,0.43
		c-0.48,0.1-1.62,0.24-3.43,0.42c-1.81,0.18-3.01,0.26-3.6,0.25c-0.14,0-0.28-0.11-0.42-0.33C67.79,39.74,67.72,39.56,67.72,39.4z
		 M85.12,46.59c-0.13,0-0.3-0.14-0.51-0.4c-0.21-0.27-0.31-0.51-0.31-0.73c0-0.22,0.36-1.75,1.06-4.59c0.7-2.84,1.07-4.6,1.09-5.29
		c0-0.19,0.03-0.32,0.08-0.39c0.05-0.07,0.16-0.1,0.32-0.1c0.16,0,0.37,0.18,0.62,0.52c0.25,0.35,0.38,0.71,0.37,1.1
		c-0.01,0.39-0.43,2.19-1.28,5.4c-0.08,0.3-0.19,0.72-0.34,1.27c-0.14,0.55-0.25,0.98-0.34,1.27s-0.17,0.62-0.26,0.97
		C85.42,46.27,85.25,46.59,85.12,46.59z M90.45,43.88c1.09-1.77,1.97-3.09,2.65-3.96s1.23-1.29,1.66-1.28s0.82,0.24,1.19,0.7
		c0.37,0.46,0.55,0.94,0.54,1.45c-0.01,0.79-0.21,1.76-0.6,2.89c-0.7,2.1-1.31,3.15-1.84,3.14c-0.24,0-0.36-0.17-0.35-0.5
		c0-0.23,0.13-0.7,0.38-1.4s0.48-1.4,0.7-2.08c0.22-0.68,0.33-1.2,0.33-1.55c0.01-0.35-0.04-0.6-0.14-0.77
		c-0.1-0.17-0.2-0.25-0.31-0.25s-0.21,0.03-0.32,0.09s-0.24,0.17-0.38,0.32c-0.14,0.15-0.27,0.3-0.4,0.45
		c-0.12,0.15-0.28,0.36-0.46,0.63c-0.19,0.27-0.34,0.5-0.47,0.69c-0.12,0.19-0.31,0.46-0.54,0.82c-0.24,0.36-0.42,0.63-0.54,0.82
		s-0.29,0.43-0.49,0.75c-0.2,0.32-0.36,0.56-0.48,0.73s-0.25,0.36-0.4,0.57c-0.28,0.4-0.5,0.6-0.66,0.6c-0.16,0-0.34-0.13-0.55-0.38
		c-0.2-0.25-0.31-0.47-0.3-0.66c0-0.05,0.04-0.2,0.12-0.44c0.22-0.63,0.46-1.42,0.73-2.35c0.27-0.94,0.43-2,0.47-3.2
		c0.05-0.8,0.17-1.2,0.37-1.2c0.24,0,0.48,0.13,0.72,0.39c0.24,0.26,0.35,0.54,0.35,0.84c-0.01,0.3-0.11,0.88-0.3,1.74
		C90.93,42.33,90.7,43.13,90.45,43.88z M104.86,34.2c0.18,0,0.39,0.17,0.64,0.5c0.25,0.33,0.38,0.64,0.37,0.92
		c0,0.29-0.16,1.09-0.45,2.43c-0.3,1.33-0.64,2.71-1.03,4.13c-0.85,3.2-1.4,4.79-1.65,4.79c-0.15,0-0.32-0.1-0.5-0.3
		c-0.18-0.2-0.27-0.36-0.26-0.51c0-0.14,0.05-0.43,0.13-0.86c-1.1,1.08-2.05,1.61-2.85,1.6c-0.48-0.01-0.92-0.24-1.3-0.68
		c-0.38-0.45-0.57-0.91-0.56-1.38c0.01-0.68,0.21-1.49,0.6-2.42c0.38-0.93,0.93-1.78,1.64-2.54c0.71-0.76,1.45-1.13,2.23-1.12
		c0.78,0.01,1.32,0.49,1.61,1.43c0.6-2.32,0.94-4.16,1.02-5.51C104.49,34.35,104.61,34.19,104.86,34.2z M102.9,42.26
		c0.01-0.59-0.08-1.1-0.28-1.51c-0.2-0.41-0.44-0.62-0.72-0.62c-0.47-0.01-0.96,0.27-1.47,0.85c-0.51,0.57-0.91,1.24-1.21,1.98
		c-0.3,0.75-0.46,1.4-0.47,1.95c0,0.2,0.07,0.36,0.21,0.48c0.14,0.12,0.31,0.19,0.51,0.19c0.43,0.01,1.01-0.29,1.76-0.89
		c0.74-0.6,1.29-1.32,1.63-2.15l0.05-0.2L102.9,42.26z M108.1,36.53c0-0.22,0.1-0.43,0.27-0.62c0.18-0.19,0.36-0.29,0.54-0.29
		c0.18,0,0.39,0.23,0.64,0.68c0.25,0.45,0.37,0.82,0.36,1.12c0,0.11-0.05,0.21-0.15,0.29c-0.1,0.09-0.21,0.13-0.32,0.13
		c-0.26,0-0.56-0.17-0.87-0.49C108.25,37.02,108.1,36.75,108.1,36.53z M107.98,38.87c0.21,0,0.4,0.13,0.59,0.39
		c0.18,0.26,0.27,0.51,0.27,0.75c0,0.24-0.18,0.96-0.52,2.16c-0.34,1.2-0.76,2.54-1.27,4.03c-0.2,0.55-0.44,0.82-0.72,0.81
		c-0.15,0-0.28-0.07-0.39-0.2c-0.11-0.13-0.16-0.27-0.16-0.43c0-0.16,0.05-0.41,0.14-0.76s0.22-0.8,0.39-1.38
		c0.17-0.57,0.3-1.04,0.4-1.4s0.2-0.77,0.31-1.22c0.11-0.45,0.19-0.82,0.26-1.1c0.07-0.28,0.14-0.56,0.22-0.85
		C107.65,39.13,107.81,38.87,107.98,38.87z M116.34,42.74c-0.01,0.44-0.21,0.94-0.6,1.49c-0.31,0.67-0.64,1.63-1.01,2.88
		s-0.66,2.15-0.9,2.68c-0.48,1.11-1.2,1.66-2.16,1.65c-0.78-0.01-1.43-0.24-1.96-0.67c-0.53-0.43-0.79-0.86-0.78-1.28
		c0-0.18,0.06-0.35,0.17-0.53c0.11-0.17,0.22-0.26,0.33-0.26c0.12,0,0.24,0.09,0.38,0.25c0.14,0.17,0.27,0.35,0.39,0.54
		c0.12,0.19,0.31,0.38,0.57,0.55c0.26,0.17,0.5,0.26,0.75,0.26s0.42-0.03,0.55-0.1c0.12-0.07,0.24-0.18,0.35-0.34
		c0.11-0.16,0.21-0.32,0.29-0.47c0.08-0.16,0.17-0.38,0.27-0.67c0.1-0.29,0.18-0.54,0.24-0.75c0.06-0.21,0.14-0.5,0.25-0.88
		s0.19-0.68,0.26-0.91c-0.87,0.62-1.57,0.93-2.11,0.92c-0.54-0.01-1-0.23-1.39-0.68s-0.58-0.95-0.57-1.53
		c0.01-0.58,0.24-1.34,0.69-2.29c0.45-0.95,1.05-1.8,1.8-2.54c0.75-0.75,1.48-1.11,2.18-1.1c0.45,0.01,0.83,0.18,1.13,0.53
		c0.5,0.57,0.74,1.37,0.72,2.41c0,0.13-0.01,0.23-0.02,0.28C116.28,42.39,116.34,42.57,116.34,42.74z M110.99,45.11
		c0,0.19,0.05,0.34,0.17,0.46c0.12,0.12,0.27,0.18,0.46,0.18c0.55,0.01,1.2-0.31,1.96-0.95s1.3-1.39,1.62-2.26
		c-0.04-0.14-0.08-0.36-0.1-0.66c-0.03-0.3-0.06-0.53-0.09-0.71c-0.03-0.18-0.1-0.36-0.21-0.54c-0.11-0.18-0.25-0.28-0.42-0.28
		c-0.43-0.01-0.92,0.29-1.47,0.9c-0.55,0.61-1.01,1.29-1.37,2.04C111.18,44.04,110.99,44.65,110.99,45.11z M122.64,41.93
		c0.01-0.37-0.05-0.73-0.16-1.07s-0.29-0.59-0.52-0.74c-0.76,0.2-1.42,0.77-1.99,1.72c-0.56,0.95-0.85,1.85-0.86,2.7
		c-0.01,0.85,0.18,1.38,0.6,1.59c0.79-0.14,1.48-0.67,2.05-1.59C122.33,43.63,122.63,42.76,122.64,41.93z M118.3,42
		c0.4-0.85,0.92-1.55,1.55-2.09c0.63-0.54,1.27-0.81,1.93-0.8c0.65,0.01,1.2,0.3,1.63,0.86c0.43,0.56,0.64,1.24,0.62,2.04
		s-0.22,1.61-0.62,2.43c-0.4,0.82-0.94,1.5-1.63,2.03s-1.41,0.79-2.17,0.78c-0.56-0.01-1.02-0.28-1.39-0.8
		c-0.36-0.52-0.54-1.18-0.53-1.98C117.71,43.68,117.91,42.85,118.3,42z"/>
	<path id="Fill-1-Copy" class="st11" d="M80.42,54.38c15.62,2.51,33.53,0.56,44.11,1.01c1.04-0.24,0.3-0.69,1.13-1.32
		c-13.2-0.69-30.36,0.82-42.93-1.4C81.69,53.11,81.7,53.9,80.42,54.38z"/>
	
		<g id="Group-3-Copy" transform="translate(148.500000, 19.573177) scale(-1, -1) translate(-148.500000, -19.573177) translate(129.000000, 0.573177)">
		<path id="Fill-1_4_" class="st11" d="M21.83,36.22c-1.99-2.64-3.69-5.89-6.61-7.63c0.1,0.06,0.63-0.12,0.74-0.14
			c0.12-0.02,0.63-0.19,0.74-0.12c1.43,0.85,2.56,2.06,3.58,3.39c-1.16-4.75-2.42-9.58-2.18-14.48c0.13-2.72,0.86-5.37,2.26-7.71
			c1.71-2.86,4.35-5.04,7.17-6.75c1.3-0.78,2.73-1.53,4.24-2.17c0.11-0.04,0.19-0.11,0.32-0.13c-0.13,0.89,0.13,1.18-0.01,1.55
			c-0.14,0.08-0.23,0.1-0.35,0.15c-5.52,2.38-10.83,6.49-12.6,12.42c-1.67,5.59-0.21,11.53,1.17,17.13
			c0.65,0.85,1.26,1.74,1.87,2.62c0.43-2.03,1.06-4.01,1.9-5.9c0.05-0.11,0.43-0.13,0.79-0.14c0.23-0.04,0.46-0.08,0.7-0.12
			c-0.14,0.62-0.02,1.25-0.15,1.87c-0.02,0.09-0.32,0.11-0.64,0.13c-0.67,1.87-1.15,3.81-1.43,5.77
			C23.31,35.99,21.87,36.27,21.83,36.22z"/>
	</g>
</g>
<g>
	<path class="st26" d="M99.82,25.36c0,5.41,0,10.83,0,16.24c0,2.16-1.05,3.64-2.96,4.62c-1.43,0.74-2.8,1.61-4.19,2.43
		c-2.1,1.24-4.21,2.47-6.33,3.68c-1.75,1-3.44,2.11-5.29,2.94c-0.97,0.43-1.93,0.45-2.97,0.23c-1.01-0.21-1.79-0.8-2.65-1.25
		c-1.91-1.02-3.74-2.19-5.64-3.24c-2.17-1.21-4.28-2.53-6.44-3.77c-0.96-0.55-1.95-1.03-2.84-1.7c-0.97-0.74-1.56-1.67-1.79-2.91
		c-0.14-0.77-0.16-1.51-0.16-2.27c-0.01-10.58,0-21.15,0-31.73c0-1.25,0.78-1.78,1.96-1.43c1.03,0.31,2.1,0.48,3.13,0.8
		c0.99,0.31,1.99,0.55,2.99,0.83c0.96,0.26,1.92,0.53,2.88,0.76c1.07,0.26,2.11,0.63,3.19,0.85c1,0.21,1.94,0.58,2.94,0.78
		c0.76,0.15,1.5,0.42,2.25,0.6c0.89,0.21,1.79,0.2,2.67,0c1.09-0.25,2.16-0.57,3.25-0.85c0.95-0.25,1.9-0.49,2.84-0.74
		c1.07-0.29,2.13-0.58,3.2-0.88c1.24-0.35,2.47-0.75,3.72-1.03c0.75-0.17,1.47-0.43,2.22-0.58c0.75-0.15,1.5-0.37,2.22-0.63
		c0.86-0.31,1.78,0.3,1.78,1.23C99.82,14,99.82,19.68,99.82,25.36C99.82,25.36,99.82,25.36,99.82,25.36z M95.77,21.71
		c-0.55,0.19-1.04,0.28-1.52,0.4c-0.97,0.24-1.92,0.6-2.9,0.81c-1.14,0.25-2.26,0.61-3.39,0.87c-0.96,0.22-1.88,0.58-2.9,0.54
		c-0.79-0.03-1.53-0.18-2.28-0.42c-0.37-0.12-0.76-0.2-1.15-0.27c-0.22-0.04-0.46,0-0.44,0.3c0.04,0.65-0.33,0.68-0.83,0.62
		c-0.21-0.02-0.52-0.19-0.61,0.27c-0.16,0.75-0.25,0.8-1.01,0.55c-0.41-0.13-0.55,0.17-0.52,0.37c0.04,0.29-0.45,0.7,0.16,0.88
		c0.89,0.27,1.78,0.52,2.69,0.73c0.84,0.19,0.83,0.22,0.37,0.93c-0.02,0.03-0.01,0.08-0.03,0.11c-0.96,1.67-1.92,3.34-2.89,5
		c-0.07,0.12-0.15,0.23-0.07,0.36c0.47,0.75,0.8,1.59,1.38,2.27c0.44-0.29,0.55-0.76,0.78-1.16c0.59-1,1.15-2.02,1.73-3.03
		c0.97-1.7,2.13-3.24,3.83-4.29c1.12-0.69,2.29-1.29,3.42-1.96c1.81-1.09,3.64-2.14,5.48-3.18C95.29,22.27,95.66,22.24,95.77,21.71z
		 M88.53,26.91c-0.01-0.02-0.03-0.11-0.05-0.11c-0.09,0.01-0.18,0.03-0.26,0.07c-0.4,0.22-0.8,0.45-1.2,0.68
		c-1.61,0.95-2.91,2.19-3.84,3.83c-1.04,1.83-2.13,3.64-3.18,5.46c-0.17,0.3-0.34,0.2-0.45,0.02c-0.72-1.27-1.42-2.54-2.13-3.82
		c-0.62-1.1-1.2-2.23-1.88-3.29c-0.69-1.07-1.88-1.55-2.92-2.19c-0.43-0.26-0.87-0.49-1.32-0.71c-0.07-0.03-0.21-0.16-0.28-0.02
		c-0.03,0.06,0,0.19,0.04,0.27c0.72,1.16,1.31,2.4,2.05,3.54c0.79,1.22,1.46,2.52,2.21,3.76c1.24,2.05,2.38,4.17,3.57,6.26
		c0.23,0.4,0.4,0.39,0.64-0.02c0.54-0.94,1.08-1.87,1.61-2.81c1.03-1.82,2.05-3.64,3.1-5.45c1.14-1.95,2.53-3.71,4.16-5.27
		C88.46,27.07,88.53,27.04,88.53,26.91z M72.18,29.91c-0.03-0.07-0.05-0.14-0.09-0.2c-0.56-0.96-1.14-1.9-1.68-2.87
		c-0.23-0.41-0.42-0.82-0.85-1.06c-2.21-1.26-4.42-2.53-6.63-3.79c-0.16-0.09-0.33-0.33-0.49-0.15c-0.14,0.15,0.03,0.41,0.14,0.54
		c0.45,0.59,0.78,1.26,1.14,1.9c0.49,0.88,1.09,1.62,1.99,2.13c1.25,0.7,2.47,1.44,3.71,2.16c0.81,0.47,1.65,0.87,2.41,1.43
		C71.94,30.08,72.12,30.19,72.18,29.91z M67.42,28.01c0,0-0.07,0.01-0.09,0.05c-0.05,0.15-0.02,0.29,0.07,0.43
		c0.29,0.5,0.56,1,0.85,1.5c0.64,1.08,1.3,2.1,2.48,2.74c1.36,0.75,2.76,1.46,4.03,2.36c0.1,0.07,0.24,0.09,0.32,0.02
		c0.16-0.13-0.02-0.23-0.07-0.33c-0.42-0.75-0.89-1.47-1.28-2.25c-0.26-0.52-0.52-1.11-0.95-1.45c-0.75-0.58-1.66-0.96-2.47-1.47
		c-0.47-0.3-1.02-0.43-1.45-0.84C68.49,28.43,67.93,28.27,67.42,28.01z M71.99,34c1.04,2.92,2.99,4.93,5.74,6.19
		c0.14,0.06,0.28,0.07,0.4-0.06c-0.62-0.88-1.08-1.84-1.62-2.74c-0.28-0.47-0.46-1.02-0.99-1.35C74.37,35.33,73.19,34.69,71.99,34z"
		/>
	<path class="st26" d="M138.12,28.57c0-2.11,0.01-4.22-0.01-6.33c0-0.48,0.15-0.66,0.63-0.64c0.52,0.03,1.04,0.01,1.55,0.01
		c1.1,0,1.87,0.73,1.87,1.83c0.01,3.44-0.01,6.87,0.01,10.31c0,0.86-0.03,1.72,0.42,2.54c0.53,0.95,1.36,1.42,2.34,1.61
		c0.92,0.18,1.85,0.11,2.76-0.24c1.03-0.4,1.89-1.59,1.89-2.65c0.01-3.55,0-7.1,0-10.65c0-0.29,0-0.58,0.01-0.86
		c0.04-1.13,0.67-1.8,1.8-1.86c0.59-0.03,1.19-0.01,1.78-0.02c0.35-0.01,0.51,0.13,0.51,0.51c-0.01,4.11,0.07,8.22-0.03,12.32
		c-0.05,2.14-0.78,4.09-2.72,5.35c-0.61,0.4-1.27,0.65-1.95,0.87c-1.83,0.6-3.73,0.62-5.58,0.2c-2.14-0.49-3.93-1.57-4.77-3.74
		c-0.32-0.83-0.54-1.7-0.53-2.61C138.14,32.53,138.13,30.55,138.12,28.57C138.12,28.57,138.12,28.57,138.12,28.57z"/>
	<path class="st26" d="M114.24,36.26c0.52-1.82,0.98-3.51,1.5-5.18c0.41-1.32,0.78-2.66,1.18-3.98c0.45-1.48,0.87-2.97,1.35-4.45
		c0.16-0.49,0.94-1.03,1.47-1.03c0.81-0.01,1.61,0.01,2.42-0.02c0.47-0.02,0.59,0.18,0.47,0.58c-0.25,0.78-0.52,1.55-0.78,2.32
		c-0.35,1.03-0.71,2.06-1.06,3.09c-0.41,1.21-0.83,2.41-1.24,3.62c-0.35,1.04-0.7,2.09-1.05,3.14c-0.26,0.76-0.52,1.53-0.78,2.29
		c-0.35,1.04-0.73,2.07-1.05,3.12c-0.09,0.29-0.27,0.53-0.28,0.86c-0.01,0.23-0.26,0.25-0.46,0.25c-1.11,0-2.23,0-3.34,0.01
		c-0.35,0-0.45-0.18-0.55-0.51c-0.39-1.26-0.87-2.5-1.25-3.76c-0.26-0.84-0.62-1.65-0.84-2.51c-0.18-0.71-0.49-1.39-0.7-2.1
		c-0.25-0.84-0.58-1.65-0.87-2.47c-0.45-1.26-0.84-2.54-1.32-3.8c-0.33-0.87-0.52-1.8-0.8-2.69c-0.08-0.26-0.23-0.49-0.35-0.74
		c-0.18-0.36-0.11-0.6,0.34-0.6c0.81,0,1.61-0.02,2.42,0.02c1.09,0.05,1.39,0.49,1.73,1.5c0.54,1.62,0.93,3.28,1.43,4.91
		c0.49,1.6,0.96,3.19,1.4,4.8C113.51,34,113.87,35.05,114.24,36.26z"/>
	<path class="st26" d="M124.7,31.17c0-2.99,0.01-5.99-0.01-8.98c0-0.44,0.09-0.61,0.57-0.59c0.9,0.04,1.81,0.05,2.7,0
		c0.56-0.03,0.67,0.18,0.67,0.68c-0.02,4.82-0.01,9.63-0.01,14.45c0,0.94,0,0.95,0.94,0.95c1.9,0,3.8,0,5.7,0.01
		c1.02,0.01,1.78,0.73,1.85,1.73c0.11,1.44,0.11,1.44-1.34,1.44c-3.49,0-6.99-0.01-10.48,0.01c-0.48,0-0.62-0.12-0.61-0.61
		C124.71,37.23,124.7,34.2,124.7,31.17z"/>
	<path class="st27" d="M95.77,21.71c-0.11,0.53-0.48,0.57-0.71,0.7c-1.84,1.04-3.67,2.1-5.48,3.18c-1.13,0.67-2.3,1.27-3.42,1.96
		c-1.7,1.06-2.86,2.59-3.83,4.29c-0.58,1.01-1.14,2.03-1.73,3.03c-0.23,0.39-0.34,0.87-0.78,1.16c-0.58-0.68-0.91-1.52-1.38-2.27
		c-0.08-0.14,0-0.24,0.07-0.36c0.97-1.66,1.93-3.33,2.89-5c0.02-0.03,0.01-0.08,0.03-0.11c0.46-0.71,0.47-0.74-0.37-0.93
		c-0.91-0.21-1.8-0.46-2.69-0.73c-0.6-0.18-0.11-0.59-0.16-0.88c-0.03-0.2,0.11-0.5,0.52-0.37c0.76,0.24,0.85,0.19,1.01-0.55
		c0.1-0.46,0.41-0.29,0.61-0.27c0.5,0.06,0.87,0.03,0.83-0.62c-0.02-0.3,0.22-0.34,0.44-0.3c0.39,0.07,0.77,0.16,1.15,0.27
		c0.74,0.23,1.49,0.39,2.28,0.42c1.01,0.04,1.94-0.32,2.9-0.54c1.14-0.27,2.25-0.63,3.39-0.87c0.98-0.21,1.93-0.57,2.9-0.81
		C94.73,21.99,95.22,21.9,95.77,21.71z"/>
	<path class="st27" d="M88.53,26.91c0,0.13-0.07,0.16-0.13,0.21c-1.63,1.56-3.02,3.32-4.16,5.27c-1.05,1.8-2.07,3.63-3.1,5.45
		c-0.53,0.94-1.07,1.87-1.61,2.81c-0.24,0.41-0.41,0.42-0.64,0.02c-1.19-2.09-2.32-4.2-3.57-6.26c-0.75-1.25-1.42-2.54-2.21-3.76
		c-0.74-1.14-1.33-2.38-2.05-3.54c-0.05-0.07-0.08-0.2-0.04-0.27c0.08-0.14,0.22-0.02,0.28,0.02c0.45,0.22,0.89,0.45,1.32,0.71
		c1.05,0.63,2.23,1.11,2.92,2.19c0.68,1.06,1.26,2.19,1.88,3.29c0.71,1.27,1.41,2.55,2.13,3.82c0.11,0.19,0.27,0.28,0.45-0.02
		c1.05-1.83,2.14-3.63,3.18-5.46c0.93-1.64,2.23-2.89,3.84-3.83c0.4-0.23,0.8-0.46,1.2-0.68c0.08-0.04,0.17-0.06,0.26-0.07
		C88.5,26.8,88.53,26.89,88.53,26.91z"/>
	<path class="st27" d="M72.18,29.91c-0.06,0.27-0.24,0.17-0.35,0.09c-0.75-0.56-1.6-0.96-2.41-1.43c-1.24-0.72-2.46-1.46-3.71-2.16
		c-0.89-0.5-1.49-1.25-1.99-2.13c-0.36-0.64-0.69-1.31-1.14-1.9c-0.1-0.14-0.28-0.39-0.14-0.54c0.16-0.17,0.33,0.06,0.49,0.15
		c2.21,1.26,4.42,2.52,6.63,3.79c0.42,0.24,0.62,0.65,0.85,1.06c0.53,0.97,1.11,1.92,1.68,2.87C72.13,29.77,72.15,29.85,72.18,29.91
		z"/>
	<path class="st27" d="M67.42,28.01c0.51,0.26,1.07,0.42,1.44,0.76c0.44,0.4,0.98,0.54,1.45,0.84c0.81,0.52,1.71,0.89,2.47,1.47
		c0.43,0.33,0.7,0.93,0.95,1.45c0.38,0.77,0.86,1.49,1.28,2.25c0.06,0.1,0.23,0.2,0.07,0.33c-0.09,0.07-0.23,0.05-0.32-0.02
		c-1.27-0.91-2.67-1.61-4.03-2.36c-1.18-0.65-1.84-1.66-2.48-2.74c-0.29-0.49-0.56-1-0.85-1.5c-0.08-0.14-0.12-0.28-0.07-0.43
		C67.35,28.03,67.42,28.01,67.42,28.01z"/>
	<path class="st27" d="M71.99,34c1.2,0.69,2.38,1.33,3.53,2.04c0.54,0.33,0.71,0.88,0.99,1.35c0.54,0.9,0.99,1.86,1.62,2.74
		c-0.12,0.13-0.26,0.12-0.4,0.06C74.98,38.93,73.03,36.92,71.99,34z"/>
</g>
</svg>
