<?xml version="1.0" standalone="no"?>
<!DOCTYPE svg PUBLIC "-//W3C//DTD SVG 20010904//EN"
 "http://www.w3.org/TR/2001/REC-SVG-20010904/DTD/svg10.dtd">
<svg version="1.0" xmlns="http://www.w3.org/2000/svg"
 width="740.000000pt" height="740.000000pt" viewBox="0 0 740.000000 740.000000"
 preserveAspectRatio="xMidYMid meet">

<g transform="translate(0.000000,740.000000) scale(0.100000,-0.100000)"
fill="#000000" stroke="none">
<path d="M2359 4758 l0 -553 -58 121 c-64 133 -111 193 -174 222 -85 41 -85
41 -86 -27 0 -33 -6 -71 -12 -83 -12 -22 -13 -21 -22 22 -13 65 -26 76 -67 55
-32 -17 -34 -17 -50 6 -16 21 -20 21 -49 9 -17 -7 -45 -28 -61 -47 -29 -33
-30 -33 -55 -17 -42 27 -77 98 -77 153 l0 48 -52 7 c-147 17 -175 10 -292 -74
-248 -179 -403 -400 -404 -573 0 -114 122 -211 303 -241 l68 -11 -7 -60 c-3
-33 -10 -107 -14 -165 -5 -58 -15 -132 -24 -165 -29 -111 -18 -393 29 -715 9
-63 17 -203 19 -350 2 -179 9 -286 25 -395 21 -155 67 -427 77 -457 5 -16 19
-18 114 -18 l109 0 6 33 c5 35 49 345 120 867 25 184 48 336 50 339 3 2 7 -2
9 -10 3 -8 17 -45 31 -84 14 -38 30 -101 36 -139 25 -177 130 -519 256 -831
l68 -170 113 -3 114 -3 -6 53 c-3 29 -13 141 -21 248 -8 107 -28 362 -45 565
-16 204 -39 513 -50 687 l-20 318 27 97 c21 80 27 127 31 251 3 130 6 152 19
148 8 -3 17 -6 19 -6 2 0 4 -142 4 -315 l0 -315 205 0 205 0 0 -948 0 -949
-40 -12 c-29 -9 -40 -17 -40 -31 0 -19 8 -20 145 -20 137 0 145 1 145 20 0 14
-11 22 -40 31 l-40 12 0 949 0 948 774 0 773 0 6 -82 c4 -46 7 -338 7 -650 l0
-568 -271 0 -270 0 3 -27 3 -28 268 -3 267 -2 0 -26 c0 -15 4 -23 10 -19 6 4
8 15 5 26 -5 15 -1 19 14 19 26 0 26 13 1 -275 -11 -126 -20 -237 -20 -246 0
-13 -30 -15 -245 -15 -257 0 -282 -4 -259 -42 10 -16 41 -17 355 -17 308 0
344 2 347 16 2 12 -10 20 -43 29 l-45 13 0 948 0 949 205 0 205 0 0 1065 0
1065 -1315 0 -1315 0 -1 -552z m2581 -513 l0 -1015 -1262 2 -1263 3 -1 270
c-1 149 0 273 2 276 1 3 36 0 76 -7 78 -14 181 -17 239 -8 33 6 35 8 38 48 1
22 9 51 16 63 18 26 21 24 -97 67 -52 19 -104 38 -114 44 -11 5 -40 19 -66 32
-26 12 -59 37 -73 56 l-25 33 0 569 c0 313 3 572 7 575 3 4 573 7 1265 7
l1258 0 0 -1015z m-3460 43 c0 -6 6 -5 15 2 12 10 27 2 86 -46 102 -85 103
-86 186 -100 70 -12 104 -26 92 -38 -2 -3 -46 3 -97 13 l-92 18 -75 -98 c-72
-95 -86 -119 -66 -119 5 0 12 -8 15 -18 8 -23 -8 -110 -23 -125 -13 -13 -135
-27 -174 -20 -41 8 -57 39 -50 96 5 44 9 49 47 66 36 17 38 19 11 15 -42 -7
-151 65 -132 86 10 12 9 12 -5 1 -20 -15 -38 -7 -38 18 0 32 99 161 123 161 5
0 7 -13 5 -30 -3 -16 -2 -30 1 -29 7 0 124 144 129 158 4 12 42 2 42 -11z"/>
<path d="M4739 4793 c-13 -16 -12 -17 4 -4 16 13 21 21 13 21 -2 0 -10 -8 -17
-17z"/>
<path d="M4721 4684 c0 -11 3 -14 6 -6 3 7 2 16 -1 19 -3 4 -6 -2 -5 -13z"/>
<path d="M2566 4032 l-19 -27 24 22 c12 12 21 24 18 27 -2 2 -13 -8 -23 -22z"/>
<path d="M4736 3723 c-6 -14 -5 -15 5 -6 7 7 10 15 7 18 -3 3 -9 -2 -12 -12z"/>
<path d="M4699 3693 c-13 -16 -12 -17 4 -4 16 13 21 21 13 21 -2 0 -10 -8 -17
-17z"/>
<path d="M1510 4256 c0 -2 8 -10 18 -17 15 -13 16 -12 3 4 -13 16 -21 21 -21
13z"/>
<path d="M1600 4186 c0 -2 8 -10 18 -17 15 -13 16 -12 3 4 -13 16 -21 21 -21
13z"/>
<path d="M1270 4088 c-19 -24 -26 -37 -17 -29 19 15 61 71 54 71 -2 0 -19 -19
-37 -42z"/>
<path d="M1468 3943 c6 -2 18 -2 25 0 6 3 1 5 -13 5 -14 0 -19 -2 -12 -5z"/>
<path d="M1818 5199 c-13 -14 -36 -33 -51 -43 -36 -22 -57 -71 -57 -131 0 -43
1 -45 25 -39 30 7 70 -16 80 -46 4 -11 11 -17 17 -14 18 12 58 108 58 143 0
31 1 33 28 26 15 -5 59 -11 97 -14 l70 -7 -35 -17 -35 -17 58 3 c54 4 59 2 68
-20 12 -32 12 -33 -8 -33 -17 -1 -17 -1 0 -11 10 -6 17 -22 17 -42 1 -30 2
-31 15 -13 10 14 14 45 13 112 -2 81 -5 97 -23 114 -42 39 -113 62 -215 67
-94 6 -99 5 -122 -18z"/>
<path d="M1960 5010 c-24 -15 -7 -18 25 -4 23 10 25 13 10 13 -11 1 -27 -3
-35 -9z"/>
<path d="M2007 4953 c-12 -11 -8 -23 8 -23 8 0 15 7 15 15 0 16 -12 20 -23 8z"/>
<path d="M2117 4926 c-6 -16 2 -28 14 -20 12 7 11 34 0 34 -5 0 -11 -6 -14
-14z"/>
<path d="M1932 4798 c37 -56 111 -79 144 -46 13 13 12 15 -13 15 -16 0 -55 12
-87 26 -57 26 -58 27 -44 5z"/>
<path d="M5526 3669 c-14 -11 -26 -25 -26 -32 0 -6 -9 -20 -19 -31 -11 -12
-22 -33 -26 -47 -6 -24 -4 -25 24 -21 26 4 39 -3 76 -37 24 -22 47 -41 50 -41
2 0 -4 15 -15 33 -31 51 -24 49 35 -8 45 -43 55 -58 55 -85 l0 -33 23 21 c27
25 62 29 71 7 10 -27 -6 -75 -35 -103 -51 -48 -32 -69 28 -32 33 20 60 64 83
138 7 23 17 42 21 42 14 0 21 -47 11 -67 -30 -59 -20 -153 22 -204 15 -18 25
-38 22 -45 -8 -20 11 -17 33 5 15 15 19 28 14 55 -6 36 14 83 77 191 22 37 30
63 30 100 0 62 -15 93 -59 122 -38 26 -121 32 -165 12 -21 -10 -29 -8 -59 15
-81 62 -220 85 -271 45z m-26 -104 c0 -9 -6 -12 -15 -9 -8 4 -12 10 -9 15 8
14 24 10 24 -6z"/>
<path d="M5456 3484 c-4 -10 -2 -22 3 -27 7 -7 13 -5 17 7 4 10 2 22 -3 27 -7
7 -13 5 -17 -7z"/>
<path d="M5562 3444 c-1 -15 3 -24 13 -24 18 0 20 24 2 38 -10 8 -13 5 -15
-14z"/>
<path d="M5475 3340 c4 -14 8 -26 9 -27 3 -3 75 23 82 30 4 3 -10 4 -30 0 -23
-4 -42 -1 -52 8 -15 12 -16 11 -9 -11z"/>
<path d="M5351 3271 c-30 -26 -50 -51 -44 -54 10 -6 113 78 113 94 0 17 -15 8
-69 -40z"/>
<path d="M5720 3177 c0 -21 -10 -32 -49 -55 l-49 -28 18 -24 19 -25 48 41 c54
46 63 72 33 99 -20 18 -20 18 -20 -8z"/>
<path d="M5543 3158 c-11 -13 -28 -39 -38 -58 l-17 -35 23 22 23 23 23 -28 22
-27 1 63 c0 34 -4 62 -8 62 -5 0 -18 -10 -29 -22z"/>
<path d="M5202 2898 c-12 -33 -20 -63 -18 -66 10 -9 25 10 39 51 8 23 18 50
22 60 5 11 3 17 -7 17 -8 0 -23 -26 -36 -62z"/>
<path d="M5597 2866 c-4 -10 -7 -19 -7 -20 0 -1 24 -35 53 -74 49 -65 56 -70
73 -58 17 13 16 16 -18 57 -95 115 -94 114 -101 95z"/>
<path d="M5340 2630 c0 -11 2 -20 4 -20 2 0 6 9 9 20 3 11 1 20 -4 20 -5 0 -9
-9 -9 -20z"/>
<path d="M6172 2580 c0 -19 2 -27 5 -17 2 9 2 25 0 35 -3 9 -5 1 -5 -18z"/>
<path d="M6222 2570 c0 -19 2 -27 5 -17 2 9 2 25 0 35 -3 9 -5 1 -5 -18z"/>
<path d="M6162 2510 c0 -19 2 -27 5 -17 2 9 2 25 0 35 -3 9 -5 1 -5 -18z"/>
<path d="M6212 2495 c0 -16 2 -22 5 -12 2 9 2 23 0 30 -3 6 -5 -1 -5 -18z"/>
<path d="M5380 2481 c0 -15 38 -33 58 -28 13 4 11 5 -5 6 -12 0 -29 8 -37 17
-9 8 -16 11 -16 5z"/>
<path d="M6152 2430 c0 -19 2 -27 5 -17 2 9 2 25 0 35 -3 9 -5 1 -5 -18z"/>
<path d="M6202 2425 c0 -16 2 -22 5 -12 2 9 2 23 0 30 -3 6 -5 -1 -5 -18z"/>
<path d="M5340 2379 c-215 -104 -316 -177 -368 -262 -35 -59 -51 -130 -32
-142 10 -6 11 -1 7 17 -6 24 -3 27 49 43 107 33 284 0 468 -89 l70 -34 31 24
c67 51 87 54 344 54 l239 0 7 41 c4 22 4 43 1 46 -3 4 -6 -4 -6 -17 l0 -23
-25 27 c-14 15 -25 22 -25 17 0 -7 -25 -11 -61 -11 l-60 0 25 33 c51 67 56
176 12 278 l-15 37 -188 6 c-398 13 -342 19 -473 -45z"/>
<path d="M6142 2360 c0 -14 2 -19 5 -12 2 6 2 18 0 25 -3 6 -5 1 -5 -13z"/>
<path d="M6192 2350 c0 -19 2 -27 5 -17 2 9 2 25 0 35 -3 9 -5 1 -5 -18z"/>
<path d="M6134 2316 c-3 -8 -4 -25 -2 -38 3 -17 5 -13 9 15 5 38 2 47 -7 23z"/>
<path d="M6182 2285 c0 -16 2 -22 5 -12 2 9 2 23 0 30 -3 6 -5 -1 -5 -18z"/>
<path d="M6122 2215 c0 -16 2 -22 5 -12 2 9 2 23 0 30 -3 6 -5 -1 -5 -18z"/>
<path d="M6172 2205 c0 -16 2 -22 5 -12 2 9 2 23 0 30 -3 6 -5 -1 -5 -18z"/>
<path d="M6112 2140 c0 -19 2 -27 5 -17 2 9 2 25 0 35 -3 9 -5 1 -5 -18z"/>
<path d="M6162 2135 c0 -16 2 -22 5 -12 2 9 2 23 0 30 -3 6 -5 -1 -5 -18z"/>
<path d="M5246 1985 c-38 -13 -75 -40 -65 -48 2 -3 30 -7 62 -10 l57 -6 0 34
c0 43 -6 46 -54 30z"/>
<path d="M5270 1875 c0 -28 4 -35 20 -35 24 0 27 32 4 54 -22 22 -24 21 -24
-19z"/>
<path d="M5620 1826 l0 -84 60 -4 60 -3 0 88 0 87 -60 0 -60 0 0 -84z"/>
<path d="M6034 1903 c-50 -4 -50 -4 -46 -33 4 -29 7 -30 53 -30 l49 0 0 35 c0
19 -1 34 -2 33 -2 -1 -26 -3 -54 -5z"/>
<path d="M5632 1690 c0 -19 2 -27 5 -17 2 9 2 25 0 35 -3 9 -5 1 -5 -18z"/>
<path d="M4462 1655 c0 -16 2 -22 5 -12 2 9 2 23 0 30 -3 6 -5 -1 -5 -18z"/>
<path d="M5634 1500 c0 -80 2 -112 3 -72 2 39 2 105 0 145 -1 39 -3 7 -3 -73z"/>
<path d="M5724 1470 c0 -85 2 -120 3 -77 2 42 2 112 0 155 -1 42 -3 7 -3 -78z"/>
<path d="M5120 1351 c-14 -3 -45 -18 -70 -32 -25 -15 -62 -32 -82 -39 -40 -12
-52 -42 -22 -54 9 -3 81 -3 160 1 l144 6 0 26 c0 14 -3 43 -6 64 -7 37 -7 37
-53 36 -25 -1 -57 -4 -71 -8z"/>
<path d="M5485 1351 c-22 -3 -62 -19 -88 -35 -27 -16 -63 -32 -80 -35 -40 -8
-50 -45 -15 -54 32 -9 288 4 294 15 3 4 2 33 -1 63 -7 54 -8 55 -39 53 -17 0
-49 -4 -71 -7z"/>
<path d="M1384 1321 c-2 -2 -4 -26 -4 -53 0 -41 3 -48 19 -48 11 0 21 6 24 13
4 10 7 10 18 0 9 -9 53 -13 144 -13 73 0 134 2 137 5 3 3 3 16 1 30 -4 17 -14
26 -37 30 -17 4 -42 14 -56 23 -19 13 -50 17 -133 17 -60 0 -111 -2 -113 -4z"/>
<path d="M2216 1290 c-9 -57 -7 -70 12 -70 10 0 23 5 29 11 8 8 13 8 17 0 5
-7 57 -11 148 -11 l140 0 -6 23 c-3 12 -6 25 -6 28 0 3 -19 12 -42 18 -24 7
-49 18 -57 25 -9 7 -56 11 -122 11 l-107 0 -6 -35z"/>
<path d="M5658 1233 c12 -2 32 -2 45 0 12 2 2 4 -23 4 -25 0 -35 -2 -22 -4z"/>
</g>
</svg>
